<svg xmlns="http://www.w3.org/2000/svg" xmlns:xlink="http://www.w3.org/1999/xlink" viewBox="0 0 687.92 656.15"><defs><style>.cls-1,.cls-23{fill:none;}.cls-2{fill:#646464;}.cls-3{fill:#010101;}.cls-4{fill:#fff;}.cls-5{fill:#5e9e49;}.cls-6{fill:#325d28;}.cls-7{fill:#eaeaea;}.cls-8{clip-path:url(#clip-path);}.cls-9{fill:#f6b2a3;}.cls-10{fill:#f8c7bd;}.cls-11{fill:#d2eaf1;}.cls-12{fill:#e5f3f8;}.cls-13{fill:#54c2f0;}.cls-14{fill:#f49c82;}.cls-15{fill:#c7e6ee;}.cls-16{fill:#b8dfe4;}.cls-17{fill:#fce0da;}.cls-18{fill:#dbe0ea;}.cls-19{fill:#bfc4d3;}.cls-20{fill:#edf2fa;}.cls-21{fill:#5993ce;}.cls-22{fill:#7fcada;}.cls-23{stroke:#48733c;stroke-miterlimit:10;stroke-width:0.73px;}.cls-24{fill:#48733c;}.cls-25{clip-path:url(#clip-path-2);}</style><clipPath id="clip-path" transform="translate(0 0)"><rect class="cls-1" x="521.36" width="31.39" height="32.32"/></clipPath><clipPath id="clip-path-2" transform="translate(0 0)"><rect class="cls-1" x="656.6" y="94.48" width="31.39" height="32.32"/></clipPath></defs><g id="Capa_2" data-name="Capa 2"><g id="Capa_1-2" data-name="Capa 1"><path class="cls-2" d="M124.74,126.47H558.25a0,0,0,0,1,0,0V560a0,0,0,0,1,0,0H356.05A231.31,231.31,0,0,1,124.74,328.66V126.47A0,0,0,0,1,124.74,126.47Z"/><rect class="cls-3" x="-8.44" y="114.34" width="168.77" height="34.81" transform="translate(-55.8 207.69) rotate(-90)"/><rect class="cls-2" x="60.65" y="47.36" width="2.11" height="168.77"/><rect class="cls-2" x="89.13" y="47.36" width="2.11" height="168.77"/><rect class="cls-4" x="74.89" y="205.58" width="2.11" height="10.55"/><rect class="cls-4" x="74.89" y="184.48" width="2.11" height="10.55"/><rect class="cls-4" x="74.89" y="163.38" width="2.11" height="10.55"/><rect class="cls-4" x="74.89" y="142.29" width="2.11" height="10.55"/><rect class="cls-4" x="74.89" y="121.19" width="2.11" height="10.55"/><rect class="cls-4" x="74.89" y="100.1" width="2.11" height="10.55"/><rect class="cls-4" x="74.89" y="79" width="2.11" height="10.55"/><rect class="cls-4" x="74.89" y="57.9" width="2.11" height="10.55"/><rect class="cls-3" x="-8.44" y="283.1" width="168.77" height="34.81" transform="translate(-224.56 376.45) rotate(-90)"/><rect class="cls-2" x="60.65" y="216.12" width="2.11" height="168.77"/><rect class="cls-2" x="89.13" y="216.12" width="2.11" height="168.77"/><rect class="cls-4" x="74.89" y="374.34" width="2.11" height="10.55"/><rect class="cls-4" x="74.89" y="353.25" width="2.11" height="10.55"/><rect class="cls-4" x="74.89" y="332.15" width="2.11" height="10.55"/><rect class="cls-4" x="74.89" y="311.05" width="2.11" height="10.55"/><rect class="cls-4" x="74.89" y="289.96" width="2.11" height="10.55"/><rect class="cls-4" x="74.89" y="268.86" width="2.11" height="10.55"/><rect class="cls-4" x="74.89" y="247.77" width="2.11" height="10.55"/><rect class="cls-4" x="74.89" y="226.67" width="2.11" height="10.55"/><rect class="cls-3" x="-8.44" y="451.87" width="168.77" height="34.81" transform="translate(-393.33 545.22) rotate(-90)"/><rect class="cls-2" x="60.65" y="384.89" width="2.11" height="168.77"/><rect class="cls-2" x="89.13" y="384.89" width="2.11" height="168.77"/><rect class="cls-4" x="74.89" y="543.11" width="2.11" height="10.55"/><rect class="cls-4" x="74.89" y="522.01" width="2.11" height="10.55"/><rect class="cls-4" x="74.89" y="500.92" width="2.11" height="10.55"/><rect class="cls-4" x="74.89" y="479.82" width="2.11" height="10.55"/><rect class="cls-4" x="74.89" y="458.73" width="2.11" height="10.55"/><rect class="cls-4" x="74.89" y="437.63" width="2.11" height="10.55"/><rect class="cls-4" x="74.89" y="416.53" width="2.11" height="10.55"/><rect class="cls-4" x="74.89" y="395.44" width="2.11" height="10.55"/><rect class="cls-3" x="468.33" y="591.1" width="168.77" height="34.81"/><rect class="cls-2" x="468.33" y="593.21" width="168.77" height="2.11"/><rect class="cls-2" x="468.33" y="621.69" width="168.77" height="2.11"/><rect class="cls-4" x="468.33" y="607.45" width="10.55" height="2.11"/><rect class="cls-4" x="489.42" y="607.45" width="10.55" height="2.11"/><rect class="cls-4" x="510.52" y="607.45" width="10.55" height="2.11"/><rect class="cls-4" x="531.62" y="607.45" width="10.55" height="2.11"/><rect class="cls-4" x="552.71" y="607.45" width="10.55" height="2.11"/><rect class="cls-4" x="573.81" y="607.45" width="10.55" height="2.11"/><rect class="cls-4" x="594.9" y="607.45" width="10.55" height="2.11"/><rect class="cls-4" x="616" y="607.45" width="10.55" height="2.11"/><rect class="cls-3" x="299.56" y="591.1" width="168.77" height="34.81"/><rect class="cls-2" x="299.56" y="593.21" width="168.77" height="2.11"/><rect class="cls-2" x="299.56" y="621.69" width="168.77" height="2.11"/><rect class="cls-4" x="299.56" y="607.45" width="10.55" height="2.11"/><rect class="cls-4" x="320.66" y="607.45" width="10.55" height="2.11"/><rect class="cls-4" x="341.75" y="607.45" width="10.55" height="2.11"/><rect class="cls-4" x="362.85" y="607.45" width="10.55" height="2.11"/><rect class="cls-4" x="383.94" y="607.45" width="10.55" height="2.11"/><rect class="cls-4" x="405.04" y="607.45" width="10.55" height="2.11"/><rect class="cls-4" x="426.14" y="607.45" width="10.55" height="2.11"/><rect class="cls-4" x="447.23" y="607.45" width="10.55" height="2.11"/><rect class="cls-3" y="591.1" width="299.56" height="34.81"/><rect class="cls-2" x="130.79" y="593.21" width="168.77" height="2.11"/><rect class="cls-2" x="130.79" y="621.69" width="168.77" height="2.11"/><rect class="cls-4" x="130.79" y="607.45" width="10.55" height="2.11"/><rect class="cls-4" x="151.89" y="607.45" width="10.55" height="2.11"/><rect class="cls-4" x="172.99" y="607.45" width="10.55" height="2.11"/><rect class="cls-4" x="194.08" y="607.45" width="10.55" height="2.11"/><rect class="cls-4" x="215.18" y="607.45" width="10.55" height="2.11"/><rect class="cls-4" x="236.27" y="607.45" width="10.55" height="2.11"/><rect class="cls-4" x="257.37" y="607.45" width="10.55" height="2.11"/><rect class="cls-4" x="278.47" y="607.45" width="10.55" height="2.11"/><rect class="cls-2" y="593.21" width="46.41" height="2.11"/><rect class="cls-2" x="106.53" y="593.21" width="24.26" height="2.11"/><rect class="cls-2" x="58.54" y="593.21" width="34.81" height="2.11"/><rect class="cls-2" y="621.69" width="46.41" height="2.11"/><rect class="cls-2" x="106.53" y="621.69" width="24.26" height="2.11"/><rect class="cls-2" x="58.54" y="621.69" width="34.81" height="2.11"/><rect class="cls-4" x="4.22" y="607.45" width="10.55" height="2.11"/><rect class="cls-4" x="25.32" y="607.45" width="10.55" height="2.11"/><rect class="cls-4" x="67.51" y="607.45" width="10.55" height="2.11"/><rect class="cls-4" x="109.7" y="607.45" width="10.55" height="2.11"/><rect class="cls-3" x="58.54" y="553.66" width="34.81" height="102.49"/><rect class="cls-2" x="60.65" y="553.66" width="2.11" height="22.85"/><rect class="cls-2" x="89.13" y="553.66" width="2.11" height="22.85"/><rect class="cls-4" x="74.89" y="564.2" width="2.11" height="10.55"/><rect class="cls-4" x="74.89" y="579.24" width="2.11" height="10.55"/><rect class="cls-4" x="78.46" y="579.24" width="2.11" height="10.55"/><rect class="cls-4" x="71.32" y="579.24" width="2.11" height="10.55"/><rect class="cls-4" x="64.17" y="579.24" width="2.11" height="10.55"/><rect class="cls-4" x="67.74" y="579.24" width="2.11" height="10.55"/><rect class="cls-4" x="60.59" y="579.24" width="2.11" height="10.55"/><rect class="cls-4" x="85.61" y="579.24" width="2.11" height="10.55"/><rect class="cls-4" x="89.19" y="579.24" width="2.11" height="10.55"/><rect class="cls-4" x="82.04" y="579.24" width="2.11" height="10.55"/><rect class="cls-4" x="93.35" y="607.45" width="10.55" height="2.11"/><rect class="cls-4" x="93.35" y="611.03" width="10.55" height="2.11"/><rect class="cls-4" x="93.35" y="603.88" width="10.55" height="2.11"/><rect class="cls-4" x="93.35" y="596.73" width="10.55" height="2.11"/><rect class="cls-4" x="93.35" y="600.3" width="10.55" height="2.11"/><rect class="cls-4" x="93.35" y="593.15" width="10.55" height="2.11"/><rect class="cls-4" x="93.35" y="618.18" width="10.55" height="2.11"/><rect class="cls-4" x="93.35" y="621.75" width="10.55" height="2.11"/><rect class="cls-4" x="93.35" y="614.6" width="10.55" height="2.11"/><rect class="cls-4" x="48.23" y="607.45" width="10.55" height="2.11"/><rect class="cls-4" x="48.23" y="611.03" width="10.55" height="2.11"/><rect class="cls-4" x="48.23" y="603.88" width="10.55" height="2.11"/><rect class="cls-4" x="48.23" y="596.73" width="10.55" height="2.11"/><rect class="cls-4" x="48.23" y="600.3" width="10.55" height="2.11"/><rect class="cls-4" x="48.23" y="593.15" width="10.55" height="2.11"/><rect class="cls-4" x="48.23" y="618.18" width="10.55" height="2.11"/><rect class="cls-4" x="48.23" y="621.75" width="10.55" height="2.11"/><rect class="cls-4" x="48.23" y="614.6" width="10.55" height="2.11"/><rect class="cls-4" x="74.89" y="625.91" width="2.11" height="10.55"/><rect class="cls-4" x="78.46" y="625.91" width="2.11" height="10.55"/><rect class="cls-4" x="71.32" y="625.91" width="2.11" height="10.55"/><rect class="cls-4" x="64.17" y="625.91" width="2.11" height="10.55"/><rect class="cls-4" x="67.74" y="625.91" width="2.11" height="10.55"/><rect class="cls-4" x="60.59" y="625.91" width="2.11" height="10.55"/><rect class="cls-4" x="85.61" y="625.91" width="2.11" height="10.55"/><rect class="cls-4" x="89.19" y="625.91" width="2.11" height="10.55"/><rect class="cls-4" x="82.04" y="625.91" width="2.11" height="10.55"/><rect class="cls-2" x="60.65" y="638.57" width="2.11" height="17.58"/><rect class="cls-2" x="89.13" y="638.57" width="2.11" height="17.58"/><rect class="cls-4" x="74.89" y="638.57" width="2.11" height="10.55"/><rect class="cls-5" x="124.74" y="158.01" width="240.38" height="100.42"/><rect class="cls-5" x="426.3" y="337.42" width="100.18" height="222.55"/><rect class="cls-5" x="124.74" y="47.36" width="411.35" height="84.38"/><polygon class="cls-5" points="637.36 148.62 637.36 559.97 552.75 559.97 552.75 147.56 636.3 147.56 637.36 148.62"/><path class="cls-3" d="M45.72,350.84l-1.59-.23a7.61,7.61,0,0,0,1.12-3.77c0-1.65-.87-2.91-2.48-2.91s-2.06,1.42-3.18,3.57c-.89,1.71-1.84,3.05-3.86,3.05-2.5,0-3.81-1.93-3.81-4.41a6.13,6.13,0,0,1,.91-3.5l1.57.28a5.46,5.46,0,0,0-1,3.16c0,1.73,1,2.75,2.16,2.75s1.85-.87,2.78-2.71,2-4,4.39-4,4,1.95,4,4.62A8.58,8.58,0,0,1,45.72,350.84Z" transform="translate(0 0)"/><path class="cls-3" d="M46.39,331.7a8,8,0,0,1,.19,1.64c0,.8-.36,1.2-1.25,1.27a4,4,0,0,1,1.38,3c0,1.54-.83,2.75-2.39,2.75-2.67,0-3.22-3.6-3.58-5.7h-1.4c-1.11,0-1.85.28-1.85,1.89a7.55,7.55,0,0,0,.85,3.18l-1.23.25a8.84,8.84,0,0,1-1-4c0-2.06,1.06-3,3-3H44.8c.64,0,.7-.36.7-.83v-.49Zm-1,5.77a4.19,4.19,0,0,0-1.55-2.84H41.9c.42,2.31,1,4.07,2.37,4.07A1.12,1.12,0,0,0,45.36,337.47Z" transform="translate(0 0)"/><path class="cls-3" d="M36.39,329.35l-.32-1.61h1.42a5.34,5.34,0,0,1-1.42-3.48c0-2.18,1.36-3.32,3.48-3.32h6.86v1.61H39.78a2,2,0,0,0-2.22,2.14A4.52,4.52,0,0,0,39,327.74h7.41v1.61Z" transform="translate(0 0)"/><path class="cls-3" d="M32.21,312.75v-2l11.58-5-11.58-5.07v-1.88h14.2v1.69H35.67l10.74,4.77v1.06l-10.83,4.79H46.41v1.69Z" transform="translate(0 0)"/><path class="cls-3" d="M46.39,287.53a7.85,7.85,0,0,1,.19,1.63c0,.81-.36,1.21-1.25,1.28a4,4,0,0,1,1.38,3c0,1.55-.83,2.76-2.39,2.76-2.67,0-3.22-3.6-3.58-5.7h-1.4c-1.11,0-1.85.27-1.85,1.88a7.55,7.55,0,0,0,.85,3.18l-1.23.26a8.84,8.84,0,0,1-1-4c0-2.05,1.06-3,3-3H44.8c.64,0,.7-.36.7-.83v-.49Zm-1,5.77a4.19,4.19,0,0,0-1.55-2.84H41.9c.42,2.31,1,4.07,2.37,4.07A1.12,1.12,0,0,0,45.36,293.3Z" transform="translate(0 0)"/><path class="cls-3" d="M37.83,279.69a3,3,0,0,0-.06.61c0,1,.55,1.87,1.95,3.27h6.69v1.61h-10l-.32-1.61h2.1c-1.06-1-2.1-1.89-2.1-3.16a1.52,1.52,0,0,1,.32-.91Z" transform="translate(0 0)"/><path class="cls-3" d="M36.37,278.57v-1.72l-2.65-.55v-1.06h2.65V272h1.31v3.25h6.13c1,0,1.52-.36,1.52-1.27a5.35,5.35,0,0,0-.46-1.85l1.25-.23a5.18,5.18,0,0,1,.59,2.39c0,1.81-.93,2.57-2.9,2.57H37.68v1.72Z" transform="translate(0 0)"/><path class="cls-3" d="M34.21,269.39l-3.59-1.93.43-1.84,3.54,3.05Zm2.18.15-.32-1.61H46.41v1.61Z" transform="translate(0 0)"/><path class="cls-3" d="M36.39,264.79l-.32-1.61h1.42a5.34,5.34,0,0,1-1.42-3.48c0-2.18,1.36-3.33,3.48-3.33h6.86V258H39.78a2,2,0,0,0-2.22,2.15A4.54,4.54,0,0,0,39,263.18h7.41v1.61Z" transform="translate(0 0)"/><path class="cls-3" d="M311.49,634.92h8v1.42h-6.29v4.59h5.06v1.42h-5.06v5.35h6.36v1.42h-8.06Z" transform="translate(0 0)"/><path class="cls-3" d="M322.18,639.09l1.61-.32v1.42a5.33,5.33,0,0,1,3.47-1.42c2.19,0,3.33,1.36,3.33,3.48v6.87H329v-6.64a2,2,0,0,0-2.14-2.22,4.56,4.56,0,0,0-3,1.44v7.42h-1.61Z" transform="translate(0 0)"/><path class="cls-3" d="M339.15,640.53a3,3,0,0,0-.61-.06c-1,0-1.87.55-3.27,1.95v6.7h-1.61v-10l1.61-.32v2.1c1-1.06,1.89-2.1,3.16-2.1a1.49,1.49,0,0,1,.91.32Z" transform="translate(0 0)"/><path class="cls-3" d="M341,635.49a1.19,1.19,0,1,1,1.19,1.14A1.17,1.17,0,0,1,341,635.49Zm.38,3.6,1.61-.32v10.35h-1.61Z" transform="translate(0 0)"/><path class="cls-3" d="M352.89,653.8v-5.74a4.52,4.52,0,0,1-3.2,1.35c-2.61,0-4.13-2.2-4.13-5.21,0-3.44,1.95-5.43,4.87-5.43a9.69,9.69,0,0,1,4.07,1v14Zm0-7.31v-5.68a4.92,4.92,0,0,0-2.42-.64c-2.2,0-3.26,1.65-3.26,3.94S348,648,350,648A4.15,4.15,0,0,0,352.89,646.49Z" transform="translate(0 0)"/><path class="cls-3" d="M365.69,649.12h-1.61V648a5.22,5.22,0,0,1-3.48,1.38c-2,0-3.17-1.23-3.17-3.66v-6.68H359v6.74c0,1.63.76,2.18,1.92,2.18a4.37,4.37,0,0,0,3.12-1.5v-7.42h1.61Z" transform="translate(0 0)"/><path class="cls-3" d="M376.71,648.39a6.1,6.1,0,0,1-3.51,1c-2.78,0-4.94-1.74-4.94-5.13s2.12-5.51,4.81-5.51c2.52,0,3.77,1.27,3.77,3.8a12.39,12.39,0,0,1-.08,1.29h-6.87v.42c0,2.65,1.57,3.71,3.58,3.71a5.94,5.94,0,0,0,3-.87Zm-1.59-5.76a2.3,2.3,0,0,0,.05-.45,1.87,1.87,0,0,0-2.1-2.11,3,3,0,0,0-3,2.56Z" transform="translate(0 0)"/><path class="cls-3" d="M383.88,642.21c0-4.77,2.88-7.59,7.08-7.59a9.78,9.78,0,0,1,3.9.82l-.3,1.62a7.63,7.63,0,0,0-3.5-.89c-3.45,0-5.38,2.28-5.38,6,0,3.51,2.2,5.63,5.57,5.63a7.28,7.28,0,0,0,3.56-.91l.24,1.55a9.73,9.73,0,0,1-4.11.93C386.59,649.41,383.88,646.64,383.88,642.21Z" transform="translate(0 0)"/><path class="cls-3" d="M405.52,649.09a7.78,7.78,0,0,1-1.63.2c-.81,0-1.21-.36-1.27-1.26a4,4,0,0,1-3,1.38c-1.55,0-2.76-.82-2.76-2.39,0-2.67,3.61-3.22,5.7-3.58V642c0-1.11-.27-1.85-1.88-1.85a7.7,7.7,0,0,0-3.18.85l-.25-1.23a8.8,8.8,0,0,1,4-1c2.05,0,3,1.06,3,3v5.75c0,.63.36.69.82.69h.49Zm-5.77-1a4.17,4.17,0,0,0,2.84-1.55V644.6c-2.31.42-4.06,1-4.06,2.37A1.11,1.11,0,0,0,399.75,648.06Z" transform="translate(0 0)"/><path class="cls-3" d="M413.36,640.53a3,3,0,0,0-.61-.06c-1,0-1.87.55-3.27,1.95v6.7h-1.61v-10l1.61-.32v2.1c1-1.06,1.89-2.1,3.16-2.1a1.49,1.49,0,0,1,.91.32Z" transform="translate(0 0)"/><path class="cls-3" d="M424.53,643.88c0,3.67-2,5.53-4.87,5.53a6.1,6.1,0,0,1-2.86-.74l-.58.74h-.63v-15.3l1.61-.38v6.42a4.69,4.69,0,0,1,3.24-1.38C423,638.77,424.53,641,424.53,643.88Zm-7.33-2.18v5.64a4.53,4.53,0,0,0,2.46.67c2,0,3.22-1.29,3.22-4.07,0-2.37-.95-3.68-2.8-3.68A4.11,4.11,0,0,0,417.2,641.7Z" transform="translate(0 0)"/><path class="cls-3" d="M426.53,644.09c0-3,1.63-5.32,4.79-5.32s4.79,2.29,4.79,5.32c0,3.25-1.89,5.32-4.79,5.32S426.53,647.34,426.53,644.09Zm7.88,0c0-2.46-1.21-4-3.09-4s-3.1,1.54-3.1,4,1.06,4,3.1,4S434.41,646.42,434.41,644.09Zm-4.87-7.18,1.92-3.58,1.85.42-3.05,3.54Z" transform="translate(0 0)"/><rect class="cls-6" x="124.97" y="158.33" width="80.51" height="100.85"/><path class="cls-4" d="M205.15,158.66v100.2H125.29V158.66h79.86m.65-.65H124.64v101.5H205.8V158Z" transform="translate(0 0)"/><path class="cls-4" d="M152.46,198.16h-6l-2.39,4.45H142l8.75-15.55h1.18l3.55,15.55h-2.09Zm-5.11-1.58h4.78l-1.27-6.47Z" transform="translate(0 0)"/><path class="cls-4" d="M166.25,200.2a4.28,4.28,0,0,0-.1.93c0,.46.56.53,1.26.53v1a8.82,8.82,0,0,1-1.91.33c-.78,0-1.06-.33-1.06-.88,0-.23.07-.72.11-1.09a5.25,5.25,0,0,1-3.64,2,2.69,2.69,0,0,1-2.88-2.88,10.54,10.54,0,0,1,.14-1.74l.67-4.18a9.7,9.7,0,0,0,.14-1c0-.47-.46-.56-1.25-.58l.18-1a7.71,7.71,0,0,1,2-.32c.67,0,.93.28.93.76a14.11,14.11,0,0,1-.24,1.75l-.74,4.4a14.44,14.44,0,0,0-.18,1.7,1.43,1.43,0,0,0,1.5,1.51c1.44,0,2.91-1.49,3.72-2.76l1.16-7h1.67Z" transform="translate(0 0)"/><path class="cls-4" d="M171.07,202.94c-.78,0-1-.33-1-.84a11.92,11.92,0,0,1,.19-1.44l2.55-14.52,1.74-.38L172,200.18a5,5,0,0,0-.12.95c0,.46.49.53,1.28.53v1A8.92,8.92,0,0,1,171.07,202.94Z" transform="translate(0 0)"/><path class="cls-4" d="M181.91,201a5,5,0,0,1-3.55,1.95c-2,0-3-1.6-3-4,0-4.15,2.32-7.68,6-7.68a6.28,6.28,0,0,1,3.62,1.07l-1.27,7.56a10.31,10.31,0,0,0-.17,1.19c0,.44.31.53,1.26.55v1a7.45,7.45,0,0,1-2,.33c-.79,0-1-.33-1-.91A6.09,6.09,0,0,1,181.91,201Zm.31-2.3.92-5.5a3.36,3.36,0,0,0-1.88-.49c-2.41,0-4.22,2.72-4.22,6.13,0,1.49.49,2.58,1.65,2.58S181.38,200,182.22,198.69Z" transform="translate(0 0)"/><path class="cls-4" d="M150.05,225.82l.46-2.65,3.57-.24,2.25-12.8-3.8.47.5-2.75,5.7-1.08h1.92l-2.83,16.13,3.74.27-.47,2.65Z" transform="translate(0 0)"/><path class="cls-4" d="M165.16,223.9l2.19-2.66a5.2,5.2,0,0,0,3.8,1.87c2,0,3.33-1.11,3.33-2.84s-1.2-3-4.3-3h-3L169.89,207h9.26l-.78,3.21h-6.08l-1,4.18h.33c3.91,0,6.51,1.84,6.51,5.52s-2.51,6.37-7,6.37A8.49,8.49,0,0,1,165.16,223.9Z" transform="translate(0 0)"/><rect class="cls-6" x="124.93" y="47.64" width="75.88" height="83.81"/><path class="cls-4" d="M200.52,47.93v83.23h-75.3V47.93h75.3m.58-.57H124.64v84.38H201.1V47.36Z" transform="translate(0 0)"/><path class="cls-4" d="M151.14,79.82h-6l-2.39,4.45h-2.16l8.75-15.55h1.19l3.55,15.55H152ZM146,78.24h4.78l-1.28-6.48Z" transform="translate(0 0)"/><path class="cls-4" d="M164.92,81.86a4.74,4.74,0,0,0-.09.93c0,.46.56.53,1.25.53v1a8.62,8.62,0,0,1-1.9.33c-.79,0-1.07-.33-1.07-.88,0-.23.07-.72.12-1.09a5.25,5.25,0,0,1-3.64,2,2.69,2.69,0,0,1-2.88-2.88,10.54,10.54,0,0,1,.14-1.74l.67-4.18c0-.28.14-.83.14-1,0-.47-.46-.56-1.25-.59l.18-1a7.71,7.71,0,0,1,2-.32c.68,0,.93.28.93.76a15.55,15.55,0,0,1-.23,1.74l-.74,4.41a14.49,14.49,0,0,0-.19,1.7,1.43,1.43,0,0,0,1.51,1.51c1.44,0,2.9-1.49,3.71-2.76l1.16-7h1.68Z" transform="translate(0 0)"/><path class="cls-4" d="M169.75,84.6c-.79,0-1-.33-1-.84a11.78,11.78,0,0,1,.18-1.44l2.56-14.52,1.74-.38-2.56,14.42a5.62,5.62,0,0,0-.11,1c0,.46.48.53,1.27.53v1A8.84,8.84,0,0,1,169.75,84.6Z" transform="translate(0 0)"/><path class="cls-4" d="M180.59,82.65A5,5,0,0,1,177,84.6c-2,0-3-1.6-3-4,0-4.15,2.32-7.68,6-7.68A6.3,6.3,0,0,1,183.63,74l-1.28,7.56c-.09.56-.16,1-.16,1.19,0,.44.3.53,1.26.55v1a7.45,7.45,0,0,1-1.95.33c-.79,0-1-.33-1-.91A6.44,6.44,0,0,1,180.59,82.65Zm.3-2.3.93-5.5a3.39,3.39,0,0,0-1.88-.49c-2.41,0-4.22,2.72-4.22,6.13,0,1.49.48,2.58,1.64,2.58S180.06,81.63,180.89,80.35Z" transform="translate(0 0)"/><path class="cls-4" d="M148.72,107.48l.47-2.65,3.57-.24L155,91.79l-3.8.47.49-2.75,5.7-1.08h1.93l-2.83,16.13,3.74.27-.47,2.65Z" transform="translate(0 0)"/><path class="cls-4" d="M169.65,96.15a8.8,8.8,0,0,1,2.6-.41c3.42,0,5.17,2.19,5.17,4.94,0,4-2.57,7.21-6.92,7.21-3.71,0-6-2.71-6-6.37,0-7.24,6-12.09,13.06-13.32l.47,3.13C173.94,92.26,171.2,94,169.65,96.15Zm-1.4,3.12a9.11,9.11,0,0,0-.18,1.81c0,2,.79,3.75,2.66,3.75a3.3,3.3,0,0,0,3.18-3.54,2.43,2.43,0,0,0-2.65-2.66A7.33,7.33,0,0,0,168.25,99.27Z" transform="translate(0 0)"/><rect class="cls-6" x="206.13" y="158.33" width="80.51" height="100.85"/><path class="cls-4" d="M286.31,158.66v100.2H206.45V158.66h79.86M287,158H205.8v101.5H287V158Z" transform="translate(0 0)"/><path class="cls-4" d="M232.29,198.16h-6l-2.39,4.45h-2.16l8.75-15.55h1.18l3.55,15.55h-2.09Zm-5.1-1.58H232l-1.28-6.47Z" transform="translate(0 0)"/><path class="cls-4" d="M246.08,200.2a4.74,4.74,0,0,0-.09.93c0,.46.55.53,1.25.53v1a8.84,8.84,0,0,1-1.9.33c-.79,0-1.07-.33-1.07-.88,0-.23.07-.72.12-1.09a5.29,5.29,0,0,1-3.65,2,2.69,2.69,0,0,1-2.88-2.88,11.77,11.77,0,0,1,.14-1.74l.68-4.18c0-.27.14-.83.14-1,0-.47-.47-.56-1.26-.58l.19-1a7.71,7.71,0,0,1,2-.32c.67,0,.93.28.93.76a16,16,0,0,1-.23,1.75l-.75,4.4a16.93,16.93,0,0,0-.18,1.7,1.43,1.43,0,0,0,1.51,1.51c1.44,0,2.9-1.49,3.71-2.76l1.16-7h1.67Z" transform="translate(0 0)"/><path class="cls-4" d="M250.91,202.94c-.79,0-1-.33-1-.84a11.92,11.92,0,0,1,.19-1.44l2.55-14.52,1.74-.38-2.55,14.42a6.07,6.07,0,0,0-.12.95c0,.46.49.53,1.28.53v1A8.93,8.93,0,0,1,250.91,202.94Z" transform="translate(0 0)"/><path class="cls-4" d="M261.75,201a5.06,5.06,0,0,1-3.55,1.95c-2,0-3-1.6-3-4,0-4.15,2.32-7.68,6-7.68a6.33,6.33,0,0,1,3.62,1.07l-1.28,7.56c-.09.56-.16,1-.16,1.19,0,.44.3.53,1.25.55v1a7.31,7.31,0,0,1-2,.33c-.79,0-1-.33-1-.91A5.44,5.44,0,0,1,261.75,201Zm.3-2.3.93-5.5a3.42,3.42,0,0,0-1.88-.49c-2.42,0-4.23,2.72-4.23,6.13,0,1.49.49,2.58,1.65,2.58S261.21,200,262.05,198.69Z" transform="translate(0 0)"/><path class="cls-4" d="M229.88,225.82l.47-2.65,3.56-.24,2.25-12.8-3.8.47.5-2.75,5.7-1.08h1.93l-2.84,16.13,3.74.27-.47,2.65Z" transform="translate(0 0)"/><path class="cls-4" d="M251.36,226.23a9.77,9.77,0,0,1-6.46-2.39l2.11-2.63a5.67,5.67,0,0,0,3.91,1.84,2.63,2.63,0,0,0,2.92-2.57c0-1.79-1.63-2.78-4.12-2.78h-.81l.49-2.72c3-.32,5.61-1.57,5.61-3.59a1.82,1.82,0,0,0-2-1.7,5.63,5.63,0,0,0-3.77,1.7l-1.46-2.54a8.38,8.38,0,0,1,5.7-2.31c2.63,0,5.2,1.58,5.2,4.59a5.52,5.52,0,0,1-4.09,5,4.72,4.72,0,0,1,3,4.36C257.58,224.42,254.66,226.23,251.36,226.23Z" transform="translate(0 0)"/><rect class="cls-6" x="287.29" y="158.33" width="80.51" height="100.85"/><path class="cls-4" d="M367.47,158.66v100.2H287.61V158.66h79.86m.65-.65H287v101.5h81.16V158Z" transform="translate(0 0)"/><path class="cls-4" d="M318,198.16h-6l-2.39,4.45h-2.16l8.75-15.55h1.19L321,202.61h-2.09Zm-5.11-1.58h4.78l-1.27-6.47Z" transform="translate(0 0)"/><path class="cls-4" d="M331.77,200.2a4.74,4.74,0,0,0-.09.93c0,.46.56.53,1.26.53v1a8.82,8.82,0,0,1-1.91.33c-.79,0-1.07-.33-1.07-.88,0-.23.07-.72.12-1.09a5.25,5.25,0,0,1-3.64,2,2.69,2.69,0,0,1-2.88-2.88,10.54,10.54,0,0,1,.14-1.74l.67-4.18a9.7,9.7,0,0,0,.14-1c0-.47-.46-.56-1.25-.58l.18-1a7.71,7.71,0,0,1,2-.32c.68,0,.93.28.93.76a16,16,0,0,1-.23,1.75l-.74,4.4a14.49,14.49,0,0,0-.19,1.7,1.43,1.43,0,0,0,1.51,1.51c1.44,0,2.9-1.49,3.72-2.76l1.16-7h1.67Z" transform="translate(0 0)"/><path class="cls-4" d="M336.6,202.94c-.79,0-1-.33-1-.84a11.78,11.78,0,0,1,.18-1.44l2.56-14.52,1.74-.38-2.56,14.42a5.62,5.62,0,0,0-.11.95c0,.46.49.53,1.27.53v1A8.84,8.84,0,0,1,336.6,202.94Z" transform="translate(0 0)"/><path class="cls-4" d="M347.44,201a5,5,0,0,1-3.55,1.95c-2,0-3-1.6-3-4,0-4.15,2.32-7.68,6-7.68a6.3,6.3,0,0,1,3.62,1.07l-1.28,7.56c-.09.56-.16,1-.16,1.19,0,.44.3.53,1.26.55v1a7.45,7.45,0,0,1-1.95.33c-.79,0-1-.33-1-.91A6.44,6.44,0,0,1,347.44,201Zm.3-2.3.93-5.5a3.39,3.39,0,0,0-1.88-.49c-2.41,0-4.22,2.72-4.22,6.13,0,1.49.48,2.58,1.64,2.58S346.91,200,347.74,198.69Z" transform="translate(0 0)"/><path class="cls-4" d="M315.57,225.82l.47-2.65,3.57-.24,2.25-12.8-3.8.47.49-2.75,5.7-1.08h1.93l-2.83,16.13,3.74.27-.47,2.65Z" transform="translate(0 0)"/><path class="cls-4" d="M331.65,225.82l.47-2.65,3.56-.24,2.25-12.8-3.8.47.5-2.75,5.7-1.08h1.93l-2.84,16.13,3.74.27-.47,2.65Z" transform="translate(0 0)"/><rect class="cls-6" x="201.39" y="47.64" width="75.88" height="83.81"/><path class="cls-4" d="M277,47.93v83.23H201.67V47.93H277m.58-.57H201.1v84.38h76.46V47.36Z" transform="translate(0 0)"/><path class="cls-4" d="M227.59,79.82h-6l-2.39,4.45h-2.16l8.75-15.55H227l3.56,15.55h-2.09Zm-5.1-1.58h4.78L226,71.77Z" transform="translate(0 0)"/><path class="cls-4" d="M241.38,81.86a4.74,4.74,0,0,0-.09.93c0,.46.56.53,1.25.53v1a8.73,8.73,0,0,1-1.9.33c-.79,0-1.07-.33-1.07-.88,0-.23.07-.72.12-1.09a5.29,5.29,0,0,1-3.65,2,2.69,2.69,0,0,1-2.87-2.88,10.54,10.54,0,0,1,.14-1.74L234,75.8a9.7,9.7,0,0,0,.14-1c0-.47-.47-.56-1.26-.58l.19-1a7.71,7.71,0,0,1,2-.32c.68,0,.93.28.93.76a16,16,0,0,1-.23,1.75L235,79.87a14.33,14.33,0,0,0-.19,1.69,1.43,1.43,0,0,0,1.51,1.51c1.44,0,2.9-1.49,3.71-2.76l1.16-7h1.67Z" transform="translate(0 0)"/><path class="cls-4" d="M246.21,84.6c-.79,0-1.05-.33-1.05-.84a11.52,11.52,0,0,1,.19-1.43L247.9,67.8l1.74-.37-2.55,14.41a5.62,5.62,0,0,0-.11,1c0,.46.48.53,1.27.53v1A8.93,8.93,0,0,1,246.21,84.6Z" transform="translate(0 0)"/><path class="cls-4" d="M257.05,82.65a5.06,5.06,0,0,1-3.55,1.95c-2,0-3-1.6-3-4,0-4.15,2.32-7.68,6-7.68A6.33,6.33,0,0,1,260.09,74l-1.28,7.56c-.09.56-.16,1-.16,1.19,0,.44.3.53,1.25.55v1a7.31,7.31,0,0,1-1.95.33c-.79,0-1-.33-1-.91A6.44,6.44,0,0,1,257.05,82.65Zm.3-2.3.93-5.5a3.42,3.42,0,0,0-1.88-.49c-2.41,0-4.23,2.72-4.23,6.13,0,1.49.49,2.58,1.65,2.58S256.51,81.63,257.35,80.35Z" transform="translate(0 0)"/><path class="cls-4" d="M225.18,107.48l.47-2.65,3.56-.24,2.25-12.8-3.8.47.5-2.75,5.7-1.08h1.93L233,104.56l3.74.27-.46,2.65Z" transform="translate(0 0)"/><path class="cls-4" d="M252.24,99.89h2l-.53,3.07h-2l-.79,4.52h-3.62l.81-4.52H240v-2l11.83-12.48h2.43Zm-7,0h3.42l.82-4.56Z" transform="translate(0 0)"/><rect class="cls-6" x="277.84" y="47.64" width="75.88" height="83.81"/><path class="cls-4" d="M353.44,47.93v83.23H278.13V47.93h75.31m.57-.57H277.56v84.38H354V47.36Z" transform="translate(0 0)"/><path class="cls-4" d="M304.05,79.82h-6l-2.39,4.45h-2.16l8.75-15.55h1.18L307,84.27h-2.09ZM299,78.24h4.78l-1.28-6.47Z" transform="translate(0 0)"/><path class="cls-4" d="M317.84,81.86a4.74,4.74,0,0,0-.09.93c0,.46.55.53,1.25.53v1a8.84,8.84,0,0,1-1.9.33c-.79,0-1.07-.33-1.07-.88,0-.23.07-.72.11-1.09a5.25,5.25,0,0,1-3.64,2,2.69,2.69,0,0,1-2.88-2.88,11.77,11.77,0,0,1,.14-1.74l.68-4.18c0-.27.13-.83.13-1,0-.47-.46-.56-1.25-.58l.19-1a7.64,7.64,0,0,1,2-.32c.67,0,.93.28.93.76a16,16,0,0,1-.23,1.75l-.75,4.41a14.28,14.28,0,0,0-.18,1.69,1.43,1.43,0,0,0,1.51,1.51c1.44,0,2.9-1.49,3.71-2.76l1.16-7h1.67Z" transform="translate(0 0)"/><path class="cls-4" d="M322.67,84.6c-.79,0-1.05-.33-1.05-.84a11.52,11.52,0,0,1,.19-1.43l2.55-14.53,1.74-.37-2.55,14.41a6.07,6.07,0,0,0-.12,1c0,.46.49.53,1.28.53v1A8.93,8.93,0,0,1,322.67,84.6Z" transform="translate(0 0)"/><path class="cls-4" d="M333.51,82.65A5.07,5.07,0,0,1,330,84.6c-2,0-3-1.6-3-4,0-4.15,2.32-7.68,6-7.68A6.33,6.33,0,0,1,336.55,74l-1.28,7.56c-.09.56-.16,1-.16,1.19,0,.44.3.53,1.25.55v1a7.31,7.31,0,0,1-1.95.33c-.79,0-1-.33-1-.91A5.44,5.44,0,0,1,333.51,82.65Zm.3-2.3.93-5.5a3.42,3.42,0,0,0-1.88-.49c-2.42,0-4.23,2.72-4.23,6.13,0,1.49.49,2.58,1.65,2.58S333,81.63,333.81,80.35Z" transform="translate(0 0)"/><path class="cls-4" d="M301.64,107.48l.47-2.65,3.56-.24,2.25-12.8-3.8.47.5-2.75,5.7-1.08h1.92l-2.83,16.13,3.74.27-.47,2.65Z" transform="translate(0 0)"/><path class="cls-4" d="M316.31,105.64c4.62-3.44,10.72-9,10.72-12.24a1.91,1.91,0,0,0-2-1.93,7.83,7.83,0,0,0-4.41,2.08l-1.52-2.78a10.79,10.79,0,0,1,6.51-2.57c3,0,5.18,1.75,5.18,4.59,0,4.73-5.15,9.26-8.13,11.45h6.58l-.73,3.24H316.31Z" transform="translate(0 0)"/><rect class="cls-6" x="354.3" y="47.64" width="75.88" height="83.81"/><path class="cls-4" d="M429.9,47.93v83.23H354.59V47.93H429.9m.57-.57H354v84.38h76.46V47.36Z" transform="translate(0 0)"/><path class="cls-4" d="M380.51,79.82h-6l-2.39,4.45H370l8.75-15.55h1.19l3.55,15.55h-2.09Zm-5.11-1.58h4.78l-1.27-6.47Z" transform="translate(0 0)"/><path class="cls-4" d="M394.3,81.86a4.28,4.28,0,0,0-.1.93c0,.46.56.53,1.26.53v1a8.82,8.82,0,0,1-1.91.33c-.79,0-1.06-.33-1.06-.88,0-.23.07-.72.11-1.09a5.25,5.25,0,0,1-3.64,2,2.69,2.69,0,0,1-2.88-2.88,10.54,10.54,0,0,1,.14-1.74l.67-4.18a9.7,9.7,0,0,0,.14-1c0-.47-.46-.56-1.25-.58l.18-1a7.71,7.71,0,0,1,2-.32c.67,0,.93.28.93.76a14.11,14.11,0,0,1-.24,1.75l-.74,4.41a14.33,14.33,0,0,0-.19,1.69,1.43,1.43,0,0,0,1.51,1.51c1.44,0,2.9-1.49,3.72-2.76l1.16-7h1.67Z" transform="translate(0 0)"/><path class="cls-4" d="M399.12,84.6c-.79,0-1-.33-1-.84a11.52,11.52,0,0,1,.19-1.43l2.55-14.53,1.74-.37L400,81.84a5,5,0,0,0-.12,1c0,.46.49.53,1.28.53v1A8.92,8.92,0,0,1,399.12,84.6Z" transform="translate(0 0)"/><path class="cls-4" d="M410,82.65a5,5,0,0,1-3.55,1.95c-2,0-3-1.6-3-4,0-4.15,2.33-7.68,6-7.68A6.28,6.28,0,0,1,413,74l-1.27,7.56a10.31,10.31,0,0,0-.17,1.19c0,.44.31.53,1.26.55v1a7.45,7.45,0,0,1-1.95.33c-.79,0-1-.33-1-.91A6.09,6.09,0,0,1,410,82.65Zm.3-2.3.93-5.5a3.39,3.39,0,0,0-1.88-.49c-2.41,0-4.22,2.72-4.22,6.13,0,1.49.49,2.58,1.65,2.58S409.43,81.63,410.26,80.35Z" transform="translate(0 0)"/><path class="cls-4" d="M378.1,107.48l.46-2.65,3.57-.24,2.25-12.8-3.8.47.5-2.75,5.69-1.08h1.93l-2.83,16.13,3.74.27-.47,2.65Z" transform="translate(0 0)"/><path class="cls-4" d="M407.82,94.86c0,6-2.52,13-8.86,13-3.56,0-5.29-2.74-5.29-6.66,0-6,2.52-13,8.86-13C406.09,88.2,407.82,91,407.82,94.86Zm-10.29,6.28c0,2.17.53,3.51,2,3.51,2.69,0,4.44-5.08,4.44-9.7,0-2.16-.53-3.51-2-3.51C399.28,91.44,397.53,96.53,397.53,101.14Z" transform="translate(0 0)"/><polygon class="cls-7" points="636.3 147.56 552.75 147.56 552.75 559.97 526.48 559.97 526.48 337.43 426.3 337.43 426.3 286.38 394.82 258.43 365.12 258.43 365.12 158.01 124.74 158.01 124.74 131.74 536.1 131.74 536.1 47.36 636.3 147.56"/><rect class="cls-6" x="553.08" y="459.06" width="83.68" height="100.84"/><path class="cls-4" d="M636.43,459.39V559.57h-83V459.39h83m.66-.66H552.75v101.5h84.34V458.73Z" transform="translate(0 0)"/><path class="cls-4" d="M583.17,498.88h-6l-2.39,4.45h-2.15l8.75-15.55h1.18l3.55,15.55h-2.09Zm-5.11-1.58h4.78l-1.27-6.48Z" transform="translate(0 0)"/><path class="cls-4" d="M597,500.92a4.28,4.28,0,0,0-.1.93c0,.46.56.53,1.26.53v.95a8.82,8.82,0,0,1-1.91.33c-.78,0-1.06-.33-1.06-.88,0-.24.07-.72.11-1.1a5.23,5.23,0,0,1-3.64,2,2.7,2.7,0,0,1-2.88-2.88,10.46,10.46,0,0,1,.14-1.74l.67-4.18a9.85,9.85,0,0,0,.14-1c0-.46-.46-.55-1.25-.58l.18-.95a7.71,7.71,0,0,1,2-.32c.67,0,.93.28.93.76a13.73,13.73,0,0,1-.24,1.74l-.74,4.41a14.44,14.44,0,0,0-.18,1.7,1.43,1.43,0,0,0,1.5,1.51c1.44,0,2.91-1.49,3.72-2.77l1.16-7h1.67Z" transform="translate(0 0)"/><path class="cls-4" d="M601.78,503.66c-.78,0-1-.33-1-.84a11.92,11.92,0,0,1,.19-1.44l2.55-14.53,1.74-.37-2.55,14.42a5,5,0,0,0-.12,1c0,.46.49.53,1.28.53v.95A9.5,9.5,0,0,1,601.78,503.66Z" transform="translate(0 0)"/><path class="cls-4" d="M612.62,501.71a5,5,0,0,1-3.55,2c-2,0-3-1.6-3-4,0-4.16,2.32-7.68,6-7.68a6.35,6.35,0,0,1,3.62,1.06l-1.27,7.57a10.55,10.55,0,0,0-.17,1.18c0,.44.31.54,1.26.56v.95a7.45,7.45,0,0,1-2,.33c-.79,0-1-.33-1-.91A6,6,0,0,1,612.62,501.71Zm.31-2.3.92-5.5a3.39,3.39,0,0,0-1.88-.49c-2.41,0-4.22,2.72-4.22,6.13,0,1.48.49,2.58,1.65,2.58S612.09,500.69,612.93,499.41Z" transform="translate(0 0)"/><path class="cls-4" d="M597.06,519a7.7,7.7,0,0,1-2.57.41c-3.42,0-5.17-2.19-5.17-4.94,0-4,2.57-7.21,6.93-7.21,3.71,0,6,2.71,6,6.37,0,7.24-6,12.09-13.07,13.32l-.46-3.13C592.8,522.92,595.52,521.17,597.06,519Zm1.41-3.09a8.32,8.32,0,0,0,.2-1.85c0-2-.79-3.74-2.66-3.74a3.3,3.3,0,0,0-3.18,3.54,2.44,2.44,0,0,0,2.66,2.66A7.33,7.33,0,0,0,598.47,515.91Z" transform="translate(0 0)"/><rect class="cls-6" x="553.08" y="358.85" width="83.68" height="100.84"/><path class="cls-4" d="M636.43,359.18V459.36h-83V359.18h83m.66-.66H552.75V460h84.34V358.52Z" transform="translate(0 0)"/><path class="cls-4" d="M583.17,398.67h-6l-2.39,4.46h-2.15l8.75-15.55h1.18l3.55,15.55h-2.09Zm-5.11-1.58h4.78l-1.27-6.47Z" transform="translate(0 0)"/><path class="cls-4" d="M597,400.71a4.38,4.38,0,0,0-.1.93c0,.47.56.54,1.26.54v.95a9.5,9.5,0,0,1-1.91.32c-.78,0-1.06-.32-1.06-.88,0-.23.07-.72.11-1.09a5.25,5.25,0,0,1-3.64,2,2.69,2.69,0,0,1-2.88-2.87,10.57,10.57,0,0,1,.14-1.75l.67-4.17c.05-.28.14-.84.14-1,0-.47-.46-.56-1.25-.58l.18-.95a7.33,7.33,0,0,1,2-.33c.67,0,.93.28.93.77a14,14,0,0,1-.24,1.74l-.74,4.41a14.5,14.5,0,0,0-.18,1.69,1.42,1.42,0,0,0,1.5,1.51c1.44,0,2.91-1.48,3.72-2.76l1.16-7h1.67Z" transform="translate(0 0)"/><path class="cls-4" d="M601.78,403.45c-.78,0-1-.32-1-.83a11.42,11.42,0,0,1,.19-1.44l2.55-14.53,1.74-.37-2.55,14.41a5.1,5.1,0,0,0-.12.95c0,.47.49.54,1.28.54v.95A9.47,9.47,0,0,1,601.78,403.45Z" transform="translate(0 0)"/><path class="cls-4" d="M612.62,401.5a5,5,0,0,1-3.55,1.95c-2,0-3-1.6-3-4,0-4.15,2.32-7.68,6-7.68a6.28,6.28,0,0,1,3.62,1.07l-1.27,7.57a10.24,10.24,0,0,0-.17,1.18c0,.44.31.53,1.26.56v.95a7.48,7.48,0,0,1-2,.32c-.79,0-1-.32-1-.9A6.09,6.09,0,0,1,612.62,401.5Zm.31-2.29.92-5.5a3.39,3.39,0,0,0-1.88-.49c-2.41,0-4.22,2.71-4.22,6.13,0,1.48.49,2.57,1.65,2.57S612.09,400.48,612.93,399.21Z" transform="translate(0 0)"/><path class="cls-4" d="M598.67,410.68H590l.79-3.22h12.1v2.22L592.8,426.34h-4.44Z" transform="translate(0 0)"/><rect class="cls-6" x="553.08" y="258.65" width="83.68" height="100.84"/><path class="cls-4" d="M636.43,259V359.16h-83V259h83m.66-.66H552.75v101.5h84.34V258.32Z" transform="translate(0 0)"/><path class="cls-4" d="M583.17,298.47h-6l-2.39,4.45h-2.15l8.75-15.55h1.18l3.55,15.55h-2.09Zm-5.11-1.58h4.78l-1.27-6.48Z" transform="translate(0 0)"/><path class="cls-4" d="M597,300.51a4.28,4.28,0,0,0-.1.93c0,.46.56.53,1.26.53v.95a8.82,8.82,0,0,1-1.91.33c-.78,0-1.06-.33-1.06-.88,0-.24.07-.72.11-1.1a5.23,5.23,0,0,1-3.64,2,2.7,2.7,0,0,1-2.88-2.88,10.46,10.46,0,0,1,.14-1.74l.67-4.18a9.85,9.85,0,0,0,.14-1c0-.46-.46-.55-1.25-.58l.18-.95a7.71,7.71,0,0,1,2-.32c.67,0,.93.27.93.76a13.73,13.73,0,0,1-.24,1.74l-.74,4.41a14.44,14.44,0,0,0-.18,1.7,1.43,1.43,0,0,0,1.5,1.51c1.44,0,2.91-1.49,3.72-2.77l1.16-7h1.67Z" transform="translate(0 0)"/><path class="cls-4" d="M601.78,303.25c-.78,0-1-.33-1-.84a11.92,11.92,0,0,1,.19-1.44l2.55-14.53,1.74-.37-2.55,14.42a5,5,0,0,0-.12.95c0,.46.49.53,1.28.53v.95A9.5,9.5,0,0,1,601.78,303.25Z" transform="translate(0 0)"/><path class="cls-4" d="M612.62,301.3a5,5,0,0,1-3.55,1.95c-2,0-3-1.6-3-4,0-4.16,2.32-7.68,6-7.68a6.35,6.35,0,0,1,3.62,1.06l-1.27,7.57a10.55,10.55,0,0,0-.17,1.18c0,.44.31.54,1.26.56v.95a7.45,7.45,0,0,1-2,.33c-.79,0-1-.33-1-.91A6,6,0,0,1,612.62,301.3Zm.31-2.3.92-5.5A3.39,3.39,0,0,0,612,293c-2.41,0-4.22,2.72-4.22,6.13,0,1.48.49,2.58,1.65,2.58S612.09,300.28,612.93,299Z" transform="translate(0 0)"/><path class="cls-4" d="M587.83,324.2l2.19-2.66a5.18,5.18,0,0,0,3.8,1.87c2,0,3.33-1.11,3.33-2.83s-1.2-3-4.29-3h-3l2.68-10.34h9.27l-.79,3.21H595l-1,4.18h.32c3.91,0,6.52,1.84,6.52,5.52s-2.52,6.37-7,6.37A8.45,8.45,0,0,1,587.83,324.2Z" transform="translate(0 0)"/><rect class="cls-6" x="426.47" y="482.57" width="100.87" height="77.34"/><path class="cls-4" d="M527,482.89v76.7H426.79v-76.7H527m.64-.64H426.15v78H527.66v-78Z" transform="translate(0 0)"/><path class="cls-4" d="M465.17,514.7h-6l-2.39,4.45h-2.16l8.75-15.55h1.18l3.55,15.55h-2.09Zm-5.1-1.58h4.78l-1.28-6.48Z" transform="translate(0 0)"/><path class="cls-4" d="M479,516.74a4.74,4.74,0,0,0-.09.93c0,.46.55.53,1.25.53v.95a8.84,8.84,0,0,1-1.9.33c-.79,0-1.07-.33-1.07-.88,0-.23.07-.72.12-1.09a5.29,5.29,0,0,1-3.65,2,2.69,2.69,0,0,1-2.88-2.88,11.77,11.77,0,0,1,.14-1.74l.68-4.18c0-.28.14-.83.14-1,0-.47-.47-.56-1.26-.59l.19-1a7.71,7.71,0,0,1,2-.32c.67,0,.93.28.93.77a16.18,16.18,0,0,1-.23,1.74l-.75,4.41a16.44,16.44,0,0,0-.18,1.69,1.43,1.43,0,0,0,1.51,1.51c1.44,0,2.9-1.49,3.71-2.76l1.16-7h1.67Z" transform="translate(0 0)"/><path class="cls-4" d="M483.79,519.48c-.79,0-1.05-.33-1.05-.84a11.52,11.52,0,0,1,.19-1.43l2.55-14.53,1.74-.37-2.55,14.41a6.07,6.07,0,0,0-.12.95c0,.46.49.53,1.28.53v.95A8.93,8.93,0,0,1,483.79,519.48Z" transform="translate(0 0)"/><path class="cls-4" d="M494.63,517.53a5.06,5.06,0,0,1-3.55,2c-2,0-3-1.6-3-4,0-4.15,2.32-7.68,6-7.68a6.33,6.33,0,0,1,3.62,1.07l-1.28,7.56c-.09.56-.16,1-.16,1.19,0,.44.3.53,1.25.55v.95a7.31,7.31,0,0,1-2,.33c-.79,0-1-.33-1-.91A5.44,5.44,0,0,1,494.63,517.53Zm.3-2.3.93-5.5a3.42,3.42,0,0,0-1.88-.49c-2.42,0-4.23,2.72-4.23,6.13,0,1.49.49,2.58,1.65,2.58S494.09,516.51,494.93,515.23Z" transform="translate(0 0)"/><path class="cls-4" d="M474.42,532.37a5.1,5.1,0,0,1-1.84-3.77c0-3.07,2.31-5.52,6.08-5.52,3.21,0,5.46,1.69,5.46,4.27s-1.63,4.2-3.8,5.28a5.39,5.39,0,0,1,2.49,4.3c0,3.54-2.84,5.84-6.58,5.84s-6.05-2-6.05-4.7C470.18,535.23,472.05,533.48,474.42,532.37Zm2.54,2c-1.6.61-3.18,1.63-3.18,3.33,0,1.23,1,2,2.57,2s2.92-.94,2.92-2.4C479.27,536.2,478.22,535.32,477,534.39Zm.91-3.51c1.31-.67,2.57-1.75,2.57-3,0-1.08-.91-1.69-2-1.69a2.2,2.2,0,0,0-2.23,2.28C476.17,529.42,476.91,530.15,477.87,530.88Z" transform="translate(0 0)"/><rect class="cls-6" x="426.47" y="405.59" width="100.87" height="77.34"/><path class="cls-4" d="M527,405.9v76.71H426.79V405.9H527m.64-.63H426.15v78H527.66v-78Z" transform="translate(0 0)"/><path class="cls-4" d="M465.17,436.12h-6l-2.39,4.45h-2.16L463.41,425h1.18l3.55,15.55h-2.09Zm-5.1-1.58h4.78l-1.28-6.48Z" transform="translate(0 0)"/><path class="cls-4" d="M479,438.16a4.74,4.74,0,0,0-.09.93c0,.46.55.53,1.25.53v.95a8.84,8.84,0,0,1-1.9.33c-.79,0-1.07-.33-1.07-.89,0-.23.07-.71.12-1.09a5.26,5.26,0,0,1-3.65,2,2.7,2.7,0,0,1-2.88-2.88,11.68,11.68,0,0,1,.14-1.74l.68-4.18c0-.28.14-.83.14-1,0-.46-.47-.55-1.26-.58l.19-.95a7.71,7.71,0,0,1,2-.32c.67,0,.93.27.93.76a15.55,15.55,0,0,1-.23,1.74l-.75,4.41a16.93,16.93,0,0,0-.18,1.7,1.43,1.43,0,0,0,1.51,1.51c1.44,0,2.9-1.49,3.71-2.77l1.16-7h1.67Z" transform="translate(0 0)"/><path class="cls-4" d="M483.79,440.9c-.79,0-1.05-.33-1.05-.84a11.92,11.92,0,0,1,.19-1.44l2.55-14.53,1.74-.37-2.55,14.42a6.07,6.07,0,0,0-.12.95c0,.46.49.53,1.28.53v.95A9.51,9.51,0,0,1,483.79,440.9Z" transform="translate(0 0)"/><path class="cls-4" d="M494.63,439a5.06,5.06,0,0,1-3.55,1.95c-2,0-3-1.6-3-4,0-4.16,2.32-7.68,6-7.68a6.4,6.4,0,0,1,3.62,1.06l-1.28,7.57c-.09.56-.16,1-.16,1.18,0,.45.3.54,1.25.56v.95a7.31,7.31,0,0,1-2,.33c-.79,0-1-.33-1-.91A5.36,5.36,0,0,1,494.63,439Zm.3-2.3.93-5.5a3.42,3.42,0,0,0-1.88-.49c-2.42,0-4.23,2.72-4.23,6.13,0,1.48.49,2.58,1.65,2.58S494.09,437.93,494.93,436.65Z" transform="translate(0 0)"/><path class="cls-4" d="M475.65,452.44a9.09,9.09,0,0,1,2.6-.4c3.42,0,5.17,2.19,5.17,4.93,0,4-2.57,7.22-6.92,7.22-3.72,0-6-2.72-6-6.37,0-7.25,6-12.1,13.06-13.32l.47,3.12C479.94,448.56,477.2,450.28,475.65,452.44Zm-1.4,3.13a9.11,9.11,0,0,0-.18,1.81c0,2,.79,3.74,2.66,3.74a3.3,3.3,0,0,0,3.18-3.53,2.43,2.43,0,0,0-2.65-2.66A7.33,7.33,0,0,0,474.25,455.57Z" transform="translate(0 0)"/><rect class="cls-6" x="426.47" y="327.61" width="100.87" height="77.34"/><path class="cls-4" d="M527,327.92v76.71H426.79V327.92H527m.64-.63H426.15v78H527.66v-78Z" transform="translate(0 0)"/><path class="cls-4" d="M465.17,359.34h-6l-2.39,4.46h-2.16l8.75-15.55h1.18l3.55,15.55h-2.09Zm-5.1-1.58h4.78l-1.28-6.47Z" transform="translate(0 0)"/><path class="cls-4" d="M479,361.38a4.79,4.79,0,0,0-.09.93c0,.46.55.53,1.25.53v1a9.52,9.52,0,0,1-1.9.32c-.79,0-1.07-.32-1.07-.88,0-.23.07-.72.12-1.09a5.29,5.29,0,0,1-3.65,2,2.69,2.69,0,0,1-2.88-2.88,11.77,11.77,0,0,1,.14-1.74l.68-4.18c0-.27.14-.83.14-1,0-.47-.47-.56-1.26-.58l.19-1a7.71,7.71,0,0,1,2-.32c.67,0,.93.28.93.77a16.18,16.18,0,0,1-.23,1.74l-.75,4.41a16.74,16.74,0,0,0-.18,1.69,1.42,1.42,0,0,0,1.51,1.51c1.44,0,2.9-1.49,3.71-2.76l1.16-7h1.67Z" transform="translate(0 0)"/><path class="cls-4" d="M483.79,364.12c-.79,0-1.05-.32-1.05-.84a11.52,11.52,0,0,1,.19-1.43l2.55-14.53,1.74-.37-2.55,14.41a6.07,6.07,0,0,0-.12.95c0,.46.49.53,1.28.53v1A9.48,9.48,0,0,1,483.79,364.12Z" transform="translate(0 0)"/><path class="cls-4" d="M494.63,362.17a5.06,5.06,0,0,1-3.55,1.95c-2,0-3-1.6-3-4,0-4.15,2.32-7.68,6-7.68a6.33,6.33,0,0,1,3.62,1.07l-1.28,7.56c-.09.56-.16,1-.16,1.19,0,.44.3.53,1.25.55v1a7.77,7.77,0,0,1-2,.32c-.79,0-1-.32-1-.9A5.44,5.44,0,0,1,494.63,362.17Zm.3-2.3.93-5.5a3.43,3.43,0,0,0-1.88-.48c-2.42,0-4.23,2.71-4.23,6.12,0,1.49.49,2.58,1.65,2.58S494.09,361.15,494.93,359.87Z" transform="translate(0 0)"/><path class="cls-4" d="M481.78,379.41h2.05l-.53,3.07h-2l-.79,4.53h-3.62l.81-4.53h-8.12v-2.05L481.38,368h2.42Zm-7,0h3.42l.82-4.56Z" transform="translate(0 0)"/><g class="cls-8"><path class="cls-9" d="M552.68,22.65v2h-.51l-.5.5-.33.25a6.26,6.26,0,0,1-3.79,1.26h-1.91a6.44,6.44,0,0,1-2-.32l-2-.68a9,9,0,0,0,2-1.33l2.52-2.2h6.55Z" transform="translate(0 0)"/><path class="cls-10" d="M541.6,25.68a9.29,9.29,0,0,1-1.44.55,8.85,8.85,0,0,0-2.92,1.44l-4.13,3.1a2.19,2.19,0,0,1-1.33.44,1.33,1.33,0,0,1-.34-.05,1.24,1.24,0,0,1-.3-.16,1.36,1.36,0,0,1-.24-.24,1.48,1.48,0,0,1-.15-.31,1.15,1.15,0,0,1,0-.67,1,1,0,0,1,.41-.53l4.87-3.58-8,5.77a1.69,1.69,0,0,1-.62.25,1.63,1.63,0,0,1-.66,0l-.15,0a1.49,1.49,0,0,1-.84-.52,1.61,1.61,0,0,1-.26-.46,1.52,1.52,0,0,1-.07-.52,1.47,1.47,0,0,1,.43-.94L534,23.66,526.13,29a.91.91,0,0,0-.24.2l-.35.23a1.7,1.7,0,0,1-.62.26,1.63,1.63,0,0,1-.66,0l-.15,0a1.49,1.49,0,0,1-.84-.52,1.4,1.4,0,0,1-.33-.91,1.37,1.37,0,0,1,.18-.69,1.47,1.47,0,0,1,.49-.53l8.4-5.83L526,25a4,4,0,0,1-2.24.65,1.4,1.4,0,0,1-.41-.06,1.62,1.62,0,0,1-.37-.19,1.64,1.64,0,0,1-.29-.3,1.33,1.33,0,0,1-.18-.38,1.13,1.13,0,0,1,0-.41,1.15,1.15,0,0,1,.08-.41,1.31,1.31,0,0,1,.21-.36,1.18,1.18,0,0,1,.31-.28l6.45-4.15,5.39-4.56-4-.59a3.92,3.92,0,0,1-.49-.13,3.25,3.25,0,0,1-.46-.22,3.19,3.19,0,0,1-.42-.3,3.06,3.06,0,0,1-.36-.36,2.42,2.42,0,0,1-.29-.42,2.11,2.11,0,0,1-.21-.46,2.83,2.83,0,0,1-.13-.5,2.07,2.07,0,0,1,0-.5.64.64,0,0,1,0-.2.62.62,0,0,1,.11-.17.71.71,0,0,1,.17-.11.58.58,0,0,1,.19,0h.08l9.5,1.45,4,1.56h10.08v8.56h-6.55l-2.52,2.2A9,9,0,0,1,541.6,25.68Z" transform="translate(0 0)"/><path class="cls-9" d="M549.15,13.59H542.6l-1-1a1.63,1.63,0,0,1-.49-1.2,1.89,1.89,0,0,1,.46-1.28,1.39,1.39,0,0,1,.51-.39,1.45,1.45,0,0,1,.62-.15,1.48,1.48,0,0,1,.79.25l3.16,2.06Z" transform="translate(0 0)"/><path class="cls-11" d="M539.57,16.61a1.14,1.14,0,0,1,.26.09,1.88,1.88,0,0,1,.24.14,1.8,1.8,0,0,1,.2.19.86.86,0,0,1,.15.22,1.12,1.12,0,0,1,.11.25,2.56,2.56,0,0,1,.05.27,1.22,1.22,0,0,1,0,.27,1.17,1.17,0,0,1-.4.77,1.16,1.16,0,0,1-.55.28.86.86,0,0,1-.28,0,1.33,1.33,0,0,1-.28,0,1.07,1.07,0,0,1-.27-.09,1.28,1.28,0,0,1-.25-.15,1.26,1.26,0,0,1-.2-.2,1,1,0,0,1-.15-.24,1.69,1.69,0,0,1-.1-.27,1.27,1.27,0,0,1,0-.28,1.22,1.22,0,0,1,.28-.78,1.27,1.27,0,0,1-.28,0,1.5,1.5,0,0,1-.55-.11,1.32,1.32,0,0,1-.48-.29,1.55,1.55,0,0,1-.48-1,1.28,1.28,0,0,1,.06-.55,1.48,1.48,0,0,1,1.2-1.06,1.5,1.5,0,0,1,1.42.54,1,1,0,0,1,.34-.06.85.85,0,0,1,.39.08,1.15,1.15,0,0,1,.33.21,1.46,1.46,0,0,1,.22.33,1,1,0,0,1,.07.39,1,1,0,0,1-.07.38,1,1,0,0,1-.55.55A1,1,0,0,1,539.57,16.61Z" transform="translate(0 0)"/><path class="cls-9" d="M538.06,17.87a1.22,1.22,0,0,1,.28-.78,1.27,1.27,0,0,1-.28,0,1.86,1.86,0,0,1-.33,0,1.28,1.28,0,0,1-.31-.11,1.17,1.17,0,0,1-.28-.17,1,1,0,0,1-.24-.23,1.27,1.27,0,0,1-.18-.27,1.66,1.66,0,0,1-.12-.31,1.13,1.13,0,0,1-.05-.32,1.83,1.83,0,0,1,0-.33,1.56,1.56,0,0,1,.2-.52,1.89,1.89,0,0,0-.37.32,1.51,1.51,0,0,0-.25.42,1.29,1.29,0,0,0-.1.48,1.57,1.57,0,0,0,.05.48,1.38,1.38,0,0,0,.21.44,1.42,1.42,0,0,0,.33.36,1.81,1.81,0,0,0,.44.22,1.51,1.51,0,0,0,.48.08,1.33,1.33,0,0,0,.28,0,1.19,1.19,0,0,0-.28.78,1.32,1.32,0,0,0,.12.56c.05.08.1.16.16.24a1.89,1.89,0,0,0,.2.2l.24.15.27.09a1,1,0,0,0,.29,0,1.33,1.33,0,0,0,.28,0,1.19,1.19,0,0,0,.79-.61,1.42,1.42,0,0,1-.29.1.86.86,0,0,1-.28,0,1.33,1.33,0,0,1-.28,0,1.07,1.07,0,0,1-.27-.09,1.28,1.28,0,0,1-.25-.15,1.26,1.26,0,0,1-.2-.2,1,1,0,0,1-.15-.24,1.69,1.69,0,0,1-.1-.27A1.27,1.27,0,0,1,538.06,17.87Z" transform="translate(0 0)"/><path class="cls-11" d="M534.53,17.62a1,1,0,0,1,.39.08,1.15,1.15,0,0,1,.33.21,1.46,1.46,0,0,1,.22.33,1,1,0,0,1,.07.39,1,1,0,0,1-.07.38,1.46,1.46,0,0,1-.22.33,1.19,1.19,0,0,1-.33.22,1,1,0,0,1-.39.07,1,1,0,0,1-.34-.06,1.42,1.42,0,0,1-.52.42,1.44,1.44,0,0,1-.65.15,1.52,1.52,0,0,1-.59-.12,1.77,1.77,0,0,1-.43-.28,1.53,1.53,0,0,1-.31-.41,1.48,1.48,0,0,1-.16-.49,1.46,1.46,0,0,1,0-.51,1.66,1.66,0,0,1,.19-.48,1.41,1.41,0,0,1,.34-.39,1.5,1.5,0,0,1,.44-.26,1.81,1.81,0,0,1,.51-.08,1.44,1.44,0,0,1,.65.15,1.5,1.5,0,0,1,.52.41A1,1,0,0,1,534.53,17.62Z" transform="translate(0 0)"/><path class="cls-12" d="M530.18,18.55l-.69.58-5.32,3.42a1.87,1.87,0,0,1-.22-.9,2.08,2.08,0,0,1,.11-.66,1.83,1.83,0,0,1,.32-.58,1.91,1.91,0,0,1,.49-.45,2.23,2.23,0,0,1,.61-.27,2,2,0,0,1,.49-.06,1.69,1.69,0,0,1,.5.08v-.08a1.72,1.72,0,0,1,0-.39,1.66,1.66,0,0,1,.11-.38,2.37,2.37,0,0,1,.19-.35,1.81,1.81,0,0,1,.25-.3,1.89,1.89,0,0,1,.31-.25,2.27,2.27,0,0,1,.34-.19,1.82,1.82,0,0,1,.38-.11,1.75,1.75,0,0,1,.4,0,2,2,0,0,1,1.69.93Z" transform="translate(0 0)"/><path class="cls-13" d="M529.17,13a2.8,2.8,0,0,1-.68-1.89.54.54,0,0,1,0-.22.52.52,0,0,1,.13-.17.45.45,0,0,1,.19-.11.54.54,0,0,1,.22,0l1.4.21,0-.22V5h-5v14.6l0,.06a2,2,0,0,1,.49-.06,1.69,1.69,0,0,1,.5.08v-.08a1.72,1.72,0,0,1,0-.39,1.66,1.66,0,0,1,.11-.38,2.37,2.37,0,0,1,.19-.35,1.81,1.81,0,0,1,.25-.3,1.89,1.89,0,0,1,.31-.25,2.27,2.27,0,0,1,.34-.19,1.82,1.82,0,0,1,.38-.11,1.75,1.75,0,0,1,.4,0,2,2,0,0,1,1.69.93l.32-.27v-4.4A2.78,2.78,0,0,1,529.17,13Z" transform="translate(0 0)"/><path class="cls-14" d="M546.13,22.15l-2.52,2.2a9,9,0,0,1-2,1.33l2,.68.07,0a.64.64,0,0,1-.1-.33.59.59,0,0,1,.08-.32.69.69,0,0,1,.22-.23c.77-.46,2-1.37,2.67-1.91a2,2,0,0,1,1.27-.43h2.88a1.29,1.29,0,0,1,.55.11,1.4,1.4,0,0,1,.78.78,1.29,1.29,0,0,1,.11.55v.07h.51V22.15Z" transform="translate(0 0)"/><path class="cls-14" d="M547.68,12.59H544a1,1,0,0,1-.71-.3l-.94-.94a1.38,1.38,0,0,1-.26-.36,1.5,1.5,0,0,1-.15-.42,1.51,1.51,0,0,1,.11-.87,1.54,1.54,0,0,0-.51.4,1.85,1.85,0,0,0-.47,1.28,1.63,1.63,0,0,0,.49,1.2l1,1h6.55Z" transform="translate(0 0)"/><path class="cls-9" d="M535,13.39l-5-1a2.21,2.21,0,0,1-.51-.18,2,2,0,0,1-.44-.33,1.71,1.71,0,0,1-.32-.44,1.55,1.55,0,0,1-.18-.51.47.47,0,0,0,0,.17,2.07,2.07,0,0,0,0,.5,2.83,2.83,0,0,0,.13.5,2.11,2.11,0,0,0,.21.46,2.42,2.42,0,0,0,.29.42,3.06,3.06,0,0,0,.36.36,3.19,3.19,0,0,0,.42.3,3.25,3.25,0,0,0,.46.22,3.92,3.92,0,0,0,.49.13l4,.59.37-.3a.55.55,0,0,0,.15-.24.5.5,0,0,0,0-.27.42.42,0,0,0-.14-.24A.47.47,0,0,0,535,13.39Z" transform="translate(0 0)"/><path class="cls-9" d="M550.16,13.59v3.1a2.78,2.78,0,0,1-.06.58,2.69,2.69,0,0,1-.17.55,2.49,2.49,0,0,1-.27.51,2.93,2.93,0,0,1-.81.81,2.49,2.49,0,0,1-.51.27,3.5,3.5,0,0,1-.55.17,3.66,3.66,0,0,1-.57.05,2,2,0,0,0-.94.23,2,2,0,0,0-.72.64c-1,1.44-3.12,4.17-5,4.17,0,0-3,1-4,2L531.7,30.2a.92.92,0,0,1-.47.19,1,1,0,0,1-.51-.07.94.94,0,0,0,0,.16,1,1,0,0,0,.39.53,1.1,1.1,0,0,0,.63.2,2.19,2.19,0,0,0,1.33-.44l4.13-3.1a8.85,8.85,0,0,1,2.92-1.44,9.29,9.29,0,0,0,1.44-.55,9,9,0,0,0,2-1.33l2.52-2.2h6.55V13.59Z" transform="translate(0 0)"/><path class="cls-9" d="M530.56,20.75l-6.37,4.11a1.48,1.48,0,0,1-1.66,0,1.29,1.29,0,0,0,1.21.82A4,4,0,0,0,526,25l6-3.88a1.15,1.15,0,0,0-.26-.33,1,1,0,0,0-.79-.21A1,1,0,0,0,530.56,20.75Z" transform="translate(0 0)"/><path class="cls-9" d="M533.86,25.47l-7,5.12a.84.84,0,0,1-.33.16,1.1,1.1,0,0,1-.36,0,1,1,0,0,1-.35-.1.89.89,0,0,1-.29-.22,1.3,1.3,0,0,0,.3.65,1.49,1.49,0,0,0,.84.52l.15,0a1.63,1.63,0,0,0,.66,0,1.69,1.69,0,0,0,.62-.25l2.13-1.54,5.86-4.23a2,2,0,0,0-.49-.34,1.85,1.85,0,0,0-.57-.15,1.67,1.67,0,0,0-.59.05A1.86,1.86,0,0,0,533.86,25.47Z" transform="translate(0 0)"/><path class="cls-11" d="M541.37,25.78a1.9,1.9,0,0,1,.22.9,1.72,1.72,0,0,1,0,.39,1.66,1.66,0,0,1-.11.38,2.37,2.37,0,0,1-.19.35,1.81,1.81,0,0,1-.25.3,1.94,1.94,0,0,1-.31.26,2.21,2.21,0,0,1-.34.18,2.78,2.78,0,0,1-.38.12,2.6,2.6,0,0,1-.4,0,1.88,1.88,0,0,1-.57-.09,1.54,1.54,0,0,1-.24.5,1.6,1.6,0,0,1-.41.37,1.44,1.44,0,0,1-.52.2,1.75,1.75,0,0,1-.56,0,1.6,1.6,0,0,1-.51-.2,1.49,1.49,0,0,1-.41-.38,1.52,1.52,0,0,1-.25-.49,1.71,1.71,0,0,1-.05-.55,1.47,1.47,0,0,1,.16-.54,1.54,1.54,0,0,1,.33-.44,1.75,1.75,0,0,1,.47-.29,1.49,1.49,0,0,1,.55-.1,1.72,1.72,0,0,1,0-.39,1.66,1.66,0,0,1,.11-.38,1.7,1.7,0,0,1,.19-.35,2.16,2.16,0,0,1,.55-.55,1.7,1.7,0,0,1,.35-.19,1.66,1.66,0,0,1,.38-.11,1.72,1.72,0,0,1,.39,0,2.1,2.1,0,0,1,.56.07,1.75,1.75,0,0,1,.5.23,2.12,2.12,0,0,1,.43.35A2,2,0,0,1,541.37,25.78Z" transform="translate(0 0)"/><path class="cls-9" d="M534,23.66a1.82,1.82,0,0,0-.48-.34,1.72,1.72,0,0,0-.58-.15,1.68,1.68,0,0,0-.59,0,1.72,1.72,0,0,0-.53.25l-7.37,5a1.19,1.19,0,0,1-.36.17,1.07,1.07,0,0,1-.4.05,1.32,1.32,0,0,1-.39-.06,1.55,1.55,0,0,1-.36-.19,1.48,1.48,0,0,0,1.15,1.16l.15,0a1.63,1.63,0,0,0,.66,0,1.73,1.73,0,0,0,.61-.26l.35-.23,4.61-3.13v0Z" transform="translate(0 0)"/><path class="cls-12" d="M539.57,24.67a1.72,1.72,0,0,0-.39,0,1.66,1.66,0,0,0-.38.11,1.7,1.7,0,0,0-.35.19,2.16,2.16,0,0,0-.55.55,1.7,1.7,0,0,0-.19.35,1.66,1.66,0,0,0-.11.38,1.72,1.72,0,0,0,0,.39,1.47,1.47,0,0,1,.58.12,1.42,1.42,0,0,1,.81.81,1.47,1.47,0,0,1,.12.58,1.4,1.4,0,0,1-.06.41,2,2,0,0,0,.42.08,2.06,2.06,0,0,0,.43,0,2.17,2.17,0,0,0,.42-.11,1.93,1.93,0,0,0,.38-.19,2.24,2.24,0,0,0,.34-.27,2.16,2.16,0,0,0,.27-.33,2,2,0,0,0,.19-.39,1.85,1.85,0,0,0,.11-.42,1.54,1.54,0,0,0,0-.43,2,2,0,0,0-.07-.42,2,2,0,0,0-.17-.4,2.71,2.71,0,0,0-.24-.35,1.75,1.75,0,0,0-.32-.29,1.72,1.72,0,0,0-.37-.22,2,2,0,0,0-.41-.14A2,2,0,0,0,539.57,24.67Z" transform="translate(0 0)"/><path class="cls-15" d="M537.56,26.68a1.49,1.49,0,0,0-.55.1,1.42,1.42,0,0,0-.47.29,1.58,1.58,0,0,0-.34.44,1.55,1.55,0,0,0-.1,1.09,1.54,1.54,0,0,0,.24.5,1.6,1.6,0,0,0,.41.37,1.67,1.67,0,0,0,.52.21,1.75,1.75,0,0,0,.56,0,1.93,1.93,0,0,0,.52-.2,1.64,1.64,0,0,0,.41-.38,1.8,1.8,0,0,0,.25-.5,2.11,2.11,0,0,1-.59-.27,2.18,2.18,0,0,1-.46-.45,1.94,1.94,0,0,1-.3-.57A1.89,1.89,0,0,1,537.56,26.68Z" transform="translate(0 0)"/><path class="cls-16" d="M537.56,26.68a1.89,1.89,0,0,0,.1.63,1.94,1.94,0,0,0,.3.57,2.18,2.18,0,0,0,.46.45,2.11,2.11,0,0,0,.59.27,1.4,1.4,0,0,0,.06-.41,1.47,1.47,0,0,0-.12-.58,1.42,1.42,0,0,0-.81-.81A1.47,1.47,0,0,0,537.56,26.68Z" transform="translate(0 0)"/><path class="cls-4" d="M539.46,25.6a.36.36,0,0,0-.12.18.33.33,0,0,0,0,.22.36.36,0,0,0,.11.14,6.28,6.28,0,0,0,.79.66.67.67,0,0,0,.3.13.22.22,0,0,0,.08,0,.12.12,0,0,0,0-.05.68.68,0,0,0,.16-.49,1,1,0,0,0-.24-.64.61.61,0,0,0-.24-.21.77.77,0,0,0-.3-.11.89.89,0,0,0-.32,0A.74.74,0,0,0,539.46,25.6Z" transform="translate(0 0)"/><path class="cls-15" d="M526.54,20.14a2.14,2.14,0,0,1,1,.28l2-1.29.16-.13a1.78,1.78,0,0,0-.43-.23,2.52,2.52,0,0,0-.47-.13,2,2,0,0,0-.49,0,1.89,1.89,0,0,0-.47.11,2.18,2.18,0,0,0-.43.22,1.89,1.89,0,0,0-.37.32,2.21,2.21,0,0,0-.28.4,2.45,2.45,0,0,0-.17.45Z" transform="translate(0 0)"/><path class="cls-11" d="M526.47,20.64a1.73,1.73,0,0,1,.07-.5h-.07a1.72,1.72,0,0,0-.39,0,1.66,1.66,0,0,0-.38.11,1.7,1.7,0,0,0-.35.19,1.79,1.79,0,0,0-.31.25,2.48,2.48,0,0,0-.25.3,2.31,2.31,0,0,0-.18.35,2.4,2.4,0,0,0-.12.38,2.58,2.58,0,0,0,0,.39c0,.07,0,.13,0,.2l2-1.31A1.75,1.75,0,0,1,526.47,20.64Z" transform="translate(0 0)"/><path class="cls-16" d="M526.47,20.64a1.9,1.9,0,0,0,0,.41l1-.63a2.14,2.14,0,0,0-1-.28A1.73,1.73,0,0,0,526.47,20.64Z" transform="translate(0 0)"/><path class="cls-4" d="M527.64,18.65a.41.41,0,0,0,0,.22.46.46,0,0,0,.16.15.55.55,0,0,0,.18,0,7.18,7.18,0,0,0,1-.1.64.64,0,0,0,.3-.11l0-.06a.15.15,0,0,0,0-.07.69.69,0,0,0-.24-.46,1,1,0,0,0-.62-.29.87.87,0,0,0-.32,0,.92.92,0,0,0-.28.14.79.79,0,0,0-.21.24A.88.88,0,0,0,527.64,18.65Z" transform="translate(0 0)"/><path class="cls-12" d="M539.17,16.63l.07-.08a1,1,0,0,1-.49-.37,1,1,0,0,1,0-1.15,1,1,0,0,1,.49-.37,1.73,1.73,0,0,0-.28-.26,1.35,1.35,0,0,0-.33-.19,1.56,1.56,0,0,0-.37-.1h-.37a1.55,1.55,0,0,0-.71.27,2.27,2.27,0,0,0-.28.26,1.32,1.32,0,0,0-.2.32,1.09,1.09,0,0,0-.12.36,1.58,1.58,0,0,0,0,.38,1.61,1.61,0,0,0,.07.37,1.77,1.77,0,0,0,.16.34,1.42,1.42,0,0,0,.25.3,1.66,1.66,0,0,0,.3.22,1.42,1.42,0,0,0,.36.14,1.5,1.5,0,0,0,.37.05,1.27,1.27,0,0,0,.28,0A1.21,1.21,0,0,1,539.17,16.63Z" transform="translate(0 0)"/><path class="cls-11" d="M539.17,16.63a1.16,1.16,0,0,0-.82.46A1.47,1.47,0,0,0,539.17,16.63Z" transform="translate(0 0)"/><path class="cls-11" d="M539.23,16.55a1.05,1.05,0,0,0,.24.06,1,1,0,0,0,.24,0l.24-.05a1.13,1.13,0,0,0,.21-.12.69.69,0,0,0,.18-.16,1.43,1.43,0,0,0,.14-.2,1,1,0,0,0,.08-.22,1,1,0,0,0,0-.24.88.88,0,0,0,0-.24.9.9,0,0,0-.08-.23,1.43,1.43,0,0,0-.14-.2.93.93,0,0,0-.18-.16,1.06,1.06,0,0,0-.21-.11l-.24-.06h-.24a.69.69,0,0,0-.24.05,1.5,1.5,0,0,1,.26.44,1.75,1.75,0,0,1,.08.51,1.69,1.69,0,0,1-.08.5A1.5,1.5,0,0,1,539.23,16.55Z" transform="translate(0 0)"/><path class="cls-15" d="M538.57,15.61a1,1,0,0,0,.18.57.93.93,0,0,0,.48.37,1.5,1.5,0,0,0,.26-.44,1.69,1.69,0,0,0,.08-.5,1.75,1.75,0,0,0-.08-.51,1.5,1.5,0,0,0-.26-.44,1,1,0,0,0-.66.95Z" transform="translate(0 0)"/><path class="cls-4" d="M538.57,15.35a.72.72,0,0,1-.06.29.62.62,0,0,1-.17.25.78.78,0,0,1-.24.16.73.73,0,0,1-.58,0,.78.78,0,0,1-.24-.16.62.62,0,0,1-.17-.25.72.72,0,0,1-.06-.29.67.67,0,0,1,.06-.28.62.62,0,0,1,.17-.25.63.63,0,0,1,.24-.16.73.73,0,0,1,.58,0,.63.63,0,0,1,.24.16.62.62,0,0,1,.17.25A.67.67,0,0,1,538.57,15.35Z" transform="translate(0 0)"/><path class="cls-12" d="M533.53,18.63a1,1,0,0,1,.66-.95,1.45,1.45,0,0,0-.21-.22l-.26-.17a1.48,1.48,0,0,0-.29-.12l-.31-.05a1.57,1.57,0,0,0-.61.08l-.28.13-.25.19a2.2,2.2,0,0,0-.2.23,1.82,1.82,0,0,0-.15.27,1.76,1.76,0,0,0-.1.3,1.55,1.55,0,0,0,0,.31,1.53,1.53,0,0,0,0,.3,1.51,1.51,0,0,0,.1.3,1.43,1.43,0,0,0,.15.27,2.2,2.2,0,0,0,.2.23,1.5,1.5,0,0,0,.25.19,1.43,1.43,0,0,0,.28.13,1.57,1.57,0,0,0,.61.08,1.54,1.54,0,0,0,.31-.05,1.48,1.48,0,0,0,.29-.12,1.34,1.34,0,0,0,.47-.39.93.93,0,0,1-.48-.37A1,1,0,0,1,533.53,18.63Z" transform="translate(0 0)"/><path class="cls-9" d="M534.53,19.63a1,1,0,0,1-.34-.06,1.4,1.4,0,0,1-.7.49,1.53,1.53,0,0,1-.85,0,1.49,1.49,0,0,1-.73-.44,1.43,1.43,0,0,1-.37-.77,1.07,1.07,0,0,0,0,.25,1.43,1.43,0,0,0,.07.46,1.59,1.59,0,0,0,.21.41,1.47,1.47,0,0,0,.32.34,1.44,1.44,0,0,0,.41.21,1.39,1.39,0,0,0,.45.09,1.76,1.76,0,0,0,.46-.06,1.59,1.59,0,0,0,.42-.19,1.3,1.3,0,0,0,.34-.32,1.05,1.05,0,0,0,.24.06,1,1,0,0,0,.24,0,.86.86,0,0,0,.23-.06,1.51,1.51,0,0,0,.22-.11,1.41,1.41,0,0,0,.18-.17,1.27,1.27,0,0,0,.13-.19.7.7,0,0,0,.08-.23,1,1,0,0,0,0-.24,1,1,0,0,0,0-.25,1,1,0,0,1-.14.3,1,1,0,0,1-.22.24,1.18,1.18,0,0,1-.29.16A1.2,1.2,0,0,1,534.53,19.63Z" transform="translate(0 0)"/><path class="cls-4" d="M532.17,18.15a.36.36,0,0,0,.05.21.41.41,0,0,0,.16.16.47.47,0,0,0,.17,0,5.89,5.89,0,0,0,1-.09.91.91,0,0,0,.31-.12.1.1,0,0,0,0-.05.09.09,0,0,0,0-.07.67.67,0,0,0-.24-.46,1,1,0,0,0-.62-.29.65.65,0,0,0-.31,0,1,1,0,0,0-.29.14.91.91,0,0,0-.2.24A.77.77,0,0,0,532.17,18.15Z" transform="translate(0 0)"/><path class="cls-17" d="M529.3,11.74l.5.1a.82.82,0,0,0,.22,0,.83.83,0,0,0,.22,0l.2-.07a1.22,1.22,0,0,0,.19-.12.75.75,0,0,0,.15-.16.71.71,0,0,0,.12-.18.9.9,0,0,0,.08-.21,1.46,1.46,0,0,0,0-.22l-1.94-.29H529a.45.45,0,0,0-.31.12.48.48,0,0,0-.17.27.92.92,0,0,0,.28.51A1,1,0,0,0,529.3,11.74Z" transform="translate(0 0)"/><polygon class="cls-18" points="531.01 0.5 531.01 5.03 530.5 5.03 525.46 5.03 524.96 5.03 524.96 3.52 521.43 3.52 521.43 0.5 531.01 0.5"/><path class="cls-19" d="M522.44.5v1a1.07,1.07,0,0,0,.07.39,1.21,1.21,0,0,0,.22.32,1,1,0,0,0,.72.3h.5a1.07,1.07,0,0,1,.39.07,1,1,0,0,1,.32.22,1,1,0,0,1,.3.71h-3.53V.5Z" transform="translate(0 0)"/><rect class="cls-20" x="529.49" y="0.5" width="1.51" height="4.53"/><path class="cls-21" d="M530.5,5h-5V8.31a.75.75,0,0,0,.06.29.78.78,0,0,0,.16.24.67.67,0,0,0,.25.16.72.72,0,0,0,.29.06.75.75,0,0,0,.29-.06.63.63,0,0,0,.24-.16.81.81,0,0,0,.17-.24,1,1,0,0,0,.05-.29V7.55a1,1,0,0,1,.08-.38,1,1,0,0,1,.55-.55,1,1,0,0,1,.38-.08h2.52Z" transform="translate(0 0)"/><path class="cls-22" d="M530,7.05a.43.43,0,0,1,.19,0,.53.53,0,0,1,.27.27.41.41,0,0,1,0,.19v1a.43.43,0,0,1,0,.19.53.53,0,0,1-.27.27.43.43,0,0,1-.19,0,.48.48,0,0,1-.2,0,.42.42,0,0,1-.16-.11.46.46,0,0,1-.11-.16.65.65,0,0,1,0-.19v-1a.58.58,0,0,1,0-.19.46.46,0,0,1,.11-.16.42.42,0,0,1,.16-.11A.48.48,0,0,1,530,7.05Z" transform="translate(0 0)"/><path class="cls-22" d="M530,14.1a.63.63,0,0,1,.19,0,.64.64,0,0,1,.16.11.39.39,0,0,1,.11.17.41.41,0,0,1,0,.19v1a.43.43,0,0,1,0,.19.42.42,0,0,1-.11.16.36.36,0,0,1-.16.11.43.43,0,0,1-.19,0,.48.48,0,0,1-.2,0,.42.42,0,0,1-.16-.11.57.57,0,0,1-.11-.16.65.65,0,0,1,0-.19v-1a.58.58,0,0,1,0-.19.5.5,0,0,1,.11-.17.91.91,0,0,1,.16-.11A.69.69,0,0,1,530,14.1Z" transform="translate(0 0)"/><path class="cls-22" d="M528.49,14.1a.63.63,0,0,1,.19,0,.91.91,0,0,1,.16.11.39.39,0,0,1,.11.17.41.41,0,0,1,0,.19v2a.48.48,0,0,1,0,.2.42.42,0,0,1-.11.16.57.57,0,0,1-.16.11.5.5,0,0,1-.39,0,.53.53,0,0,1-.27-.27.48.48,0,0,1,0-.2v-2a.41.41,0,0,1,0-.19.5.5,0,0,1,.11-.17.91.91,0,0,1,.16-.11A.64.64,0,0,1,528.49,14.1Z" transform="translate(0 0)"/><path class="cls-21" d="M526.22,10.07a.75.75,0,0,1,.29.06.63.63,0,0,1,.24.16.81.81,0,0,1,.17.24,1,1,0,0,1,.05.29v6a.93.93,0,0,1-.05.29.74.74,0,0,1-.17.25.78.78,0,0,1-.24.16.75.75,0,0,1-.29.06.72.72,0,0,1-.29-.06.82.82,0,0,1-.25-.16.82.82,0,0,1-.22-.54v-6a.75.75,0,0,1,.06-.29.78.78,0,0,1,.16-.24.67.67,0,0,1,.25-.16A.72.72,0,0,1,526.22,10.07Z" transform="translate(0 0)"/><rect class="cls-3" x="530" y="6.04" width="1.01" height="3.52"/><path class="cls-3" d="M524.45,5a.65.65,0,0,0,0,.2.53.53,0,0,0,.27.27.71.71,0,0,0,.2,0h6a.65.65,0,0,0,.19,0,.57.57,0,0,0,.16-.11.42.42,0,0,0,.11-.16.45.45,0,0,0,0-.2V.5a.43.43,0,0,0,0-.19.36.36,0,0,0-.11-.16A.42.42,0,0,0,531.2,0,.43.43,0,0,0,531,0h-9.58V1h9.07V4.53h-5v-1a.43.43,0,0,0,0-.19.42.42,0,0,0-.11-.16.36.36,0,0,0-.16-.11A.43.43,0,0,0,525,3h-3.53V4h3Z" transform="translate(0 0)"/><rect class="cls-3" x="524.96" y="6.04" width="1.01" height="12.59"/><path class="cls-3" d="M542.68,10.07a.84.84,0,0,1,.51.16l3.16,2,1.17.81h-4.71l-.87-.87a1.11,1.11,0,0,1-.35-.84,1.19,1.19,0,0,1,0-.46,1.15,1.15,0,0,1,.23-.42,1.12,1.12,0,0,1,.36-.29A1,1,0,0,1,542.68,10.07ZM524.47,21.76s0-.08,0-.11a1.39,1.39,0,0,1,0-.35,1.21,1.21,0,0,1,.11-.32,1.17,1.17,0,0,1,.19-.3,1.36,1.36,0,0,1,.24-.24,1.52,1.52,0,0,1,.3-.17,1.42,1.42,0,0,1,.33-.11,1.37,1.37,0,0,1,.35,0,1.33,1.33,0,0,1,.34.05.45.45,0,0,0,.23,0,.51.51,0,0,0,.21-.1.65.65,0,0,0,.15-.18.62.62,0,0,0,0-.23.13.13,0,0,0,0-.06,1.47,1.47,0,0,1,.24-.81,1.45,1.45,0,0,1,.64-.56,1.52,1.52,0,0,1,.84-.12,1.41,1.41,0,0,1,.77.36l-.27.22Zm9.89-3.6a.38.38,0,0,1,.17,0,.65.65,0,0,1,.2,0,.53.53,0,0,1,.27.27.48.48,0,0,1,0,.2.43.43,0,0,1,0,.19.46.46,0,0,1-.11.16.42.42,0,0,1-.16.11.45.45,0,0,1-.2,0l-.17,0a.52.52,0,0,0-.56.15,1,1,0,0,1-.32.27,1,1,0,0,1-.39.11,1.13,1.13,0,0,1-.41-.05,1,1,0,0,1-.35-.22.88.88,0,0,1-.24-.33.93.93,0,0,1-.09-.4,1,1,0,0,1,.09-.41,1,1,0,0,1,.24-.33.84.84,0,0,1,.35-.21,1,1,0,0,1,.41-.06,1.08,1.08,0,0,1,.71.38.51.51,0,0,0,.56.16Zm3.2,9a.63.63,0,0,0,.19,0,.64.64,0,0,0,.16-.11.39.39,0,0,0,.11-.17.41.41,0,0,0,0-.19,1.47,1.47,0,0,1,.12-.58,1.43,1.43,0,0,1,.32-.49,1.47,1.47,0,0,1,.5-.32,1.39,1.39,0,0,1,.57-.12,1.43,1.43,0,0,1,.58.12,1.34,1.34,0,0,1,.49.32,1.63,1.63,0,0,1,.33.49,1.46,1.46,0,0,1,0,1.16,1.63,1.63,0,0,1-.33.49,1.51,1.51,0,0,1-.49.33,1.62,1.62,0,0,1-.58.11,1.23,1.23,0,0,1-.42-.07.68.68,0,0,0-.2,0,.6.6,0,0,0-.19.06.64.64,0,0,0-.15.13.51.51,0,0,0-.09.18.87.87,0,0,1-.17.33.78.78,0,0,1-.27.24,1.11,1.11,0,0,1-.34.14.92.92,0,0,1-.37,0A.87.87,0,0,1,537,29a1.27,1.27,0,0,1-.27-.25,1,1,0,0,1-.16-.33.92.92,0,0,1,0-.37,1.1,1.1,0,0,1,.11-.35,1.05,1.05,0,0,1,.22-.3,1.23,1.23,0,0,1,.31-.19A1.16,1.16,0,0,1,537.56,27.18Zm5-13.08h10.08v-1h-3.37l-2.4-1.65-3.17-2.06a1.89,1.89,0,0,0-1.06-.32,2,2,0,0,0-.43.07,1.56,1.56,0,0,0-.41.15,2,2,0,0,0-.37.22,2.89,2.89,0,0,0-.32.29,2.27,2.27,0,0,0-.26.35,2.32,2.32,0,0,0-.18.39,2.17,2.17,0,0,0-.11.42,3.1,3.1,0,0,0,0,.43,2.26,2.26,0,0,0,.24,1l-2.07-.81-.11,0-9.5-1.45a1,1,0,0,0-.81.23,1,1,0,0,0-.35.78,3.81,3.81,0,0,0,0,.59,2.74,2.74,0,0,0,.15.58,3.43,3.43,0,0,0,.25.55,3.36,3.36,0,0,0,.35.49,2.85,2.85,0,0,0,.42.43,3.3,3.3,0,0,0,.49.34,3,3,0,0,0,.55.25,3.83,3.83,0,0,0,.58.16l2.89.43-3.46,2.92a3.43,3.43,0,0,0-.54-.4,2.41,2.41,0,0,0-.63-.24,2.5,2.5,0,0,0-.67-.07,2.4,2.4,0,0,0-.66.11,2.25,2.25,0,0,0-.61.28,2.17,2.17,0,0,0-.52.43,2.4,2.4,0,0,0-.38.56,2.36,2.36,0,0,0-.22.63,2.32,2.32,0,0,0-.59.05,3.69,3.69,0,0,0-.56.19,3.27,3.27,0,0,0-.5.32,2.71,2.71,0,0,0-.41.42,2.62,2.62,0,0,0-.3.51,2.81,2.81,0,0,0-.18.56,2.92,2.92,0,0,0,0,.59,2.27,2.27,0,0,0,.1.58l-.79.51a1.92,1.92,0,0,0-.43.38,1.89,1.89,0,0,0-.28.5,1.6,1.6,0,0,0-.11.57,1.57,1.57,0,0,0,.07.57,1.67,1.67,0,0,0,.25.52,1.77,1.77,0,0,0,.4.42,2,2,0,0,0,.51.26,1.63,1.63,0,0,0,.57.1h.14l-.54.37a2,2,0,0,0-.66.71,1.9,1.9,0,0,0-.24.93,2,2,0,0,0,.11.65,2.08,2.08,0,0,0,.33.58,2,2,0,0,0,1.11.69l.15,0a2.26,2.26,0,0,0,.82,0v0a2.08,2.08,0,0,0,.11.66,2.23,2.23,0,0,0,.33.58,1.87,1.87,0,0,0,.5.43,1.71,1.71,0,0,0,.61.25l.15,0a2,2,0,0,0,.88,0,1.93,1.93,0,0,0,.81-.33l1.89-1.36a.83.83,0,0,0,0,.15,1.54,1.54,0,0,0,.23.44,1.62,1.62,0,0,0,.35.34,1.46,1.46,0,0,0,.43.22,1.62,1.62,0,0,0,.49.08,2.74,2.74,0,0,0,1.63-.55l2.48-1.85a1.49,1.49,0,0,0,.15.2l.18.18a1.66,1.66,0,0,0,.21.16l.22.13.23.1.25.07.25,0a2.09,2.09,0,0,0,.25,0l.26,0,.25-.06.24-.09.22-.12a.8.8,0,0,0,.21-.15,1.54,1.54,0,0,0,.19-.17l.17-.19.14-.22.26,0a2.83,2.83,0,0,0,.5-.05,2.54,2.54,0,0,0,.47-.14,3,3,0,0,0,.43-.24,1.91,1.91,0,0,0,.38-.31,2.28,2.28,0,0,0,.55-.82,3.68,3.68,0,0,0,.15-.47,2.63,2.63,0,0,0,0-.49,1.73,1.73,0,0,0,0-.32l1.42.48a6.87,6.87,0,0,0,2.16.34h1.91a6.61,6.61,0,0,0,2.16-.35,6.82,6.82,0,0,0,1.93-1l.33-.26.06,0,.35-.36h.3v-1h-.51a.47.47,0,0,0-.35.15l-.48.48L551,25a6,6,0,0,1-1.64.86,5.77,5.77,0,0,1-1.84.3h-1.91a5.77,5.77,0,0,1-1.84-.3l-1-.32a10,10,0,0,0,1.11-.83l2.38-2.08h6.36v-1h-6.55a.52.52,0,0,0-.34.12L543.27,24a8.42,8.42,0,0,1-1.72,1.17,2.47,2.47,0,0,0-.52-.5,2.62,2.62,0,0,0-.64-.34,2.58,2.58,0,0,0-1.42-.06,2.05,2.05,0,0,0-.67.27,2.46,2.46,0,0,0-.57.45,2.49,2.49,0,0,0-.41.59,2.6,2.6,0,0,0-.23.68,2.1,2.1,0,0,0-.62.26,1.91,1.91,0,0,0-.49.45,2.29,2.29,0,0,0-.33.59,2.08,2.08,0,0,0-.11.66s0,.08,0,.12l-2.74,2.06a1.74,1.74,0,0,1-1,.34.57.57,0,0,1-.33-.11.54.54,0,0,1-.21-.28.59.59,0,0,1,.24-.67l4.86-3.57a.5.5,0,0,0,.14-.15.48.48,0,0,0,.07-.18.67.67,0,0,0,0-.2,1.42,1.42,0,0,0-.08-.18.64.64,0,0,0-.15-.13.67.67,0,0,0-.18-.07.66.66,0,0,0-.2,0,.75.75,0,0,0-.18.08l-8,5.76a1,1,0,0,1-.87.16l-.15,0a.91.91,0,0,1-.31-.12.82.82,0,0,1-.25-.21,1,1,0,0,1-.16-.28.92.92,0,0,1-.06-.33.88.88,0,0,1,.25-.63l8.09-5.49a.62.62,0,0,0,.14-.14.45.45,0,0,0,.07-.18.34.34,0,0,0,0-.2.48.48,0,0,0-.07-.18.62.62,0,0,0-.14-.14.45.45,0,0,0-.18-.07.34.34,0,0,0-.2,0,.48.48,0,0,0-.18.07l-7.89,5.33a1.58,1.58,0,0,0-.29.22l-.32.22a1,1,0,0,1-.87.16l-.15,0a.91.91,0,0,1-.31-.12,1.27,1.27,0,0,1-.25-.21,1,1,0,0,1-.16-.29.87.87,0,0,1-.06-.32.93.93,0,0,1,.12-.46.9.9,0,0,1,.33-.34l8.4-5.83a.57.57,0,0,0,.13-.14.45.45,0,0,0,.07-.18.34.34,0,0,0,0-.2.51.51,0,0,0-.07-.17.47.47,0,0,0-.14-.14.49.49,0,0,0-.18-.08h-.19a.67.67,0,0,0-.18.07l-6,3.88a3.62,3.62,0,0,1-2,.57.75.75,0,0,1-.48-.16.8.8,0,0,1-.29-.41.8.8,0,0,1,.34-.9l6.46-4.15.05,0,1.2-1s0,.08,0,.13a2.56,2.56,0,0,0,0,.39,2.78,2.78,0,0,0,.12.38,1.7,1.7,0,0,0,.19.35,1.42,1.42,0,0,0,.25.3,1.81,1.81,0,0,0,.3.25,2.37,2.37,0,0,0,.35.19,1.66,1.66,0,0,0,.38.11,1.72,1.72,0,0,0,.39,0,2,2,0,0,0,1.34-.51,1.67,1.67,0,0,0,.63-.06,1.51,1.51,0,0,0,.29-.13,1.2,1.2,0,0,0,.26-.18,1.26,1.26,0,0,0,.22-.24,1.48,1.48,0,0,0,.16-.27,1.6,1.6,0,0,0,.1-.31,1.63,1.63,0,0,0,0-.31,1.66,1.66,0,0,0,0-.32,1.32,1.32,0,0,0-.1-.3,1.56,1.56,0,0,0-.16-.28,1.58,1.58,0,0,0-.22-.23,1,1,0,0,0-.26-.19l-.29-.13a1.7,1.7,0,0,0-.31-.06,1.13,1.13,0,0,0-.32,0,1.91,1.91,0,0,0-1.13-.5L536.37,14l-.65-.77-1,.84L531,13.48a2.26,2.26,0,0,1-.8-.29,2.4,2.4,0,0,1-.64-.55,2.29,2.29,0,0,1-.41-.73,2.37,2.37,0,0,1-.14-.83l9.44,1.44,4,1.54A.53.53,0,0,0,542.6,14.1Z" transform="translate(0 0)"/><path class="cls-3" d="M539.47,17.11a.75.75,0,0,1,.44.27.81.81,0,0,1,.17.49,1.1,1.1,0,0,1,0,.18l-.06.17a1.3,1.3,0,0,1-.1.15.53.53,0,0,1-.14.12.51.51,0,0,1-.16.09l-.17.05a.54.54,0,0,1-.18,0,.58.58,0,0,1-.18,0,.6.6,0,0,1-.16-.08l-.14-.11-.11-.15a.87.87,0,0,1-.07-.17.88.88,0,0,1,0-.17.55.55,0,0,1,0-.18.49.49,0,0,1,.06-.17.86.86,0,0,1,.1-.16.46.46,0,0,0,.1-.26.43.43,0,0,0,0-.27.48.48,0,0,0-.19-.21.5.5,0,0,0-.27-.08h-.09a.58.58,0,0,1-.19,0,1.07,1.07,0,0,1-.25,0,1.17,1.17,0,0,1-.24-.09,1,1,0,0,1-.2-.15,1,1,0,0,1-.17-.19,1.63,1.63,0,0,1-.11-.23,1.09,1.09,0,0,1,0-.25,1.13,1.13,0,0,1,0-.26,2.25,2.25,0,0,1,.08-.24,1.53,1.53,0,0,1,.14-.21,1,1,0,0,1,.19-.17.94.94,0,0,1,.22-.12,1,1,0,0,1,.25-.06h.25a.72.72,0,0,1,.25.07.94.94,0,0,1,.22.12.77.77,0,0,1,.18.18.51.51,0,0,0,.56.16.38.38,0,0,1,.17,0,.65.65,0,0,1,.2,0,.53.53,0,0,1,.27.27.45.45,0,0,1,0,.2.43.43,0,0,1,0,.19.57.57,0,0,1-.11.16.42.42,0,0,1-.16.11.45.45,0,0,1-.2,0,.44.44,0,0,0-.33.13.51.51,0,0,0-.17.32.48.48,0,0,0,.1.35.48.48,0,0,0,.3.2Zm-.07-3a1.91,1.91,0,0,0-1.34-.52,2.17,2.17,0,0,0-.71.13,2.25,2.25,0,0,0-.63.38,2.07,2.07,0,0,0-.66,1.27,2,2,0,0,0,.05.72,1.65,1.65,0,0,0,.3.66,1.94,1.94,0,0,0,.51.52,2,2,0,0,0,.67.29,1.68,1.68,0,0,0,0,.73,2,2,0,0,0,.12.34,1.77,1.77,0,0,0,.74.79,2,2,0,0,0,.34.14,2.09,2.09,0,0,0,.36.07,1.45,1.45,0,0,0,.36,0,1.55,1.55,0,0,0,.36-.08,2,2,0,0,0,.33-.15,1.23,1.23,0,0,0,.29-.22,1.6,1.6,0,0,0,.25-.27,1.77,1.77,0,0,0,.29-.67,2.2,2.2,0,0,0,0-.36,1.75,1.75,0,0,0-.45-1.19,1.46,1.46,0,0,0,.27-.38,1.27,1.27,0,0,0,.15-.44,1.42,1.42,0,0,0,0-.46,1.39,1.39,0,0,0-.14-.45,1.22,1.22,0,0,0-.26-.38,1.76,1.76,0,0,0-.37-.29,1.63,1.63,0,0,0-.44-.15A1.19,1.19,0,0,0,539.4,14.11Z" transform="translate(0 0)"/><path class="cls-3" d="M537.05,6.54a3.76,3.76,0,0,1,3.12,1.29l.83-.56a5.36,5.36,0,0,0-7.89,0l.83.56A3.75,3.75,0,0,1,537.05,6.54Z" transform="translate(0 0)"/><path class="cls-3" d="M537.05,7.05a3.48,3.48,0,0,0-.9.12,3.21,3.21,0,0,0-.83.36,3.29,3.29,0,0,0-.71.57,3.46,3.46,0,0,0-.53.74l.91.44a2.54,2.54,0,0,1,.37-.51,2.63,2.63,0,0,1,.49-.39,2.45,2.45,0,0,1,.58-.24,2.16,2.16,0,0,1,.62-.09,2.23,2.23,0,0,1,.63.09,2.25,2.25,0,0,1,1.07.63,2.54,2.54,0,0,1,.37.51l.91-.44a3.46,3.46,0,0,0-.53-.74,3.55,3.55,0,0,0-.71-.57,3.21,3.21,0,0,0-.83-.36A3.5,3.5,0,0,0,537.05,7.05Z" transform="translate(0 0)"/><path class="cls-3" d="M547.13,30.71A3.75,3.75,0,0,1,544,29.42l-.83.56a5.34,5.34,0,0,0,7.89,0l-.83-.56A3.76,3.76,0,0,1,547.13,30.71Z" transform="translate(0 0)"/><path class="cls-3" d="M547.13,30.2a3.12,3.12,0,0,0,.91-.12,3.21,3.21,0,0,0,.83-.36,3.55,3.55,0,0,0,.71-.57,3.23,3.23,0,0,0,.53-.74L549.2,28a2.08,2.08,0,0,1-.37.51,2.63,2.63,0,0,1-.49.39,2.53,2.53,0,0,1-1.21.33,2.16,2.16,0,0,1-.62-.09,2.09,2.09,0,0,1-.58-.24,2.63,2.63,0,0,1-.49-.39,2.08,2.08,0,0,1-.37-.51l-.91.44a3.23,3.23,0,0,0,.53.74,3.29,3.29,0,0,0,.71.57,3.21,3.21,0,0,0,.83.36A3.1,3.1,0,0,0,547.13,30.2Z" transform="translate(0 0)"/></g><line class="cls-23" x1="517.07" y1="23.26" x2="478.89" y2="56.98"/><polygon class="cls-24" points="519.25 26.91 520.73 19.84 513.57 20.4 519.25 26.91"/><path class="cls-24" d="M473.53,61.7A3.8,3.8,0,0,1,473,61a4.13,4.13,0,0,1-.35-.77,4.75,4.75,0,0,1-.19-.83,4.8,4.8,0,0,1,0-.85,4.91,4.91,0,0,1,.14-.84,4.36,4.36,0,0,1,2-2.63,4.35,4.35,0,0,1,.76-.35,4,4,0,0,1,.83-.19,3.94,3.94,0,0,1,.84,0,3.89,3.89,0,0,1,.83.14,3.58,3.58,0,0,1,.79.3,3.35,3.35,0,0,1,.72.45A3.78,3.78,0,0,1,480,56a4.29,4.29,0,0,1,.49.69,4.13,4.13,0,0,1,.35.77,4.75,4.75,0,0,1,.19.83,4,4,0,0,1,0,.85,4.1,4.1,0,0,1-.14.84,4.1,4.1,0,0,1-.74,1.51,3.78,3.78,0,0,1-.58.62,4.1,4.1,0,0,1-.68.5,4.44,4.44,0,0,1-.77.35,4.64,4.64,0,0,1-.82.19,4,4,0,0,1-.85,0,4.64,4.64,0,0,1-.83-.14,3.78,3.78,0,0,1-.79-.3,3.92,3.92,0,0,1-.72-.45A3.71,3.71,0,0,1,473.53,61.7Z" transform="translate(0 0)"/><path d="M593.81,48a6.75,6.75,0,0,1,3.52,2,5.76,5.76,0,0,1-5,9.52,5.76,5.76,0,0,1-.26-11.4,1.31,1.31,0,0,0,.28-.09Z" transform="translate(0 0)"/><path d="M597.21,82.31c-.29,2.84-.57,5.49-.84,8.14a8,8,0,0,1-1.16,3.34q-2.06,3.31-4.13,6.62a2.75,2.75,0,0,1-4.76,0,2,2,0,0,1,.1-2.22c1.37-2.19,2.76-4.37,4.09-6.59a14.12,14.12,0,0,0,.9-2.15,1.82,1.82,0,0,0,.1-.66c0-2.42.07-4.84.11-7.26,0-.08,0-.16,0-.29a3.25,3.25,0,0,1-2.82-1.77c-1.28-1.89-2.6-3.74-3.92-5.61a2.68,2.68,0,0,1-.15-3.06q2-3.58,4-7.17a3.19,3.19,0,0,1,2.69-1.69c2.31-.18,4.62-.41,6.94-.58A1.77,1.77,0,0,1,600.55,63q.76,4,1.5,8.09c.18,1,.36,1.13,1.36,1.13s2.26,0,3.39,0a2,2,0,0,1,1.89,1.26,1.73,1.73,0,0,1-1.55,2.34c-1.75.15-3.5.25-5.25.4-.3,0-.84.14-.84.22a2.3,2.3,0,0,0,.24,1.3c1.44,1.82,2.88,3.65,4.45,5.36A9,9,0,0,1,608.11,89c.1,1.82.34,3.62.54,5.42a2.62,2.62,0,0,1-1.68,2.9,9.9,9.9,0,0,1-1.08.39,1.51,1.51,0,0,1-2-1.2c-.23-1.37-.35-2.76-.5-4.14-.13-1.19-.23-2.37-.38-3.55a3.75,3.75,0,0,0-1.06-2.2c-1.32-1.33-2.65-2.66-4-4A2.43,2.43,0,0,0,597.21,82.31ZM591.34,68.5c-.11.08-.17.09-.2.13-.7,1-1.4,2.07-2.08,3.11a1.16,1.16,0,0,0,.09,1.41c.51.67,1,1.35,1.53,2,.24.33.5.64.86,1.1Z" transform="translate(0 0)"/><path d="M596.29,103.26v-2.09c0-.35,0-.69,0-1,0-1.2.49-1.7,1.69-1.71,2.44,0,4.89,0,7.33,0h5.54c0-.64,0-1.26,0-1.87,0-1.13,0-2.26,0-3.39a4.91,4.91,0,0,1,0-.55,1.14,1.14,0,0,1,1.16-1,1.12,1.12,0,0,1,1.08,1.17c0,.8,0,1.61,0,2.42,0,1.19,0,2.38-.07,3.57,0,1.53-.44,1.94-2,1.94H598.56v2.55c0,2-.26,2.29-2.31,2.29H582.76v2.61a7.86,7.86,0,0,1,0,.84,1.14,1.14,0,0,1-1.16,1,1.13,1.13,0,0,1-1.08-1.1c0-.71,0-1.41,0-2.12s0-1.21,0-1.82c0-1.18.51-1.7,1.7-1.7h14.11Z" transform="translate(0 0)"/><g class="cls-25"><path class="cls-9" d="M687.92,117.14v2h-.5l-.51.51-.33.25a6,6,0,0,1-1.79.93,6.15,6.15,0,0,1-2,.33h-1.92a6.39,6.39,0,0,1-2-.33l-2-.68a8.66,8.66,0,0,0,2-1.33l2.52-2.2h6.55Z" transform="translate(0 0)"/><path class="cls-10" d="M676.84,120.16a8.07,8.07,0,0,1-1.44.55,9,9,0,0,0-2.92,1.45l-4.13,3.09a2.11,2.11,0,0,1-1.32.45,1,1,0,0,1-.34-.06.85.85,0,0,1-.3-.15.82.82,0,0,1-.24-.25.85.85,0,0,1-.15-.3,1,1,0,0,1,0-.34,1,1,0,0,1,.06-.34,1.22,1.22,0,0,1,.17-.29,1,1,0,0,1,.25-.24l4.86-3.57-8,5.76a1.49,1.49,0,0,1-.61.25,1.47,1.47,0,0,1-.66,0l-.15,0a1.61,1.61,0,0,1-.85-.52,1.48,1.48,0,0,1-.25-.46,1.36,1.36,0,0,1-.07-.53,1.58,1.58,0,0,1,.12-.51,1.84,1.84,0,0,1,.3-.43l8.14-5.52-7.89,5.32a2.43,2.43,0,0,0-.25.2l-.35.24a1.49,1.49,0,0,1-.61.25,1.63,1.63,0,0,1-.66,0l-.15,0a1.57,1.57,0,0,1-.85-.53,1.4,1.4,0,0,1-.32-.9,1.44,1.44,0,0,1,.67-1.22l8.4-5.83-6,3.87a4.07,4.07,0,0,1-2.24.66,1.14,1.14,0,0,1-.41-.07,1.18,1.18,0,0,1-.37-.19,1.39,1.39,0,0,1-.48-.68,1.4,1.4,0,0,1-.05-.41,1.42,1.42,0,0,1,.08-.41A1.31,1.31,0,0,1,658,118a1.38,1.38,0,0,1,.31-.28l6.46-4.15,5.39-4.55-4-.6a3,3,0,0,1-.49-.13,2.77,2.77,0,0,1-.46-.22,2.42,2.42,0,0,1-.42-.29,3.06,3.06,0,0,1-.36-.36c-.11-.14-.2-.28-.29-.42a4,4,0,0,1-.21-.47,2.72,2.72,0,0,1-.13-.49,2.92,2.92,0,0,1,0-.51.41.41,0,0,1,0-.19.39.39,0,0,1,.11-.17.36.36,0,0,1,.16-.11.43.43,0,0,1,.19,0h.08l9.5,1.46,4,1.56h10.08v8.55h-6.55l-2.52,2.2A8.66,8.66,0,0,1,676.84,120.16Z" transform="translate(0 0)"/><path class="cls-9" d="M684.39,108.08h-6.55l-1-1a1.62,1.62,0,0,1-.49-1.19,1.9,1.9,0,0,1,.47-1.29,1.73,1.73,0,0,1,.5-.39,1.51,1.51,0,0,1,.62-.14,1.36,1.36,0,0,1,.79.24l3.16,2.06Z" transform="translate(0 0)"/><path class="cls-11" d="M674.82,111.1l.26.08.23.14a1.8,1.8,0,0,1,.2.19,1.77,1.77,0,0,1,.16.22,1.17,1.17,0,0,1,.1.26.75.75,0,0,1,.05.26,1.31,1.31,0,0,1,0,.28,2.5,2.5,0,0,1-.07.26,1.18,1.18,0,0,1-.34.51,1.27,1.27,0,0,1-.54.28l-.28,0a1.43,1.43,0,0,1-.29,0l-.27-.09a1.2,1.2,0,0,1-.24-.15,1.26,1.26,0,0,1-.2-.2,1.67,1.67,0,0,1-.16-.24,1.43,1.43,0,0,1-.09-.27,1.33,1.33,0,0,1,0-.28,1.19,1.19,0,0,1,.28-.79,1.33,1.33,0,0,1-.28,0,1.45,1.45,0,0,1-.55-.1,1.59,1.59,0,0,1-.82-.74,1.67,1.67,0,0,1-.15-.54,1.75,1.75,0,0,1,.06-.56,1.59,1.59,0,0,1,.26-.5,1.37,1.37,0,0,1,.42-.37,1.63,1.63,0,0,1,.52-.19,1.52,1.52,0,0,1,.79.08,1.4,1.4,0,0,1,.63.47,1,1,0,0,1,.35-.07,1,1,0,0,1,.38.08,1,1,0,0,1,.55.55,1,1,0,0,1,.08.38,1.09,1.09,0,0,1-.08.39.87.87,0,0,1-.22.32.83.83,0,0,1-.33.22A1,1,0,0,1,674.82,111.1Z" transform="translate(0 0)"/><path class="cls-9" d="M673.31,112.36a1.19,1.19,0,0,1,.28-.79,1.33,1.33,0,0,1-.28,0,1.24,1.24,0,0,1-.33,0,1.12,1.12,0,0,1-.31-.1l-.29-.17a2.5,2.5,0,0,1-.23-.23,1.26,1.26,0,0,1-.19-.28,1.57,1.57,0,0,1-.12-.3c0-.11,0-.22-.05-.33a1.84,1.84,0,0,1,0-.33,1.39,1.39,0,0,1,.2-.51,1.3,1.3,0,0,0-.38.32,1.55,1.55,0,0,0-.25.41,1.65,1.65,0,0,0-.1.48,1.6,1.6,0,0,0,.05.49,2,2,0,0,0,.21.44,1.47,1.47,0,0,0,1.25.65,1.27,1.27,0,0,0,.28,0,1.25,1.25,0,0,0-.28.79,1.33,1.33,0,0,0,0,.28,2.15,2.15,0,0,0,.1.27,1,1,0,0,0,.15.24,1,1,0,0,0,.21.2,1,1,0,0,0,.24.15,1.07,1.07,0,0,0,.27.09,1.33,1.33,0,0,0,.28,0,1.26,1.26,0,0,0,.28,0,1.21,1.21,0,0,0,.8-.61,1.45,1.45,0,0,1-.29.11l-.28,0a1.43,1.43,0,0,1-.29,0l-.27-.09a1.2,1.2,0,0,1-.24-.15,1.26,1.26,0,0,1-.2-.2,1.67,1.67,0,0,1-.16-.24,1.43,1.43,0,0,1-.09-.27A1.33,1.33,0,0,1,673.31,112.36Z" transform="translate(0 0)"/><path class="cls-11" d="M669.78,112.1a1,1,0,0,1,.38.08,1,1,0,0,1,.55.55,1,1,0,0,1,.08.38,1.09,1.09,0,0,1-.08.39.87.87,0,0,1-.22.32.83.83,0,0,1-.33.22,1,1,0,0,1-.38.08,1,1,0,0,1-.34-.07,1.61,1.61,0,0,1-.52.42,1.51,1.51,0,0,1-.65.15,1.45,1.45,0,0,1-.59-.12,1.52,1.52,0,0,1-.91-1.18,1.46,1.46,0,0,1,0-.51,1.4,1.4,0,0,1,.18-.48,1.59,1.59,0,0,1,.34-.39,1.66,1.66,0,0,1,.45-.25,1.44,1.44,0,0,1,.51-.09,1.51,1.51,0,0,1,.65.15,1.61,1.61,0,0,1,.52.42A1.28,1.28,0,0,1,669.78,112.1Z" transform="translate(0 0)"/><path class="cls-12" d="M665.42,113l-.68.57L659.42,117a1.88,1.88,0,0,1-.23-.9,2.06,2.06,0,0,1,.11-.65,2.1,2.1,0,0,1,.32-.59,2.34,2.34,0,0,1,.49-.45,1.94,1.94,0,0,1,.61-.26,2,2,0,0,1,.49-.06,1.79,1.79,0,0,1,.51.07s0,0,0-.07a2.71,2.71,0,0,1,0-.4,2.65,2.65,0,0,1,.12-.37,2.31,2.31,0,0,1,.18-.35,3.76,3.76,0,0,1,.25-.31l.31-.25a2.31,2.31,0,0,1,.35-.18,2.4,2.4,0,0,1,.38-.12,2.58,2.58,0,0,1,.39,0,2,2,0,0,1,1,.25A1.91,1.91,0,0,1,665.42,113Z" transform="translate(0 0)"/><path class="cls-13" d="M664.41,107.47a2.93,2.93,0,0,1-.68-1.9.49.49,0,0,1,0-.21.59.59,0,0,1,.13-.18.5.5,0,0,1,.19-.1.55.55,0,0,1,.22,0l1.4.22,0-.22V99.52h-5v14.66a2,2,0,0,1,.49-.06,1.79,1.79,0,0,1,.51.07s0,0,0-.07a2.71,2.71,0,0,1,0-.4,2.65,2.65,0,0,1,.12-.37,2.31,2.31,0,0,1,.18-.35,3.76,3.76,0,0,1,.25-.31l.31-.25a2.31,2.31,0,0,1,.35-.18,2.4,2.4,0,0,1,.38-.12,2.58,2.58,0,0,1,.39,0,2,2,0,0,1,1,.25,1.91,1.91,0,0,1,.72.69l.33-.28v-4.4A2.86,2.86,0,0,1,664.41,107.47Z" transform="translate(0 0)"/><path class="cls-14" d="M681.37,116.63l-2.52,2.2a8.66,8.66,0,0,1-2,1.33l2,.68.07,0a.57.57,0,0,1-.11-.33.65.65,0,0,1,.08-.31.57.57,0,0,1,.23-.23,31.66,31.66,0,0,0,2.67-1.92,2,2,0,0,1,1.26-.43H686a1.5,1.5,0,0,1,.55.11,1.4,1.4,0,0,1,.78.78,1.5,1.5,0,0,1,.11.55v.07h.5v-2.52Z" transform="translate(0 0)"/><path class="cls-14" d="M682.93,107.07h-3.66a1,1,0,0,1-.72-.3l-.94-.93a1.83,1.83,0,0,1-.26-.36,1.48,1.48,0,0,1-.14-.42,1.64,1.64,0,0,1,0-.44,1.62,1.62,0,0,1,.12-.43,1.51,1.51,0,0,0-.51.39,1.9,1.9,0,0,0-.47,1.29,1.62,1.62,0,0,0,.49,1.19l1,1h6.55Z" transform="translate(0 0)"/><path class="cls-9" d="M670.27,107.87l-5.06-1a1.84,1.84,0,0,1-.51-.19,1.75,1.75,0,0,1-.44-.33,2.29,2.29,0,0,1-.32-.43,2.47,2.47,0,0,1-.18-.52.51.51,0,0,0,0,.17,2.92,2.92,0,0,0,0,.51,2.72,2.72,0,0,0,.13.49,4,4,0,0,0,.21.47c.09.14.18.28.29.42a3.06,3.06,0,0,0,.36.36,2.42,2.42,0,0,0,.42.29,2.77,2.77,0,0,0,.46.22,3,3,0,0,0,.49.13l4,.6.36-.31a.46.46,0,0,0,.16-.23.45.45,0,0,0,0-.28.49.49,0,0,0-.14-.24A.47.47,0,0,0,670.27,107.87Z" transform="translate(0 0)"/><path class="cls-9" d="M685.4,108.08v3.1a3.66,3.66,0,0,1,0,.57,3.2,3.2,0,0,1-.17.55,4.11,4.11,0,0,1-.27.51,3.16,3.16,0,0,1-.37.45,2.63,2.63,0,0,1-.45.36,2.7,2.7,0,0,1-.5.27,3.06,3.06,0,0,1-1.13.23,1.89,1.89,0,0,0-.93.23,1.83,1.83,0,0,0-.72.63c-1,1.44-3.13,4.17-5,4.17,0,0-3,1-4,2L667,124.69a1.08,1.08,0,0,1-.48.18,1,1,0,0,1-.51-.07c0,.06,0,.11,0,.16a1.06,1.06,0,0,0,.4.53,1,1,0,0,0,.63.21,2.11,2.11,0,0,0,1.32-.45l4.13-3.09a9,9,0,0,1,2.92-1.45,8.07,8.07,0,0,0,1.44-.55,8.66,8.66,0,0,0,2-1.33l2.52-2.2h6.55v-8.55Z" transform="translate(0 0)"/><path class="cls-9" d="M665.81,115.23l-6.37,4.12a1.54,1.54,0,0,1-.83.24,1.42,1.42,0,0,1-.83-.25,1.33,1.33,0,0,0,1.21.82,4.07,4.07,0,0,0,2.24-.66l6-3.87a1.06,1.06,0,0,0-.26-.33,1,1,0,0,0-.38-.19,1,1,0,0,0-.42,0A.93.93,0,0,0,665.81,115.23Z" transform="translate(0 0)"/><path class="cls-9" d="M669.11,120l-7.05,5.12a1,1,0,0,1-.33.15.74.74,0,0,1-.36,0,.88.88,0,0,1-.35-.1.86.86,0,0,1-.29-.21,1.55,1.55,0,0,0,.3.65,1.58,1.58,0,0,0,.84.52l.16,0a1.47,1.47,0,0,0,.66,0,1.55,1.55,0,0,0,.61-.25l2.14-1.54,5.85-4.22a1.61,1.61,0,0,0-.48-.34,1.73,1.73,0,0,0-.58-.16,2,2,0,0,0-.59,0A1.52,1.52,0,0,0,669.11,120Z" transform="translate(0 0)"/><path class="cls-11" d="M676.62,120.27a1.86,1.86,0,0,1,.21.9,2.56,2.56,0,0,1,0,.39,2.78,2.78,0,0,1-.12.38,1.63,1.63,0,0,1-.19.34,1.48,1.48,0,0,1-.25.31,1.81,1.81,0,0,1-.3.25,1.84,1.84,0,0,1-.73.3,1.72,1.72,0,0,1-.39,0,1.79,1.79,0,0,1-.57-.09,1.52,1.52,0,0,1-.25.49,1.49,1.49,0,0,1-.41.38,1.55,1.55,0,0,1-.52.19,1.28,1.28,0,0,1-.55,0,1.37,1.37,0,0,1-.52-.2,1.6,1.6,0,0,1-.41-.37,1.54,1.54,0,0,1-.24-.5,1.45,1.45,0,0,1-.05-.55,1.61,1.61,0,0,1,.15-.53,1.34,1.34,0,0,1,.34-.44,1.2,1.2,0,0,1,.47-.29,1.4,1.4,0,0,1,.54-.1,2.58,2.58,0,0,1,0-.4,2.78,2.78,0,0,1,.12-.38,2.21,2.21,0,0,1,.18-.34,3.76,3.76,0,0,1,.25-.31,2.42,2.42,0,0,1,.31-.25,1.92,1.92,0,0,1,.35-.18,1.77,1.77,0,0,1,.37-.12,1.81,1.81,0,0,1,.4,0,2,2,0,0,1,.55.08,1.92,1.92,0,0,1,.51.22,2.11,2.11,0,0,1,.43.36A2.06,2.06,0,0,1,676.62,120.27Z" transform="translate(0 0)"/><path class="cls-9" d="M669.27,118.15a1.45,1.45,0,0,0-.48-.34,1.62,1.62,0,0,0-.57-.16,1.67,1.67,0,0,0-.59,0,1.75,1.75,0,0,0-.54.24l-7.36,5a1.27,1.27,0,0,1-.37.18,1.74,1.74,0,0,1-.39,0,1.34,1.34,0,0,1-.4-.07,1.08,1.08,0,0,1-.35-.19,1.31,1.31,0,0,0,.3.64,1.51,1.51,0,0,0,.84.53l.15,0a1.63,1.63,0,0,0,.66,0,1.59,1.59,0,0,0,.62-.25l.35-.24,4.61-3.13v0Z" transform="translate(0 0)"/><path class="cls-12" d="M674.82,119.15a1.81,1.81,0,0,0-.4,0,1.77,1.77,0,0,0-.37.12,1.92,1.92,0,0,0-.35.18,2.42,2.42,0,0,0-.31.25,3.76,3.76,0,0,0-.25.31,2.21,2.21,0,0,0-.18.34,2.78,2.78,0,0,0-.12.38,2.58,2.58,0,0,0,0,.4,1.43,1.43,0,0,1,.58.11,1.54,1.54,0,0,1,.82.82,1.43,1.43,0,0,1,.11.58,1.45,1.45,0,0,1-.06.41,3.1,3.1,0,0,0,.42.08,2,2,0,0,0,.43,0,1.84,1.84,0,0,0,.42-.1,1.79,1.79,0,0,0,.39-.2,2.14,2.14,0,0,0,.6-.6,2,2,0,0,0,.2-.38,2.13,2.13,0,0,0,.1-.42,2.07,2.07,0,0,0,0-.43,1.84,1.84,0,0,0-.08-.42,1.76,1.76,0,0,0-.16-.4,1.78,1.78,0,0,0-.25-.36,2.87,2.87,0,0,0-.31-.29,2.77,2.77,0,0,0-.37-.22,2.16,2.16,0,0,0-.41-.13A2.1,2.1,0,0,0,674.82,119.15Z" transform="translate(0 0)"/><path class="cls-15" d="M672.8,121.17a1.31,1.31,0,0,0-.55.1,1.36,1.36,0,0,0-.47.29,1.48,1.48,0,0,0-.34.44,1.61,1.61,0,0,0-.15.53,1.52,1.52,0,0,0,.05.56,1.34,1.34,0,0,0,.25.49,1.49,1.49,0,0,0,.41.38,1.37,1.37,0,0,0,.52.2,1.69,1.69,0,0,0,.55,0,1.37,1.37,0,0,0,.52-.2,1.45,1.45,0,0,0,.41-.37,1.38,1.38,0,0,0,.25-.5,1.83,1.83,0,0,1-.58-.28,1.92,1.92,0,0,1-.46-.44,2.23,2.23,0,0,1-.3-.57A2,2,0,0,1,672.8,121.17Z" transform="translate(0 0)"/><path class="cls-16" d="M672.8,121.17a2,2,0,0,0,.11.63,2.23,2.23,0,0,0,.3.57,1.92,1.92,0,0,0,.46.44,1.83,1.83,0,0,0,.58.28,1.45,1.45,0,0,0,.06-.41,1.43,1.43,0,0,0-.11-.58,1.54,1.54,0,0,0-.82-.82A1.43,1.43,0,0,0,672.8,121.17Z" transform="translate(0 0)"/><path class="cls-4" d="M674.7,120.08a.37.37,0,0,0-.11.41.69.69,0,0,0,.11.13,5,5,0,0,0,.8.66.83.83,0,0,0,.3.14h.07a.1.1,0,0,0,0,0,.7.7,0,0,0,.16-.5,1,1,0,0,0-.23-.64,1,1,0,0,0-.24-.21.88.88,0,0,0-.3-.1.85.85,0,0,0-.32,0A1,1,0,0,0,674.7,120.08Z" transform="translate(0 0)"/><path class="cls-15" d="M661.78,114.63a2,2,0,0,1,1,.27l2-1.29.15-.13a2.13,2.13,0,0,0-.42-.23,2,2,0,0,0-.48-.12,2.57,2.57,0,0,0-.48,0,2.77,2.77,0,0,0-.48.11,2,2,0,0,0-.43.23,1.56,1.56,0,0,0-.36.32,1.75,1.75,0,0,0-.28.39,2,2,0,0,0-.18.46Z" transform="translate(0 0)"/><path class="cls-11" d="M661.71,115.12a2.76,2.76,0,0,1,.07-.49h-.07a1.72,1.72,0,0,0-.39,0,2.38,2.38,0,0,0-.38.11,3.9,3.9,0,0,0-.35.19,1.81,1.81,0,0,0-.3.25,1.48,1.48,0,0,0-.25.31,1.63,1.63,0,0,0-.19.34,1.82,1.82,0,0,0-.11.38,1.72,1.72,0,0,0,0,.39,1.49,1.49,0,0,0,0,.21l2-1.31A2.85,2.85,0,0,1,661.71,115.12Z" transform="translate(0 0)"/><path class="cls-16" d="M661.71,115.12a2.71,2.71,0,0,0,0,.41l1-.63a2,2,0,0,0-1-.27A2.76,2.76,0,0,0,661.71,115.12Z" transform="translate(0 0)"/><path class="cls-4" d="M662.88,113.14a.38.38,0,0,0,0,.21.33.33,0,0,0,.16.15.32.32,0,0,0,.17,0,5.89,5.89,0,0,0,1-.09.91.91,0,0,0,.31-.12l0,0s0-.05,0-.07a.67.67,0,0,0-.24-.46,1,1,0,0,0-.61-.3.85.85,0,0,0-.32,0,.65.65,0,0,0-.29.14.83.83,0,0,0-.21.24A1,1,0,0,0,662.88,113.14Z" transform="translate(0 0)"/><path class="cls-12" d="M674.42,111.11l.06-.08a1,1,0,0,1-.48-.36.94.94,0,0,1-.19-.58,1,1,0,0,1,.67-.94,1.72,1.72,0,0,0-.27-.27,2.68,2.68,0,0,0-.33-.18,1.56,1.56,0,0,0-.37-.1,1.21,1.21,0,0,0-.38,0,1.18,1.18,0,0,0-.37.09,1.06,1.06,0,0,0-.33.18,1.35,1.35,0,0,0-.28.25,2.2,2.2,0,0,0-.21.32,2.53,2.53,0,0,0-.12.36,1.62,1.62,0,0,0,0,.38,1.51,1.51,0,0,0,.07.37,1.39,1.39,0,0,0,.16.35,1.68,1.68,0,0,0,.24.29,1.6,1.6,0,0,0,.66.36,1.58,1.58,0,0,0,.38,0l.28,0A1.22,1.22,0,0,1,674.42,111.11Z" transform="translate(0 0)"/><path class="cls-11" d="M674.42,111.11a1.22,1.22,0,0,0-.83.46A1.44,1.44,0,0,0,674.42,111.11Z" transform="translate(0 0)"/><path class="cls-11" d="M674.48,111a.86.86,0,0,0,.23.06H675a1,1,0,0,0,.23-.06,1,1,0,0,0,.21-.11l.19-.16a1.37,1.37,0,0,0,.13-.2,1.09,1.09,0,0,0,.09-.23,1,1,0,0,0,0-.48,1.09,1.09,0,0,0-.09-.23l-.13-.2-.19-.16a1,1,0,0,0-.21-.11,1,1,0,0,0-.23-.06,1,1,0,0,0-.25,0,.86.86,0,0,0-.23.06,1.48,1.48,0,0,1,.25.44,1.43,1.43,0,0,1,0,1A1.48,1.48,0,0,1,674.48,111Z" transform="translate(0 0)"/><path class="cls-15" d="M673.81,110.09a1,1,0,0,0,.67.94,1.48,1.48,0,0,0,.25-.44,1.43,1.43,0,0,0,0-1,1.48,1.48,0,0,0-.25-.44,1,1,0,0,0-.67.94Z" transform="translate(0 0)"/><path class="cls-4" d="M673.81,109.84a.72.72,0,0,1-.06.29.78.78,0,0,1-.16.24.74.74,0,0,1-.25.17.93.93,0,0,1-.29,0,1,1,0,0,1-.29,0,.81.81,0,0,1-.24-.17.63.63,0,0,1-.16-.24.73.73,0,0,1,0-.58.76.76,0,0,1,.16-.25.78.78,0,0,1,.24-.16.75.75,0,0,1,.29-.06.82.82,0,0,1,.54.22,1,1,0,0,1,.16.25A.72.72,0,0,1,673.81,109.84Z" transform="translate(0 0)"/><path class="cls-12" d="M668.77,113.11a1,1,0,0,1,.18-.58,1,1,0,0,1,.49-.36,1.75,1.75,0,0,0-.48-.4l-.29-.11a1.59,1.59,0,0,0-.3-.06h-.31a1.47,1.47,0,0,0-.3.08,1,1,0,0,0-.28.13,1.14,1.14,0,0,0-.25.18,1.57,1.57,0,0,0-.21.24,1.17,1.17,0,0,0-.15.27,1.4,1.4,0,0,0-.09.29,1.62,1.62,0,0,0,0,.62,1.4,1.4,0,0,0,.09.29,1.17,1.17,0,0,0,.15.27,1.21,1.21,0,0,0,.21.24,1.14,1.14,0,0,0,.25.18,1.47,1.47,0,0,0,.28.14l.3.07h.31a1.59,1.59,0,0,0,.3-.06,1.45,1.45,0,0,0,.29-.11l.26-.17a1.61,1.61,0,0,0,.22-.23,1,1,0,0,1-.49-.36A1,1,0,0,1,668.77,113.11Z" transform="translate(0 0)"/><path class="cls-9" d="M669.78,114.12a.8.8,0,0,1-.34-.07,1.43,1.43,0,0,1-.7.49,1.4,1.4,0,0,1-.86,0,1.49,1.49,0,0,1-1.1-1.21,2.42,2.42,0,0,0,0,.25,1.77,1.77,0,0,0,.07.46,1.52,1.52,0,0,0,.53.75,1.62,1.62,0,0,0,.41.22,1.66,1.66,0,0,0,.92,0,1.62,1.62,0,0,0,.42-.2,1.67,1.67,0,0,0,.34-.31.59.59,0,0,0,.23,0,1,1,0,0,0,.24,0,1,1,0,0,0,.45-.17.93.93,0,0,0,.18-.16,1.43,1.43,0,0,0,.14-.2,1.55,1.55,0,0,0,.08-.23.88.88,0,0,0,0-.24,1.09,1.09,0,0,0,0-.25,1,1,0,0,1-.13.3.92.92,0,0,1-.23.25.89.89,0,0,1-.29.15A.87.87,0,0,1,669.78,114.12Z" transform="translate(0 0)"/><path class="cls-4" d="M667.42,112.64a.39.39,0,0,0,0,.21.39.39,0,0,0,.16.15.55.55,0,0,0,.18,0,5.87,5.87,0,0,0,1-.1.64.64,0,0,0,.31-.11l0-.06a.15.15,0,0,0,0-.07.72.72,0,0,0-.24-.46,1.09,1.09,0,0,0-.62-.29,1.15,1.15,0,0,0-.32,0,.76.76,0,0,0-.28.15.66.66,0,0,0-.21.23A.87.87,0,0,0,667.42,112.64Z" transform="translate(0 0)"/><path class="cls-17" d="M664.54,106.23l.5.1.22,0,.22,0,.21-.08a.71.71,0,0,0,.18-.12A.75.75,0,0,0,666,106a1.22,1.22,0,0,0,.12-.19,1.18,1.18,0,0,0,.07-.2.89.89,0,0,0,0-.22l-1.94-.3h-.08a.48.48,0,0,0-.3.11.53.53,0,0,0-.18.28,1.08,1.08,0,0,0,.28.5A1,1,0,0,0,664.54,106.23Z" transform="translate(0 0)"/><polygon class="cls-18" points="666.25 94.99 666.25 99.52 665.75 99.52 660.71 99.52 660.2 99.52 660.2 98.01 656.67 98.01 656.67 94.99 666.25 94.99"/><path class="cls-19" d="M657.68,95v1a1,1,0,0,0,.3.72,1,1,0,0,0,.32.21.91.91,0,0,0,.39.08h.5a1,1,0,0,1,.72.3,1.21,1.21,0,0,1,.22.32,1,1,0,0,1,.07.39h-3.53V95Z" transform="translate(0 0)"/><rect class="cls-20" x="664.74" y="94.99" width="1.51" height="4.53"/><path class="cls-21" d="M665.75,99.52h-5v3.27a.93.93,0,0,0,0,.29.81.81,0,0,0,.17.24.66.66,0,0,0,.24.17.75.75,0,0,0,.29.06.72.72,0,0,0,.29-.06.7.7,0,0,0,.25-.17.78.78,0,0,0,.16-.24.72.72,0,0,0,.06-.29V102a1,1,0,0,1,.07-.39,1.46,1.46,0,0,1,.22-.33,1.15,1.15,0,0,1,.33-.21.85.85,0,0,1,.39-.08h2.52Z" transform="translate(0 0)"/><path class="cls-22" d="M665.24,101.53a.58.58,0,0,1,.19,0,.5.5,0,0,1,.17.11.57.57,0,0,1,.11.16.65.65,0,0,1,0,.2v1a.71.71,0,0,1,0,.2.57.57,0,0,1-.11.16.5.5,0,0,1-.17.11.58.58,0,0,1-.19,0,.65.65,0,0,1-.19,0,.46.46,0,0,1-.16-.11.42.42,0,0,1-.11-.16.48.48,0,0,1,0-.2v-1a.45.45,0,0,1,0-.2.42.42,0,0,1,.11-.16.46.46,0,0,1,.16-.11A.65.65,0,0,1,665.24,101.53Z" transform="translate(0 0)"/><path class="cls-22" d="M665.24,108.58a.41.41,0,0,1,.19,0,.39.39,0,0,1,.17.11.46.46,0,0,1,.11.16.65.65,0,0,1,0,.19v1a.58.58,0,0,1,0,.19.62.62,0,0,1-.11.17.71.71,0,0,1-.17.11.58.58,0,0,1-.19,0,.63.63,0,0,1-.19,0,.64.64,0,0,1-.16-.11.45.45,0,0,1-.11-.17.41.41,0,0,1,0-.19v-1a.43.43,0,0,1,0-.19.53.53,0,0,1,.27-.27A.43.43,0,0,1,665.24,108.58Z" transform="translate(0 0)"/><path class="cls-22" d="M663.73,108.58a.41.41,0,0,1,.19,0,.45.45,0,0,1,.17.11.64.64,0,0,1,.11.16.63.63,0,0,1,0,.19v2a.63.63,0,0,1,0,.19.64.64,0,0,1-.11.16.45.45,0,0,1-.17.11.47.47,0,0,1-.38,0,.45.45,0,0,1-.17-.11.64.64,0,0,1-.11-.16.63.63,0,0,1,0-.19v-2a.63.63,0,0,1,0-.19.64.64,0,0,1,.11-.16.45.45,0,0,1,.17-.11A.41.41,0,0,1,663.73,108.58Z" transform="translate(0 0)"/><path class="cls-21" d="M661.46,104.55a.72.72,0,0,1,.29.06.69.69,0,0,1,.41.41.72.72,0,0,1,.06.29v6a.72.72,0,0,1-.06.29.78.78,0,0,1-.16.24.85.85,0,0,1-.25.17.93.93,0,0,1-.29,0,1,1,0,0,1-.29,0,.87.87,0,0,1-.41-.41.93.93,0,0,1,0-.29v-6a.93.93,0,0,1,0-.29.85.85,0,0,1,.17-.25.78.78,0,0,1,.24-.16A.75.75,0,0,1,661.46,104.55Z" transform="translate(0 0)"/><rect class="cls-3" x="665.24" y="100.53" width="1.01" height="3.52"/><path class="cls-3" d="M659.7,99.52a.41.41,0,0,0,0,.19.53.53,0,0,0,.27.27.43.43,0,0,0,.19,0h6a.41.41,0,0,0,.19,0,.45.45,0,0,0,.17-.11.64.64,0,0,0,.11-.16.58.58,0,0,0,0-.19V95a.58.58,0,0,0,0-.19.71.71,0,0,0-.11-.17.62.62,0,0,0-.17-.11.58.58,0,0,0-.19,0h-9.58v1h9.08V99h-5V98a.58.58,0,0,0,0-.19.5.5,0,0,0-.11-.17.71.71,0,0,0-.17-.11.58.58,0,0,0-.19,0h-3.53v1h3Z" transform="translate(0 0)"/><rect class="cls-3" x="660.2" y="100.53" width="1.01" height="12.59"/><path class="cls-3" d="M677.92,104.55a1,1,0,0,1,.52.16l3.15,2.06,1.18.8h-4.72l-.87-.87a1.14,1.14,0,0,1-.35-.83,1.24,1.24,0,0,1,.06-.47,1.09,1.09,0,0,1,.22-.41,1.31,1.31,0,0,1,.36-.3A1.39,1.39,0,0,1,677.92,104.55Zm-18.21,11.69s0-.07,0-.11a2,2,0,0,1,0-.34,1.85,1.85,0,0,1,.12-.33,1.75,1.75,0,0,1,.18-.29,1.42,1.42,0,0,1,.25-.24,1.49,1.49,0,0,1,.3-.18,1.15,1.15,0,0,1,.33-.1,2,2,0,0,1,.34,0,1.86,1.86,0,0,1,.34.06.49.49,0,0,0,.24,0,.5.5,0,0,0,.21-.1.49.49,0,0,0,.14-.18.59.59,0,0,0,.05-.23s0,0,0,0a1.47,1.47,0,0,1,.23-.82,1.57,1.57,0,0,1,.64-.56,1.54,1.54,0,0,1,.85-.12,1.57,1.57,0,0,1,.77.36l-.27.23Zm9.9-3.6a.47.47,0,0,1,.17,0,.41.41,0,0,1,.19,0,.44.44,0,0,1,.16.1.45.45,0,0,1,.11.17.47.47,0,0,1,0,.38.39.39,0,0,1-.11.17.64.64,0,0,1-.16.11.58.58,0,0,1-.19,0,.47.47,0,0,1-.17,0,.47.47,0,0,0-.31,0,.49.49,0,0,0-.25.17,1,1,0,0,1-.32.26,1,1,0,0,1-.4.11.83.83,0,0,1-.41,0,1.13,1.13,0,0,1-.35-.21,1.16,1.16,0,0,1-.24-.34,1.06,1.06,0,0,1-.08-.4,1.1,1.1,0,0,1,.08-.4,1.16,1.16,0,0,1,.24-.34,1.13,1.13,0,0,1,.35-.21,1,1,0,0,1,.41,0,1,1,0,0,1,.72.37.44.44,0,0,0,.25.17A.47.47,0,0,0,669.61,112.64Zm3.19,9a.48.48,0,0,0,.2,0,.42.42,0,0,0,.16-.11.57.57,0,0,0,.11-.16.65.65,0,0,0,0-.19,1.43,1.43,0,0,1,.11-.58,1.54,1.54,0,0,1,.82-.82,1.43,1.43,0,0,1,.58-.11,1.46,1.46,0,0,1,.58.11,1.63,1.63,0,0,1,.49.33,1.51,1.51,0,0,1,.33.49,1.62,1.62,0,0,1,.11.58,1.56,1.56,0,0,1-.11.57,1.51,1.51,0,0,1-.33.49,1.53,1.53,0,0,1-1.07.45,2,2,0,0,1-.43-.07.41.41,0,0,0-.19,0,.33.33,0,0,0-.19.06.44.44,0,0,0-.15.12.54.54,0,0,0-.1.18,1,1,0,0,1-.16.33,1.27,1.27,0,0,1-.27.25,1.05,1.05,0,0,1-.72.13.85.85,0,0,1-.34-.14.78.78,0,0,1-.27-.24,1.09,1.09,0,0,1-.17-.34,1.1,1.1,0,0,1,0-.36.88.88,0,0,1,.1-.36,1.06,1.06,0,0,1,.22-.29.88.88,0,0,1,.32-.19A.92.92,0,0,1,672.8,121.67Zm5-13.09h10.08v-1h-3.37l-2.4-1.64L679,103.87a1.84,1.84,0,0,0-1.07-.32,2.22,2.22,0,0,0-.43.06,2.74,2.74,0,0,0-.4.15,2.26,2.26,0,0,0-.37.22,1.83,1.83,0,0,0-.32.3,1.7,1.7,0,0,0-.26.34,2.09,2.09,0,0,0-.19.4,1.84,1.84,0,0,0-.1.42,2,2,0,0,0,0,.43,2.12,2.12,0,0,0,.24,1L674,106l-.1,0-9.5-1.46a1,1,0,0,0-.81.23,1,1,0,0,0-.35.78,3,3,0,0,0,0,.6,3.83,3.83,0,0,0,.16.58,2.65,2.65,0,0,0,.25.54,3.39,3.39,0,0,0,.34.5,4.16,4.16,0,0,0,.42.42,3.45,3.45,0,0,0,.5.35,3.32,3.32,0,0,0,.54.25,2.91,2.91,0,0,0,.58.15l2.89.43-3.46,2.93a2.36,2.36,0,0,0-.54-.4,2.85,2.85,0,0,0-.63-.25,3,3,0,0,0-.67-.07,3,3,0,0,0-.66.11,2.6,2.6,0,0,0-.61.28,3.11,3.11,0,0,0-.52.44,2.34,2.34,0,0,0-.38.55,2.77,2.77,0,0,0-.22.63,3,3,0,0,0-.59.06,2.31,2.31,0,0,0-.56.19,2.53,2.53,0,0,0-.49.31,2.44,2.44,0,0,0-.42.43,2.29,2.29,0,0,0-.3.5,2.21,2.21,0,0,0-.17.57,2.31,2.31,0,0,0,0,.59,2.35,2.35,0,0,0,.1.58l-.78.5a1.6,1.6,0,0,0-.43.39,1.92,1.92,0,0,0-.29.5,1.8,1.8,0,0,0-.11.56,1.88,1.88,0,0,0,.07.58,2.08,2.08,0,0,0,.25.52,1.82,1.82,0,0,0,.92.68,1.79,1.79,0,0,0,.57.09h.13l-.54.38a1.93,1.93,0,0,0-.66.7,1.91,1.91,0,0,0-.24.94,1.82,1.82,0,0,0,.12.65,2.19,2.19,0,0,0,.32.58,2.32,2.32,0,0,0,.5.44,2.24,2.24,0,0,0,.62.25l.15,0a2,2,0,0,0,.81,0v0a1.82,1.82,0,0,0,.12.65,2,2,0,0,0,.32.58,2.32,2.32,0,0,0,.5.44,2,2,0,0,0,.62.25l.15,0a2.17,2.17,0,0,0,.88,0,2.22,2.22,0,0,0,.81-.34l1.88-1.36s0,.1,0,.15a1.4,1.4,0,0,0,.22.44,1.61,1.61,0,0,0,.35.34,1.51,1.51,0,0,0,.44.22,1.61,1.61,0,0,0,.48.08,2.64,2.64,0,0,0,1.63-.54l2.48-1.86a1.56,1.56,0,0,0,.16.2,1.07,1.07,0,0,0,.18.19l.2.15.22.13.23.1.25.07.25,0h.26a2.13,2.13,0,0,0,.25,0,1,1,0,0,0,.25-.06,1.17,1.17,0,0,0,.24-.09,1,1,0,0,0,.23-.12l.21-.14.19-.17.16-.2c.05-.07.1-.14.14-.21h.27a2,2,0,0,0,.49-.05,2.54,2.54,0,0,0,.47-.14,2.64,2.64,0,0,0,.44-.23,2.3,2.3,0,0,0,.38-.32,1.91,1.91,0,0,0,.31-.38,3,3,0,0,0,.24-.43,2.54,2.54,0,0,0,.14-.47,2.81,2.81,0,0,0,.05-.49l0-.32,1.42.47a6.82,6.82,0,0,0,2.15.35h1.92a6.87,6.87,0,0,0,2.15-.35,6.72,6.72,0,0,0,1.93-1l.34-.25,0,0,.36-.35h.29v-1h-.5a.49.49,0,0,0-.36.15l-.48.47-.3.23a5.77,5.77,0,0,1-1.65.86,5.71,5.71,0,0,1-1.83.3h-1.92a5.66,5.66,0,0,1-1.83-.3l-1-.32a9,9,0,0,0,1.1-.82l2.38-2.08h6.36v-1h-6.55a.44.44,0,0,0-.33.13l-2.52,2.2a8.06,8.06,0,0,1-1.73,1.16,2.42,2.42,0,0,0-.51-.5,2.59,2.59,0,0,0-.64-.33,2.49,2.49,0,0,0-.71-.14,2.52,2.52,0,0,0-.72.07,2.61,2.61,0,0,0-.67.27,2.22,2.22,0,0,0-.56.45,2.44,2.44,0,0,0-.42.59,2.78,2.78,0,0,0-.22.69,2,2,0,0,0-.62.26,2,2,0,0,0-.5.45,1.83,1.83,0,0,0-.32.58,1.92,1.92,0,0,0-.11.67s0,.07,0,.11l-2.75,2.06a1.66,1.66,0,0,1-1,.34.56.56,0,0,1-.33-.1.61.61,0,0,1-.21-.29.59.59,0,0,1,0-.37.53.53,0,0,1,.24-.29l4.86-3.58a.5.5,0,0,0,.2-.33.41.41,0,0,0,0-.19.37.37,0,0,0-.08-.18.47.47,0,0,0-.15-.13.36.36,0,0,0-.18-.07.45.45,0,0,0-.2,0,.48.48,0,0,0-.18.08l-8,5.76a1.09,1.09,0,0,1-.88.16l-.15,0a.79.79,0,0,1-.3-.12,1,1,0,0,1-.25-.21,1.05,1.05,0,0,1-.17-.29.87.87,0,0,1-.06-.32.89.89,0,0,1,.25-.64l8.1-5.49a.62.62,0,0,0,.14-.14.48.48,0,0,0,.07-.18.67.67,0,0,0,0-.2.71.71,0,0,0-.08-.18.62.62,0,0,0-.14-.14.48.48,0,0,0-.18-.07.67.67,0,0,0-.2,0,.71.71,0,0,0-.18.08l-7.89,5.32a2.09,2.09,0,0,0-.29.23l-.31.21a1,1,0,0,1-.88.16l-.15,0a1.34,1.34,0,0,1-.3-.12.88.88,0,0,1-.25-.22,1,1,0,0,1-.17-.28.92.92,0,0,1,.06-.78.93.93,0,0,1,.33-.35l8.41-5.83a.58.58,0,0,0,.13-.14.48.48,0,0,0,.07-.18.61.61,0,0,0,0-.19.71.71,0,0,0-.08-.18.57.57,0,0,0-.13-.14.67.67,0,0,0-.18-.07.41.41,0,0,0-.19,0,.48.48,0,0,0-.18.06l-6,3.88a3.59,3.59,0,0,1-2,.58.81.81,0,0,1-.48-.16.77.77,0,0,1-.29-.42.72.72,0,0,1,0-.5.77.77,0,0,1,.31-.4L665,114l0,0,1.2-1s0,.08,0,.12a1.72,1.72,0,0,0,0,.39,1.66,1.66,0,0,0,.11.38,2.37,2.37,0,0,0,.19.35,1.81,1.81,0,0,0,.25.3,1.94,1.94,0,0,0,.31.26,2.21,2.21,0,0,0,.34.18,2.78,2.78,0,0,0,.38.12,2.6,2.6,0,0,0,.4,0,1.93,1.93,0,0,0,1.33-.51h.32a1.83,1.83,0,0,0,.32-.07,1.78,1.78,0,0,0,.29-.12,2.48,2.48,0,0,0,.26-.19A1.51,1.51,0,0,0,671,114a1.12,1.12,0,0,0,.16-.28,1.49,1.49,0,0,0,0-1.24.92.92,0,0,0-.16-.27,1.21,1.21,0,0,0-.21-.24,1.51,1.51,0,0,0-.26-.18,1.23,1.23,0,0,0-.29-.13,1.8,1.8,0,0,0-.32-.06,1.71,1.71,0,0,0-.32,0,1.9,1.9,0,0,0-1.13-.49l3.15-2.66-.66-.77-1,.84-3.76-.56a2.42,2.42,0,0,1-.79-.29,2.64,2.64,0,0,1-.65-.55,2.34,2.34,0,0,1-.41-.74,2.58,2.58,0,0,1-.14-.83l9.45,1.44,4,1.55A.57.57,0,0,0,677.84,108.58Z" transform="translate(0 0)"/><path class="cls-3" d="M674.72,111.59a.7.7,0,0,1,.43.28.72.72,0,0,1,.17.49.55.55,0,0,1,0,.18.7.7,0,0,1-.06.17l-.1.15L675,113l-.16.08a.61.61,0,0,1-.18,0h-.18l-.17,0-.17-.08a.74.74,0,0,1-.13-.12.49.49,0,0,1-.11-.14,1.22,1.22,0,0,1-.07-.17.57.57,0,0,1,0-.18.55.55,0,0,1,0-.18.84.84,0,0,1,0-.17.78.78,0,0,1,.1-.15.5.5,0,0,0,.11-.26.54.54,0,0,0-.05-.28.49.49,0,0,0-.18-.2.47.47,0,0,0-.27-.08h-.1l-.18,0a1.15,1.15,0,0,1-.26,0,.92.92,0,0,1-.23-.09,1.13,1.13,0,0,1-.21-.15,1,1,0,0,1-.16-.2,1,1,0,0,1-.11-.23,1,1,0,0,1-.05-.25,1.06,1.06,0,0,1,0-.25.68.68,0,0,1,.08-.24,1,1,0,0,1,.13-.22,1.54,1.54,0,0,1,.19-.17,1,1,0,0,1,.23-.12.94.94,0,0,1,.24-.06,1.13,1.13,0,0,1,.26,0l.24.07a.71.71,0,0,1,.22.13,1.54,1.54,0,0,1,.19.17.44.44,0,0,0,.25.17.47.47,0,0,0,.31,0,.47.47,0,0,1,.17,0,.41.41,0,0,1,.19,0,.44.44,0,0,1,.16.1.45.45,0,0,1,.11.17.47.47,0,0,1,0,.38.45.45,0,0,1-.11.17.64.64,0,0,1-.16.11.58.58,0,0,1-.19,0,.53.53,0,0,0-.34.13.47.47,0,0,0-.16.33.49.49,0,0,0,.09.35.53.53,0,0,0,.31.19Zm-.08-3a1.93,1.93,0,0,0-1.33-.51,2,2,0,0,0-.72.13,2,2,0,0,0-.62.37,1.93,1.93,0,0,0-.45.58,2.06,2.06,0,0,0-.22.69,2,2,0,0,0,.35,1.39,1.94,1.94,0,0,0,.52.51,2,2,0,0,0,.66.3,2.19,2.19,0,0,0,0,.36,2.23,2.23,0,0,0,.05.36,2.06,2.06,0,0,0,.12.35,3.21,3.21,0,0,0,.19.31,2.1,2.1,0,0,0,.56.47,1.36,1.36,0,0,0,.33.14,1.53,1.53,0,0,0,.36.07,2.28,2.28,0,0,0,.37,0,2,2,0,0,0,.35-.08,1.26,1.26,0,0,0,.33-.16,1.61,1.61,0,0,0,.3-.21,2.09,2.09,0,0,0,.24-.28,1.92,1.92,0,0,0,.18-.31,1.57,1.57,0,0,0,.11-.35,1.47,1.47,0,0,0,0-.36,1.76,1.76,0,0,0-.45-1.2,1.72,1.72,0,0,0,.28-.37,1.76,1.76,0,0,0,.15-.44,1.85,1.85,0,0,0,0-.47,1.39,1.39,0,0,0-.13-.44,1.7,1.7,0,0,0-.27-.39,1.65,1.65,0,0,0-.36-.28,1.46,1.46,0,0,0-.44-.16A1.49,1.49,0,0,0,674.64,108.59Z" transform="translate(0 0)"/><path class="cls-3" d="M672.3,101a3.75,3.75,0,0,1,3.11,1.29l.84-.56a5.35,5.35,0,0,0-7.9,0l.84.56A3.7,3.7,0,0,1,672.3,101Z" transform="translate(0 0)"/><path class="cls-3" d="M672.3,101.53a3,3,0,0,0-.9.13,3.13,3.13,0,0,0-.84.36,3.23,3.23,0,0,0-.71.57,3.56,3.56,0,0,0-.53.74l.91.44a2.26,2.26,0,0,1,.87-.9,2.31,2.31,0,0,1,.58-.25,2.44,2.44,0,0,1,1.24,0,2.31,2.31,0,0,1,.58.25,2.34,2.34,0,0,1,.49.39,2.08,2.08,0,0,1,.37.51l.91-.44a3.23,3.23,0,0,0-.53-.74,3.18,3.18,0,0,0-.7-.57,3.28,3.28,0,0,0-.84-.36A3.06,3.06,0,0,0,672.3,101.53Z" transform="translate(0 0)"/><path class="cls-3" d="M682.38,125.19a3.67,3.67,0,0,1-3.11-1.29l-.84.57a5.37,5.37,0,0,0,7.9,0l-.84-.57A3.71,3.71,0,0,1,682.38,125.19Z" transform="translate(0 0)"/><path class="cls-3" d="M682.38,124.69a3.42,3.42,0,0,0,.9-.12,4.17,4.17,0,0,0,.84-.36,3.54,3.54,0,0,0,1.23-1.32l-.91-.43a2.23,2.23,0,0,1-.37.5,1.83,1.83,0,0,1-.49.39,2.31,2.31,0,0,1-.58.25,2.44,2.44,0,0,1-1.24,0,2.31,2.31,0,0,1-.58-.25,1.88,1.88,0,0,1-.5-.39,2.59,2.59,0,0,1-.37-.5l-.91.43a3.56,3.56,0,0,0,.53.74,3.28,3.28,0,0,0,.71.58,3.94,3.94,0,0,0,.84.36A3.37,3.37,0,0,0,682.38,124.69Z" transform="translate(0 0)"/></g><line class="cls-23" x1="660.66" y1="136.05" x2="631.02" y2="177.49"/><polygon class="cls-24" points="663.61 139.12 663.46 131.9 656.61 134.05 663.61 139.12"/><path class="cls-24" d="M626.86,183.29a4.21,4.21,0,0,1-.64-.56,4.31,4.31,0,0,1-.51-.68,3.56,3.56,0,0,1-.37-.76,4.44,4.44,0,0,1-.28-1.67,4.83,4.83,0,0,1,.11-.84,4.46,4.46,0,0,1,.28-.8,3.62,3.62,0,0,1,.42-.74,3.72,3.72,0,0,1,.56-.63,3.76,3.76,0,0,1,.67-.52,4.35,4.35,0,0,1,.75-.37,4.18,4.18,0,0,1,1.66-.27,4,4,0,0,1,.84.12,3.77,3.77,0,0,1,.8.27,4.11,4.11,0,0,1,.73.43,4.84,4.84,0,0,1,.64.56,4.31,4.31,0,0,1,.51.68,4.11,4.11,0,0,1,.37.76,4.73,4.73,0,0,1,.22.82,4.79,4.79,0,0,1,.06.85,4.05,4.05,0,0,1-.12.84,3.77,3.77,0,0,1-.27.8,4.15,4.15,0,0,1-.42.74,4.2,4.2,0,0,1-.56.63,3.76,3.76,0,0,1-.67.52,4.11,4.11,0,0,1-.76.37,4.4,4.4,0,0,1-.81.22,4.74,4.74,0,0,1-.84.05,4.59,4.59,0,0,1-.84-.11,4.46,4.46,0,0,1-.8-.28A4.11,4.11,0,0,1,626.86,183.29Z" transform="translate(0 0)"/><path class="cls-4" d="M248.46,361h-7l.37-2.08h16.53L258,361h-7l-3.28,18.67h-2.47Z" transform="translate(0 0)"/><path class="cls-4" d="M258.61,373.52a7.68,7.68,0,0,0,0,.83c0,2.36.71,3.69,3.19,3.69a9,9,0,0,0,4.67-1.64l.53,1.89a10,10,0,0,1-5.54,1.76c-3.69,0-5.08-2.23-5.08-5.36,0-6.13,4-10.18,8-10.18,2.17,0,3.87,1.08,3.87,3.09C268.27,370.82,265.27,373.33,258.61,373.52Zm.34-1.77c2.91-.12,7-1.05,7-3.9,0-.9-.62-1.42-1.77-1.42C262.05,366.43,259.82,368.72,259,371.75Z" transform="translate(0 0)"/><path class="cls-4" d="M274.43,370l-1.7,9.63h-2.2l2-11.3c.06-.38.18-1.12.18-1.34,0-.61-.49-.74-1.67-.77l.25-1.27a13.36,13.36,0,0,1,2.63-.43c1,0,1.21.4,1.21,1a11.72,11.72,0,0,1-.19,1.83c1.18-1.4,2.7-2.82,4.18-2.82a1.18,1.18,0,0,1,1,.46l-.56,2.23a3.31,3.31,0,0,0-.77-.09C277.52,367.11,276.22,368,274.43,370Z" transform="translate(0 0)"/><path class="cls-4" d="M285.73,370,284,379.62h-2.2l2-11.3c.06-.38.18-1.12.18-1.34,0-.61-.49-.74-1.67-.77l.25-1.27a13.36,13.36,0,0,1,2.63-.43c1,0,1.21.4,1.21,1a13.07,13.07,0,0,1-.19,1.83c1.18-1.4,2.69-2.82,4.18-2.82a1.2,1.2,0,0,1,1,.46l-.56,2.23a3.37,3.37,0,0,0-.77-.09C288.82,367.11,287.52,368,285.73,370Z" transform="translate(0 0)"/><path class="cls-4" d="M300.77,377.45a6.72,6.72,0,0,1-4.74,2.6c-2.66,0-4-2.14-4-5.29,0-5.55,3.09-10.25,8-10.25a8.48,8.48,0,0,1,4.83,1.42L303.12,376c-.12.74-.21,1.36-.21,1.57,0,.59.4.72,1.67.75v1.27a10.13,10.13,0,0,1-2.6.43c-1.05,0-1.36-.43-1.36-1.21A8.13,8.13,0,0,1,300.77,377.45Zm.4-3.07,1.24-7.33a4.54,4.54,0,0,0-2.51-.65c-3.22,0-5.63,3.62-5.63,8.17,0,2,.65,3.44,2.2,3.44S300.06,376.09,301.17,374.38Z" transform="translate(0 0)"/><path class="cls-4" d="M307,378.56l9.07-11.7h-7.37l.31-1.92h10.37v1.12l-9.22,11.64h8.48l-.31,1.92H307Z" transform="translate(0 0)"/><path class="cls-4" d="M329.9,377.45a6.74,6.74,0,0,1-4.74,2.6c-2.66,0-4-2.14-4-5.29,0-5.55,3.09-10.25,8-10.25a8.43,8.43,0,0,1,4.83,1.42l-1.7,10.1c-.12.74-.22,1.36-.22,1.57,0,.59.41.72,1.68.75v1.27a10.2,10.2,0,0,1-2.6.43c-1.06,0-1.37-.43-1.37-1.21A7.46,7.46,0,0,1,329.9,377.45Zm.4-3.07,1.24-7.33a4.54,4.54,0,0,0-2.51-.65c-3.22,0-5.63,3.62-5.63,8.17,0,2,.65,3.44,2.19,3.44S329.19,376.09,330.3,374.38Z" transform="translate(0 0)"/></g></g></svg>