<?xml version="1.0" encoding="utf-8"?>
<!-- Generator: Adobe Illustrator 26.0.0, SVG Export Plug-In . SVG Version: 6.00 Build 0)  -->
<svg version="1.1" id="Capa_1" xmlns="http://www.w3.org/2000/svg" xmlns:xlink="http://www.w3.org/1999/xlink" x="0px" y="0px"
	 viewBox="0 0 687.9 656.2" style="enable-background:new 0 0 687.9 656.2;" xml:space="preserve">
<style type="text/css">
	.st0{fill:#010101;}
	.st1{fill:#646464;}
	.st2{fill:#FFFFFF;}
	.st3{fill:#5E9E49;}
	.st4{fill:#325D28;}
	.st5{fill:#EAEAEA;}
	.st6{clip-path:url(#SVGID_00000091014014030590344660000001098371732307005365_);}
	.st7{fill:#F6B2A3;}
	.st8{fill:#F8C7BD;}
	.st9{fill:#D2EAF1;}
	.st10{fill:#E5F3F8;}
	.st11{fill:#54C2F0;}
	.st12{fill:#F49C82;}
	.st13{fill:#C7E6EE;}
	.st14{fill:#B8DFE4;}
	.st15{fill:#FCE0DA;}
	.st16{fill:#DBE0EA;}
	.st17{fill:#BFC4D3;}
	.st18{fill:#EDF2FA;}
	.st19{fill:#5993CE;}
	.st20{fill:#7FCADA;}
	.st21{fill:none;stroke:#48733C;stroke-width:0.73;stroke-miterlimit:10;}
	.st22{fill:#48733C;}
	.st23{clip-path:url(#SVGID_00000128443902769203278310000013913281241534578826_);}
</style>
<g id="Capa_2_00000047038866959719310050000013240457086061356431_">
	<g id="Capa_1-2">
		<rect x="58.5" y="47.4" class="st0" width="34.8" height="168.8"/>
		<rect x="60.7" y="47.4" class="st1" width="2.1" height="168.8"/>
		<rect x="89.1" y="47.4" class="st1" width="2.1" height="168.8"/>
		<rect x="74.9" y="205.6" class="st2" width="2.1" height="10.6"/>
		<rect x="74.9" y="184.5" class="st2" width="2.1" height="10.6"/>
		<rect x="74.9" y="163.4" class="st2" width="2.1" height="10.6"/>
		<rect x="74.9" y="142.3" class="st2" width="2.1" height="10.6"/>
		<rect x="74.9" y="121.2" class="st2" width="2.1" height="10.6"/>
		<rect x="74.9" y="100.1" class="st2" width="2.1" height="10.6"/>
		<rect x="74.9" y="79" class="st2" width="2.1" height="10.6"/>
		<rect x="74.9" y="57.9" class="st2" width="2.1" height="10.6"/>
		<rect x="58.5" y="216.1" class="st0" width="34.8" height="168.8"/>
		<rect x="60.7" y="216.1" class="st1" width="2.1" height="168.8"/>
		<rect x="89.1" y="216.1" class="st1" width="2.1" height="168.8"/>
		<rect x="74.9" y="374.3" class="st2" width="2.1" height="10.5"/>
		<rect x="74.9" y="353.2" class="st2" width="2.1" height="10.5"/>
		<rect x="74.9" y="332.1" class="st2" width="2.1" height="10.5"/>
		<rect x="74.9" y="311" class="st2" width="2.1" height="10.5"/>
		<rect x="74.9" y="290" class="st2" width="2.1" height="10.5"/>
		<rect x="74.9" y="268.9" class="st2" width="2.1" height="10.5"/>
		<rect x="74.9" y="247.8" class="st2" width="2.1" height="10.6"/>
		<rect x="74.9" y="226.7" class="st2" width="2.1" height="10.6"/>
		<rect x="58.5" y="384.9" class="st0" width="34.8" height="168.8"/>
		<rect x="60.7" y="384.9" class="st1" width="2.1" height="168.8"/>
		<rect x="89.1" y="384.9" class="st1" width="2.1" height="168.8"/>
		<rect x="74.9" y="543.1" class="st2" width="2.1" height="10.5"/>
		<rect x="74.9" y="522" class="st2" width="2.1" height="10.5"/>
		<rect x="74.9" y="500.9" class="st2" width="2.1" height="10.5"/>
		<rect x="74.9" y="479.8" class="st2" width="2.1" height="10.5"/>
		<rect x="74.9" y="458.7" class="st2" width="2.1" height="10.5"/>
		<rect x="74.9" y="437.6" class="st2" width="2.1" height="10.5"/>
		<rect x="74.9" y="416.5" class="st2" width="2.1" height="10.5"/>
		<rect x="74.9" y="395.4" class="st2" width="2.1" height="10.5"/>
		<rect x="468.3" y="591.1" class="st0" width="168.8" height="34.8"/>
		<rect x="468.3" y="593.2" class="st1" width="168.8" height="2.1"/>
		<rect x="468.3" y="621.7" class="st1" width="168.8" height="2.1"/>
		<rect x="468.3" y="607.5" class="st2" width="10.5" height="2.1"/>
		<rect x="489.4" y="607.5" class="st2" width="10.5" height="2.1"/>
		<rect x="510.5" y="607.5" class="st2" width="10.6" height="2.1"/>
		<rect x="531.6" y="607.5" class="st2" width="10.5" height="2.1"/>
		<rect x="552.7" y="607.5" class="st2" width="10.5" height="2.1"/>
		<rect x="573.8" y="607.5" class="st2" width="10.5" height="2.1"/>
		<rect x="594.9" y="607.5" class="st2" width="10.5" height="2.1"/>
		<rect x="616" y="607.5" class="st2" width="10.5" height="2.1"/>
		<rect x="299.6" y="591.1" class="st0" width="168.8" height="34.8"/>
		<rect x="299.6" y="593.2" class="st1" width="168.8" height="2.1"/>
		<rect x="299.6" y="621.7" class="st1" width="168.8" height="2.1"/>
		<rect x="299.6" y="607.5" class="st2" width="10.5" height="2.1"/>
		<rect x="320.7" y="607.5" class="st2" width="10.5" height="2.1"/>
		<rect x="341.8" y="607.5" class="st2" width="10.5" height="2.1"/>
		<rect x="362.9" y="607.5" class="st2" width="10.5" height="2.1"/>
		<rect x="383.9" y="607.5" class="st2" width="10.5" height="2.1"/>
		<rect x="405" y="607.5" class="st2" width="10.5" height="2.1"/>
		<rect x="426.1" y="607.5" class="st2" width="10.5" height="2.1"/>
		<rect x="447.2" y="607.5" class="st2" width="10.5" height="2.1"/>
		<rect y="591.1" class="st0" width="299.6" height="34.8"/>
		<rect x="130.8" y="593.2" class="st1" width="168.8" height="2.1"/>
		<rect x="130.8" y="621.7" class="st1" width="168.8" height="2.1"/>
		<rect x="130.8" y="607.5" class="st2" width="10.6" height="2.1"/>
		<rect x="151.9" y="607.5" class="st2" width="10.6" height="2.1"/>
		<rect x="173" y="607.5" class="st2" width="10.6" height="2.1"/>
		<rect x="194.1" y="607.5" class="st2" width="10.6" height="2.1"/>
		<rect x="215.2" y="607.5" class="st2" width="10.6" height="2.1"/>
		<rect x="236.3" y="607.5" class="st2" width="10.6" height="2.1"/>
		<rect x="257.4" y="607.5" class="st2" width="10.5" height="2.1"/>
		<rect x="278.5" y="607.5" class="st2" width="10.5" height="2.1"/>
		<rect y="593.2" class="st1" width="46.4" height="2.1"/>
		<rect x="106.5" y="593.2" class="st1" width="24.3" height="2.1"/>
		<rect x="58.5" y="593.2" class="st1" width="34.8" height="2.1"/>
		<rect y="621.7" class="st1" width="46.4" height="2.1"/>
		<rect x="106.5" y="621.7" class="st1" width="24.3" height="2.1"/>
		<rect x="58.5" y="621.7" class="st1" width="34.8" height="2.1"/>
		<rect x="4.2" y="607.5" class="st2" width="10.6" height="2.1"/>
		<rect x="25.3" y="607.5" class="st2" width="10.5" height="2.1"/>
		<rect x="67.5" y="607.5" class="st2" width="10.6" height="2.1"/>
		<rect x="109.7" y="607.5" class="st2" width="10.6" height="2.1"/>
		<rect x="58.5" y="553.7" class="st0" width="34.8" height="102.5"/>
		<rect x="60.7" y="553.7" class="st1" width="2.1" height="22.8"/>
		<rect x="89.1" y="553.7" class="st1" width="2.1" height="22.8"/>
		<rect x="74.9" y="564.2" class="st2" width="2.1" height="10.5"/>
		<rect x="74.9" y="579.2" class="st2" width="2.1" height="10.5"/>
		<rect x="78.5" y="579.2" class="st2" width="2.1" height="10.5"/>
		<rect x="71.3" y="579.2" class="st2" width="2.1" height="10.5"/>
		<rect x="64.2" y="579.2" class="st2" width="2.1" height="10.5"/>
		<rect x="67.7" y="579.2" class="st2" width="2.1" height="10.5"/>
		<rect x="60.6" y="579.2" class="st2" width="2.1" height="10.5"/>
		<rect x="85.6" y="579.2" class="st2" width="2.1" height="10.5"/>
		<rect x="89.2" y="579.2" class="st2" width="2.1" height="10.5"/>
		<rect x="82" y="579.2" class="st2" width="2.1" height="10.5"/>
		<rect x="93.3" y="607.5" class="st2" width="10.6" height="2.1"/>
		<rect x="93.3" y="611" class="st2" width="10.6" height="2.1"/>
		<rect x="93.3" y="603.9" class="st2" width="10.6" height="2.1"/>
		<rect x="93.3" y="596.7" class="st2" width="10.6" height="2.1"/>
		<rect x="93.3" y="600.3" class="st2" width="10.6" height="2.1"/>
		<rect x="93.3" y="593.2" class="st2" width="10.6" height="2.1"/>
		<rect x="93.3" y="618.2" class="st2" width="10.6" height="2.1"/>
		<rect x="93.3" y="621.8" class="st2" width="10.6" height="2.1"/>
		<rect x="93.3" y="614.6" class="st2" width="10.6" height="2.1"/>
		<rect x="48.2" y="607.5" class="st2" width="10.5" height="2.1"/>
		<rect x="48.2" y="611" class="st2" width="10.5" height="2.1"/>
		<rect x="48.2" y="603.9" class="st2" width="10.5" height="2.1"/>
		<rect x="48.2" y="596.7" class="st2" width="10.5" height="2.1"/>
		<rect x="48.2" y="600.3" class="st2" width="10.5" height="2.1"/>
		<rect x="48.2" y="593.2" class="st2" width="10.5" height="2.1"/>
		<rect x="48.2" y="618.2" class="st2" width="10.5" height="2.1"/>
		<rect x="48.2" y="621.8" class="st2" width="10.5" height="2.1"/>
		<rect x="48.2" y="614.6" class="st2" width="10.5" height="2.1"/>
		<rect x="74.9" y="625.9" class="st2" width="2.1" height="10.5"/>
		<rect x="78.5" y="625.9" class="st2" width="2.1" height="10.5"/>
		<rect x="71.3" y="625.9" class="st2" width="2.1" height="10.5"/>
		<rect x="64.2" y="625.9" class="st2" width="2.1" height="10.5"/>
		<rect x="67.7" y="625.9" class="st2" width="2.1" height="10.5"/>
		<rect x="60.6" y="625.9" class="st2" width="2.1" height="10.5"/>
		<rect x="85.6" y="625.9" class="st2" width="2.1" height="10.5"/>
		<rect x="89.2" y="625.9" class="st2" width="2.1" height="10.5"/>
		<rect x="82" y="625.9" class="st2" width="2.1" height="10.5"/>
		<rect x="60.7" y="638.6" class="st1" width="2.1" height="17.6"/>
		<rect x="89.1" y="638.6" class="st1" width="2.1" height="17.6"/>
		<rect x="74.9" y="638.6" class="st2" width="2.1" height="10.5"/>
		<rect x="124.7" y="158" class="st3" width="240.4" height="100.4"/>
		<rect x="124.7" y="47.4" class="st3" width="411.4" height="84.4"/>
		<polygon class="st3" points="637.4,148.6 637.4,560 552.8,560 552.8,147.6 636.3,147.6 		"/>
		<path class="st0" d="M45.7,350.8l-1.6-0.2c0.7-1.1,1.1-2.4,1.1-3.8c0-1.6-0.9-2.9-2.5-2.9s-2.1,1.4-3.2,3.6c-0.9,1.7-1.8,3-3.9,3
			c-2.5,0-3.8-1.9-3.8-4.4c-0.1-1.2,0.3-2.5,0.9-3.5l1.6,0.3c-0.7,0.9-1,2-1,3.2c0,1.7,1,2.8,2.2,2.8s1.8-0.9,2.8-2.7s2-4,4.4-4
			s4,2,4,4.6C46.7,348.2,46.4,349.6,45.7,350.8z"/>
		<path class="st0" d="M46.4,331.7c0.1,0.5,0.2,1.1,0.2,1.6c0,0.8-0.4,1.2-1.2,1.3c0.9,0.8,1.4,1.8,1.4,3c0,1.5-0.8,2.8-2.4,2.8
			c-2.7,0-3.2-3.6-3.6-5.7h-1.4c-1.1,0-1.8,0.3-1.8,1.9c0,1.1,0.3,2.2,0.8,3.2l-1.2,0.2c-0.6-1.2-1-2.6-1-4c0-2.1,1.1-3,3-3h5.7
			c0.6,0,0.7-0.4,0.7-0.8v-0.5L46.4,331.7z M45.4,337.5c-0.1-1.1-0.7-2.1-1.5-2.8h-1.9c0.4,2.3,1,4.1,2.4,4.1
			C44.9,338.7,45.4,338.2,45.4,337.5C45.4,337.5,45.4,337.5,45.4,337.5L45.4,337.5z"/>
		<path class="st0" d="M36.4,329.4l-0.3-1.6h1.4c-0.9-0.9-1.4-2.2-1.4-3.5c0-2.2,1.4-3.3,3.5-3.3h6.9v1.6h-6.6
			c-1.1-0.1-2.1,0.7-2.2,1.8c0,0.1,0,0.3,0,0.4c0.1,1.2,0.6,2.3,1.4,3h7.4v1.6L36.4,329.4z"/>
		<path class="st0" d="M32.2,312.8v-2l11.6-5l-11.6-5.1v-1.9h14.2v1.7H35.7l10.7,4.8v1.1l-10.8,4.8h10.8v1.7L32.2,312.8z"/>
		<path class="st0" d="M46.4,287.5c0.1,0.5,0.2,1.1,0.2,1.6c0,0.8-0.4,1.2-1.2,1.3c0.9,0.8,1.4,1.8,1.4,3c0,1.5-0.8,2.8-2.4,2.8
			c-2.7,0-3.2-3.6-3.6-5.7h-1.4c-1.1,0-1.8,0.3-1.8,1.9c0,1.1,0.3,2.2,0.8,3.2l-1.2,0.3c-0.6-1.2-1-2.6-1-4c0-2,1.1-3,3-3h5.7
			c0.6,0,0.7-0.4,0.7-0.8v-0.5L46.4,287.5z M45.4,293.3c-0.1-1.1-0.7-2.1-1.5-2.8h-1.9c0.4,2.3,1,4.1,2.4,4.1
			C44.9,294.5,45.4,294,45.4,293.3C45.4,293.4,45.4,293.3,45.4,293.3L45.4,293.3z"/>
		<path class="st0" d="M37.8,279.7c0,0.2-0.1,0.4-0.1,0.6c0,1,0.5,1.9,2,3.3h6.7v1.6h-10l-0.3-1.6h2.1c-1.1-1-2.1-1.9-2.1-3.2
			c0-0.3,0.1-0.6,0.3-0.9L37.8,279.7z"/>
		<path class="st0" d="M36.4,278.6v-1.7l-2.7-0.5v-1.1h2.7V272h1.3v3.2h6.1c1,0,1.5-0.4,1.5-1.3c0-0.6-0.2-1.3-0.5-1.9l1.2-0.2
			c0.4,0.7,0.6,1.6,0.6,2.4c0,1.8-0.9,2.6-2.9,2.6h-6.1v1.7L36.4,278.6z"/>
		<path class="st0" d="M34.2,269.4l-3.6-1.9l0.4-1.8l3.5,3L34.2,269.4z M36.4,269.5l-0.3-1.6h10.3v1.6H36.4z"/>
		<path class="st0" d="M36.4,264.8l-0.3-1.6h1.4c-0.9-0.9-1.4-2.2-1.4-3.5c0-2.2,1.4-3.3,3.5-3.3h6.9v1.6h-6.6
			c-1.1-0.1-2.1,0.7-2.2,1.8c0,0.1,0,0.3,0,0.4c0.1,1.2,0.6,2.2,1.4,3h7.4v1.6L36.4,264.8z"/>
		<path class="st0" d="M311.5,634.9h8v1.4h-6.3v4.6h5.1v1.4h-5.1v5.3h6.4v1.4h-8.1L311.5,634.9z"/>
		<path class="st0" d="M322.2,639.1l1.6-0.3v1.4c0.9-0.9,2.2-1.4,3.5-1.4c2.2,0,3.3,1.4,3.3,3.5v6.9H329v-6.6
			c0.1-1.1-0.7-2.1-1.8-2.2c-0.1,0-0.3,0-0.4,0c-1.1,0.1-2.2,0.6-3,1.4v7.4h-1.6L322.2,639.1z"/>
		<path class="st0" d="M339.1,640.5c-0.2,0-0.4-0.1-0.6-0.1c-1,0-1.9,0.5-3.3,2v6.7h-1.6v-10l1.6-0.3v2.1c1-1.1,1.9-2.1,3.1-2.1
			c0.3,0,0.7,0.1,0.9,0.3L339.1,640.5z"/>
		<path class="st0" d="M341,635.5c0-0.7,0.5-1.2,1.1-1.2c0.7,0,1.2,0.5,1.2,1.1s-0.5,1.2-1.1,1.2c0,0,0,0,0,0
			C341.5,636.6,341,636.1,341,635.5z M341.4,639.1l1.6-0.3v10.3h-1.6V639.1z"/>
		<path class="st0" d="M352.9,653.8v-5.7c-0.8,0.9-2,1.3-3.2,1.3c-2.6,0-4.1-2.2-4.1-5.2c0-3.4,2-5.4,4.9-5.4c1.4,0,2.8,0.4,4.1,1
			v14L352.9,653.8z M352.9,646.5v-5.7c-0.7-0.4-1.6-0.6-2.4-0.6c-2.2,0-3.3,1.7-3.3,3.9s0.8,3.9,2.8,3.9
			C351.1,647.9,352.2,647.4,352.9,646.5z"/>
		<path class="st0" d="M365.7,649.1h-1.6V648c-0.9,0.9-2.2,1.4-3.5,1.4c-2,0-3.2-1.2-3.2-3.7V639h1.6v6.7c0,1.6,0.8,2.2,1.9,2.2
			c1.2-0.1,2.3-0.6,3.1-1.5V639h1.6L365.7,649.1z"/>
		<path class="st0" d="M376.7,648.4c-1,0.7-2.3,1-3.5,1c-2.8,0-4.9-1.7-4.9-5.1s2.1-5.5,4.8-5.5c2.5,0,3.8,1.3,3.8,3.8
			c0,0.4,0,0.9-0.1,1.3h-6.9v0.4c0,2.7,1.6,3.7,3.6,3.7c1.1,0,2.1-0.3,3-0.9L376.7,648.4z M375.1,642.6c0-0.1,0-0.3,0-0.5
			c0.1-1-0.6-2-1.6-2.1c-0.2,0-0.3,0-0.5,0c-1.5,0-2.8,1.1-3,2.6H375.1z"/>
		<path class="st0" d="M383.9,642.2c0-4.8,2.9-7.6,7.1-7.6c1.3,0,2.7,0.3,3.9,0.8l-0.3,1.6c-1.1-0.6-2.3-0.9-3.5-0.9
			c-3.5,0-5.4,2.3-5.4,6c0,3.5,2.2,5.6,5.6,5.6c1.2,0,2.5-0.3,3.6-0.9l0.2,1.5c-1.3,0.6-2.7,0.9-4.1,0.9
			C386.6,649.4,383.9,646.6,383.9,642.2z"/>
		<path class="st0" d="M405.5,649.1c-0.5,0.1-1.1,0.2-1.6,0.2c-0.8,0-1.2-0.4-1.3-1.3c-0.8,0.9-1.8,1.4-3,1.4
			c-1.5,0-2.8-0.8-2.8-2.4c0-2.7,3.6-3.2,5.7-3.6V642c0-1.1-0.3-1.8-1.9-1.8c-1.1,0.1-2.2,0.3-3.2,0.8l-0.2-1.2c1.2-0.6,2.6-1,4-1
			c2,0,3,1.1,3,3v5.8c0,0.6,0.4,0.7,0.8,0.7h0.5L405.5,649.1z M399.8,648.1c1.1-0.1,2.1-0.7,2.8-1.5v-1.9c-2.3,0.4-4.1,1-4.1,2.4
			C398.5,647.6,399.1,648.1,399.8,648.1C399.7,648.1,399.7,648.1,399.8,648.1L399.8,648.1z"/>
		<path class="st0" d="M413.4,640.5c-0.2,0-0.4-0.1-0.6-0.1c-1,0-1.9,0.5-3.3,2v6.7h-1.6v-10l1.6-0.3v2.1c1-1.1,1.9-2.1,3.2-2.1
			c0.3,0,0.7,0.1,0.9,0.3L413.4,640.5z"/>
		<path class="st0" d="M424.5,643.9c0,3.7-2,5.5-4.9,5.5c-1,0-2-0.3-2.9-0.7l-0.6,0.7h-0.6v-15.3l1.6-0.4v6.4c0.9-0.9,2-1.4,3.2-1.4
			C423,638.8,424.5,641,424.5,643.9z M417.2,641.7v5.6c0.7,0.5,1.6,0.7,2.5,0.7c2,0,3.2-1.3,3.2-4.1c0-2.4-1-3.7-2.8-3.7
			C419,640.3,417.9,640.8,417.2,641.7z"/>
		<path class="st0" d="M426.5,644.1c0-3,1.6-5.3,4.8-5.3s4.8,2.3,4.8,5.3c0,3.2-1.9,5.3-4.8,5.3S426.5,647.3,426.5,644.1z
			 M434.4,644.1c0-2.5-1.2-4-3.1-4s-3.1,1.5-3.1,4s1.1,4,3.1,4S434.4,646.4,434.4,644.1z M429.5,636.9l1.9-3.6l1.8,0.4l-3,3.5
			L429.5,636.9z"/>
		<rect x="125" y="158.3" class="st4" width="80.5" height="100.8"/>
		<path class="st2" d="M205.1,158.7v100.2h-79.9V158.7H205.1 M205.8,158h-81.2v101.5h81.2L205.8,158L205.8,158z"/>
		<path class="st2" d="M152.5,198.2h-6l-2.4,4.4H142l8.8-15.6h1.2l3.6,15.6h-2.1L152.5,198.2z M147.4,196.6h4.8l-1.3-6.5
			L147.4,196.6z"/>
		<path class="st2" d="M166.2,200.2c-0.1,0.3-0.1,0.6-0.1,0.9c0,0.5,0.6,0.5,1.3,0.5v1c-0.6,0.2-1.3,0.3-1.9,0.3
			c-0.8,0-1.1-0.3-1.1-0.9c0-0.2,0.1-0.7,0.1-1.1c-0.9,1.1-2.2,1.9-3.6,2c-1.5,0.1-2.8-1-2.9-2.5c0-0.1,0-0.3,0-0.4
			c0-0.6,0-1.2,0.1-1.7l0.7-4.2c0.1-0.3,0.1-0.7,0.1-1c0-0.5-0.5-0.6-1.2-0.6l0.2-1c0.6-0.2,1.3-0.3,2-0.3c0.7,0,0.9,0.3,0.9,0.8
			c0,0.6-0.1,1.2-0.2,1.8l-0.7,4.4c-0.1,0.6-0.2,1.1-0.2,1.7c0,0.8,0.6,1.5,1.3,1.5c0.1,0,0.1,0,0.2,0c1.4,0,2.9-1.5,3.7-2.8l1.2-7
			h1.7L166.2,200.2z"/>
		<path class="st2" d="M171.1,202.9c-0.8,0-1-0.3-1-0.8c0-0.5,0.1-1,0.2-1.4l2.6-14.5l1.7-0.4l-2.6,14.4c-0.1,0.3-0.1,0.6-0.1,0.9
			c0,0.5,0.5,0.5,1.3,0.5v1C172.5,202.8,171.8,202.9,171.1,202.9z"/>
		<path class="st2" d="M181.9,201c-0.9,1.1-2.1,1.8-3.6,1.9c-2,0-3-1.6-3-4c0-4.1,2.3-7.7,6-7.7c1.3,0,2.6,0.4,3.6,1.1l-1.3,7.6
			c-0.1,0.4-0.1,0.8-0.2,1.2c0,0.4,0.3,0.5,1.3,0.6v1c-0.6,0.2-1.3,0.3-2,0.3c-0.8,0-1-0.3-1-0.9C181.8,201.7,181.8,201.3,181.9,201
			z M182.2,198.7l0.9-5.5c-0.6-0.3-1.2-0.5-1.9-0.5c-2.4,0-4.2,2.7-4.2,6.1c0,1.5,0.5,2.6,1.6,2.6S181.4,200,182.2,198.7
			L182.2,198.7z"/>
		<path class="st2" d="M159.5,206.2h3.7l-3.4,19.6h-3.7L159.5,206.2z M165.8,215.6l4.1,6.9c0.4,0.6,0.6,0.9,1.3,0.9h0.6v2.4
			c-0.8,0.1-1.7,0.2-2.5,0.2c-1.3,0-1.9-0.7-2.6-1.8l-4.8-8.6l7.9-9.4h4.3L165.8,215.6z"/>
		<rect x="124.9" y="47.6" class="st4" width="75.9" height="83.8"/>
		<path class="st2" d="M200.5,47.9v83.2h-75.3V47.9H200.5 M201.1,47.4h-76.5v84.4h76.5V47.4z"/>
		<path class="st2" d="M151.1,79.8h-6l-2.4,4.4h-2.2l8.8-15.6h1.2l3.6,15.6H152L151.1,79.8z M146,78.2h4.8l-1.3-6.5L146,78.2z"/>
		<path class="st2" d="M164.9,81.9c-0.1,0.3-0.1,0.6-0.1,0.9c0,0.5,0.6,0.5,1.2,0.5v1c-0.6,0.2-1.3,0.3-1.9,0.3
			c-0.8,0-1.1-0.3-1.1-0.9c0-0.2,0.1-0.7,0.1-1.1c-0.9,1.1-2.2,1.9-3.6,2c-1.5,0.1-2.8-1-2.9-2.5c0-0.1,0-0.3,0-0.4
			c0-0.6,0-1.2,0.1-1.7l0.7-4.2c0-0.3,0.1-0.8,0.1-1c0-0.5-0.5-0.6-1.2-0.6l0.2-1c0.6-0.2,1.3-0.3,2-0.3c0.7,0,0.9,0.3,0.9,0.8
			c0,0.6-0.1,1.2-0.2,1.7l-0.7,4.4c-0.1,0.6-0.2,1.1-0.2,1.7c0,0.8,0.6,1.5,1.3,1.5c0.1,0,0.1,0,0.2,0c1.4,0,2.9-1.5,3.7-2.8l1.2-7
			h1.7L164.9,81.9z"/>
		<path class="st2" d="M169.8,84.6c-0.8,0-1-0.3-1-0.8c0-0.5,0.1-1,0.2-1.4l2.6-14.5l1.7-0.4l-2.6,14.4c-0.1,0.3-0.1,0.7-0.1,1
			c0,0.5,0.5,0.5,1.3,0.5v1C171.1,84.5,170.4,84.6,169.8,84.6z"/>
		<path class="st2" d="M180.6,82.7c-0.9,1.1-2.2,1.8-3.6,1.9c-2,0-3-1.6-3-4c0-4.2,2.3-7.7,6-7.7c1.3,0,2.6,0.4,3.6,1.1l-1.3,7.6
			c-0.1,0.6-0.2,1-0.2,1.2c0,0.4,0.3,0.5,1.2,0.6v1c-0.6,0.2-1.3,0.3-1.9,0.3c-0.8,0-1-0.3-1-0.9C180.5,83.4,180.5,83,180.6,82.7z
			 M180.9,80.3l0.9-5.5c-0.6-0.3-1.2-0.5-1.9-0.5c-2.4,0-4.2,2.7-4.2,6.1c0,1.5,0.5,2.6,1.6,2.6S180.1,81.6,180.9,80.3z"/>
		<path class="st2" d="M159.8,87.9h3.7l-2.8,16.2h8l-0.6,3.4h-11.7L159.8,87.9z"/>
		<rect x="206.1" y="158.3" class="st4" width="80.5" height="100.8"/>
		<path class="st2" d="M286.3,158.7v100.2h-79.9V158.7H286.3 M287,158h-81.2v101.5H287V158z"/>
		<path class="st2" d="M232.3,198.2h-6l-2.4,4.4h-2.2l8.8-15.6h1.2l3.6,15.6h-2.1L232.3,198.2z M227.2,196.6h4.8l-1.3-6.5
			L227.2,196.6z"/>
		<path class="st2" d="M246.1,200.2c-0.1,0.3-0.1,0.6-0.1,0.9c0,0.5,0.6,0.5,1.2,0.5v1c-0.6,0.2-1.3,0.3-1.9,0.3
			c-0.8,0-1.1-0.3-1.1-0.9c0-0.2,0.1-0.7,0.1-1.1c-0.9,1.1-2.2,1.9-3.6,2c-1.5,0.1-2.8-1-2.9-2.5c0-0.1,0-0.3,0-0.4
			c0-0.6,0.1-1.2,0.1-1.7l0.7-4.2c0-0.3,0.1-0.8,0.1-1c0-0.5-0.5-0.6-1.3-0.6l0.2-1c0.6-0.2,1.3-0.3,2-0.3c0.7,0,0.9,0.3,0.9,0.8
			c0,0.6-0.1,1.2-0.2,1.8l-0.8,4.4c-0.1,0.6-0.1,1.1-0.2,1.7c0,0.8,0.6,1.5,1.3,1.5c0.1,0,0.1,0,0.2,0c1.4,0,2.9-1.5,3.7-2.8l1.2-7
			h1.7L246.1,200.2z"/>
		<path class="st2" d="M250.9,202.9c-0.8,0-1-0.3-1-0.8c0-0.5,0.1-1,0.2-1.4l2.6-14.5l1.7-0.4l-2.6,14.4c-0.1,0.3-0.1,0.6-0.1,0.9
			c0,0.5,0.5,0.5,1.3,0.5v1C252.3,202.8,251.6,202.9,250.9,202.9z"/>
		<path class="st2" d="M261.8,201c-0.9,1.1-2.1,1.8-3.5,1.9c-2,0-3-1.6-3-4c0-4.1,2.3-7.7,6-7.7c1.3,0,2.6,0.4,3.6,1.1l-1.3,7.6
			c-0.1,0.6-0.2,1-0.2,1.2c0,0.4,0.3,0.5,1.2,0.6v1c-0.6,0.2-1.3,0.3-2,0.3c-0.8,0-1-0.3-1-0.9C261.6,201.7,261.7,201.3,261.8,201z
			 M262,198.7l0.9-5.5c-0.6-0.3-1.2-0.5-1.9-0.5c-2.4,0-4.2,2.7-4.2,6.1c0,1.5,0.5,2.6,1.6,2.6S261.2,200,262,198.7L262,198.7z"/>
		<path class="st2" d="M244.3,206.2h3.7l-3.4,19.6h-3.7L244.3,206.2z"/>
		<rect x="287.3" y="158.3" class="st4" width="80.5" height="100.8"/>
		<path class="st2" d="M367.5,158.7v100.2h-79.9V158.7H367.5 M368.1,158H287v101.5h81.2L368.1,158L368.1,158z"/>
		<rect x="201.4" y="47.6" class="st4" width="75.9" height="83.8"/>
		<path class="st2" d="M277,47.9v83.2h-75.3V47.9H277 M277.6,47.4h-76.5v84.4h76.5L277.6,47.4L277.6,47.4z"/>
		<path class="st2" d="M227.6,79.8h-6l-2.4,4.4H217l8.8-15.6h1.2l3.6,15.6h-2.1L227.6,79.8z M222.5,78.2h4.8l-1.3-6.5L222.5,78.2z"
			/>
		<path class="st2" d="M241.4,81.9c-0.1,0.3-0.1,0.6-0.1,0.9c0,0.5,0.6,0.5,1.2,0.5v1c-0.6,0.2-1.3,0.3-1.9,0.3
			c-0.8,0-1.1-0.3-1.1-0.9c0-0.2,0.1-0.7,0.1-1.1c-0.9,1.1-2.2,1.9-3.6,2c-1.5,0.1-2.8-1-2.9-2.5c0-0.1,0-0.3,0-0.4
			c0-0.6,0-1.2,0.1-1.7l0.7-4.3c0.1-0.3,0.1-0.7,0.1-1c0-0.5-0.5-0.6-1.3-0.6l0.2-1c0.6-0.2,1.3-0.3,2-0.3c0.7,0,0.9,0.3,0.9,0.8
			c0,0.6-0.1,1.2-0.2,1.8l-0.8,4.5c-0.1,0.6-0.2,1.1-0.2,1.7c0,0.8,0.6,1.5,1.3,1.5c0.1,0,0.1,0,0.2,0c1.4,0,2.9-1.5,3.7-2.8l1.2-7
			h1.7L241.4,81.9z"/>
		<path class="st2" d="M246.2,84.6c-0.8,0-1.1-0.3-1.1-0.8c0-0.5,0.1-1,0.2-1.4l2.5-14.5l1.7-0.4l-2.6,14.4c-0.1,0.3-0.1,0.7-0.1,1
			c0,0.5,0.5,0.5,1.3,0.5v1C247.6,84.5,246.9,84.6,246.2,84.6z"/>
		<path class="st2" d="M257,82.7c-0.9,1.1-2.1,1.8-3.6,1.9c-2,0-3-1.6-3-4c0-4.2,2.3-7.7,6-7.7c1.3,0,2.5,0.4,3.6,1.1l-1.3,7.6
			c-0.1,0.6-0.2,1-0.2,1.2c0,0.4,0.3,0.5,1.2,0.6v1c-0.6,0.2-1.3,0.3-2,0.3c-0.8,0-1-0.3-1-0.9C257,83.4,257,83,257,82.7z
			 M257.3,80.3l0.9-5.5c-0.6-0.3-1.2-0.5-1.9-0.5c-2.4,0-4.2,2.7-4.2,6.1c0,1.5,0.5,2.6,1.6,2.6S256.5,81.6,257.3,80.3L257.3,80.3z"
			/>
		<path class="st2" d="M233.1,108.2c2.2-1,3.4-2,4-5.3l2.6-14.9h3.6l-2.7,15.1c-0.9,4.9-3.2,6.8-6.5,7.8L233.1,108.2z"/>
		<rect x="277.8" y="47.6" class="st4" width="75.9" height="83.8"/>
		<path class="st2" d="M353.4,47.9v83.2h-75.3V47.9H353.4 M354,47.4h-76.5v84.4H354L354,47.4L354,47.4z"/>
		<path class="st2" d="M304,79.8h-6l-2.4,4.4h-2.2l8.8-15.6h1.2l3.6,15.6h-2.1L304,79.8z M299,78.2h4.8l-1.3-6.5L299,78.2z"/>
		<path class="st2" d="M317.8,81.9c-0.1,0.3-0.1,0.6-0.1,0.9c0,0.5,0.5,0.5,1.2,0.5v1c-0.6,0.2-1.3,0.3-1.9,0.3
			c-0.8,0-1.1-0.3-1.1-0.9c0-0.2,0.1-0.7,0.1-1.1c-0.9,1.1-2.2,1.9-3.6,2c-1.5,0.1-2.8-1-2.9-2.5c0-0.1,0-0.3,0-0.4
			c0-0.6,0.1-1.2,0.1-1.7l0.7-4.2c0-0.3,0.1-0.8,0.1-1c0-0.5-0.5-0.6-1.2-0.6l0.2-1c0.6-0.2,1.3-0.3,2-0.3c0.7,0,0.9,0.3,0.9,0.8
			c0,0.6-0.1,1.2-0.2,1.8l-0.8,4.4c-0.1,0.6-0.2,1.1-0.2,1.7c0,0.8,0.6,1.5,1.3,1.5c0.1,0,0.1,0,0.2,0c1.4,0,2.9-1.5,3.7-2.8l1.2-7
			h1.7L317.8,81.9z"/>
		<path class="st2" d="M322.7,84.6c-0.8,0-1-0.3-1-0.8c0-0.5,0.1-1,0.2-1.4l2.5-14.5l1.7-0.4l-2.5,14.4c-0.1,0.3-0.1,0.7-0.1,1
			c0,0.5,0.5,0.5,1.3,0.5v1C324,84.5,323.4,84.6,322.7,84.6z"/>
		<path class="st2" d="M333.5,82.7c-0.9,1.1-2.1,1.8-3.5,1.9c-2,0-3-1.6-3-4c0-4.2,2.3-7.7,6-7.7c1.3,0,2.5,0.4,3.5,1.1l-1.3,7.6
			c-0.1,0.6-0.2,1-0.2,1.2c0,0.4,0.3,0.5,1.2,0.6v1c-0.6,0.2-1.3,0.3-2,0.3c-0.8,0-1-0.3-1-0.9C333.4,83.4,333.4,83,333.5,82.7z
			 M333.8,80.3l0.9-5.5c-0.6-0.3-1.2-0.5-1.9-0.5c-2.4,0-4.2,2.7-4.2,6.1c0,1.5,0.5,2.6,1.6,2.6S333,81.6,333.8,80.3z"/>
		<path class="st2" d="M320.4,98.8h-8.7l-1.5,8.7h-3.7l3.4-19.6h3.7l-1.3,7.5h8.7l1.3-7.5h3.7l-3.4,19.6h-3.7L320.4,98.8z"/>
		<rect x="354.3" y="47.6" class="st4" width="75.9" height="83.8"/>
		<path class="st2" d="M429.9,47.9v83.2h-75.3V47.9H429.9 M430.5,47.4H354v84.4h76.5L430.5,47.4L430.5,47.4z"/>
		<path class="st2" d="M380.5,79.8h-6l-2.4,4.4H370l8.8-15.6h1.2l3.5,15.6h-2.1L380.5,79.8z M375.4,78.2h4.8l-1.3-6.5L375.4,78.2z"
			/>
		<path class="st2" d="M394.3,81.9c-0.1,0.3-0.1,0.6-0.1,0.9c0,0.5,0.6,0.5,1.3,0.5v1c-0.6,0.2-1.3,0.3-1.9,0.3
			c-0.8,0-1.1-0.3-1.1-0.9c0-0.2,0.1-0.7,0.1-1.1c-0.9,1.1-2.2,1.9-3.6,2c-1.5,0.1-2.8-1-2.9-2.5c0-0.1,0-0.3,0-0.4
			c0-0.6,0-1.2,0.1-1.7l0.7-4.2c0.1-0.3,0.1-0.7,0.1-1c0-0.5-0.5-0.6-1.2-0.6l0.2-1c0.6-0.2,1.3-0.3,2-0.3c0.7,0,0.9,0.3,0.9,0.8
			c0,0.6-0.1,1.2-0.2,1.8l-0.7,4.4c-0.1,0.6-0.2,1.1-0.2,1.7c0,0.8,0.6,1.5,1.3,1.5c0.1,0,0.1,0,0.2,0c1.4,0,2.9-1.5,3.7-2.8l1.2-7
			h1.7L394.3,81.9z"/>
		<path class="st2" d="M399.1,84.6c-0.8,0-1-0.3-1-0.8c0-0.5,0.1-1,0.2-1.4l2.5-14.5l1.7-0.4L400,81.8c-0.1,0.3-0.1,0.7-0.1,1
			c0,0.5,0.5,0.5,1.3,0.5v1C400.5,84.5,399.8,84.6,399.1,84.6z"/>
		<path class="st2" d="M410,82.7c-0.9,1.1-2.1,1.8-3.5,1.9c-2,0-3-1.6-3-4c0-4.2,2.3-7.7,6-7.7c1.3,0,2.5,0.4,3.5,1.1l-1.3,7.6
			c-0.1,0.4-0.1,0.8-0.2,1.2c0,0.4,0.3,0.5,1.3,0.6v1c-0.6,0.2-1.3,0.3-2,0.3c-0.8,0-1-0.3-1-0.9C409.9,83.4,409.9,83,410,82.7z
			 M410.3,80.3l0.9-5.5c-0.6-0.3-1.2-0.5-1.9-0.5c-2.4,0-4.2,2.7-4.2,6.1c0,1.5,0.5,2.6,1.6,2.6S409.4,81.6,410.3,80.3L410.3,80.3z"
			/>
		<path class="st2" d="M389.2,87.9h11.2l-0.6,3.4h-7.5l-0.8,4.4h6.1l-0.6,3.3h-6.1l-1.5,8.5h-3.8L389.2,87.9z"/>
		<polygon class="st5" points="636.3,147.6 552.8,147.6 552.8,560 526.5,560 526.5,287.2 426.3,287.2 426.3,286.4 394.8,258.4 
			365.1,258.4 365.1,158 124.7,158 124.7,131.7 536.1,131.7 536.1,47.4 		"/>
		<rect x="426.3" y="287.2" class="st3" width="100.2" height="272.8"/>
		<rect x="553.1" y="459.1" class="st4" width="83.7" height="100.8"/>
		<path class="st2" d="M636.4,459.4v100.2h-83V459.4H636.4 M637.1,458.7h-84.3v101.5h84.3V458.7z"/>
		<path class="st2" d="M583.2,498.9h-6l-2.4,4.5h-2.2l8.8-15.5h1.2l3.5,15.5H584L583.2,498.9z M578.1,497.3h4.8l-1.3-6.5
			L578.1,497.3z"/>
		<path class="st2" d="M597,500.9c-0.1,0.3-0.1,0.6-0.1,0.9c0,0.5,0.6,0.5,1.3,0.5v1c-0.6,0.2-1.3,0.3-1.9,0.3
			c-0.8,0-1.1-0.3-1.1-0.9c0-0.2,0.1-0.7,0.1-1.1c-0.9,1.1-2.2,1.9-3.6,2c-1.5,0.1-2.8-1-2.9-2.5c0-0.1,0-0.2,0-0.4
			c0-0.6,0-1.2,0.1-1.7l0.7-4.2c0.1-0.3,0.1-0.7,0.1-1c0-0.5-0.5-0.5-1.2-0.6l0.2-1c0.6-0.2,1.3-0.3,2-0.3c0.7,0,0.9,0.3,0.9,0.8
			c0,0.6-0.1,1.2-0.2,1.7l-0.7,4.4c-0.1,0.6-0.2,1.1-0.2,1.7c0,0.8,0.6,1.5,1.3,1.5c0.1,0,0.1,0,0.2,0c1.4,0,2.9-1.5,3.7-2.8l1.2-7
			h1.7L597,500.9z"/>
		<path class="st2" d="M601.8,503.7c-0.8,0-1-0.3-1-0.8c0-0.5,0.1-1,0.2-1.4l2.5-14.5l1.7-0.4l-2.5,14.4c-0.1,0.3-0.1,0.7-0.1,1
			c0,0.5,0.5,0.5,1.3,0.5v1C603.2,503.6,602.5,503.6,601.8,503.7z"/>
		<path class="st2" d="M612.6,501.7c-0.8,1.1-2.1,1.9-3.5,2c-2,0-3-1.6-3-4c0-4.2,2.3-7.7,6-7.7c1.3,0,2.5,0.3,3.6,1.1l-1.3,7.6
			c-0.1,0.6-0.2,1-0.2,1.2c0,0.4,0.3,0.5,1.2,0.6v1c-0.6,0.2-1.3,0.3-2,0.3c-0.8,0-1-0.3-1-0.9C612.5,502.4,612.6,502.1,612.6,501.7
			z M612.9,499.4l0.9-5.5c-0.6-0.3-1.2-0.5-1.9-0.5c-2.4,0-4.2,2.7-4.2,6.1c0,1.5,0.5,2.6,1.7,2.6S612.1,500.7,612.9,499.4z"/>
		<path class="st2" d="M587.2,518.4c0-6.5,4-11.8,11.4-11.8c2,0,3.9,0.4,5.7,1.2l-1.1,3.2c-1.3-0.7-2.8-1.1-4.4-1.2
			c-4.9,0-7.6,3.8-7.6,8.4c0,3.6,2,5.5,5.5,5.5c1.8-0.1,3.5-0.5,5.2-1.2l0.4,3.1c-2.1,0.9-4.3,1.3-6.5,1.3
			C590.1,527,587.2,523.8,587.2,518.4z"/>
		<rect x="553.1" y="358.9" class="st4" width="83.7" height="100.8"/>
		<path class="st2" d="M636.4,359.2v100.2h-83V359.2H636.4 M637.1,358.5h-84.3V460h84.3V358.5z"/>
		<path class="st2" d="M583.2,398.7h-6l-2.4,4.5h-2.2l8.8-15.5h1.2l3.5,15.5H584L583.2,398.7z M578.1,397.1h4.8l-1.3-6.5
			L578.1,397.1z"/>
		<path class="st2" d="M597,400.7c-0.1,0.3-0.1,0.6-0.1,0.9c0,0.5,0.6,0.5,1.3,0.5v1c-0.6,0.2-1.3,0.3-1.9,0.3
			c-0.8,0-1.1-0.3-1.1-0.9c0-0.2,0.1-0.7,0.1-1.1c-0.9,1.1-2.2,1.9-3.6,2c-1.5,0.1-2.8-1-2.9-2.5c0-0.1,0-0.3,0-0.4
			c0-0.6,0-1.2,0.1-1.8l0.7-4.2c0-0.3,0.1-0.8,0.1-1c0-0.5-0.5-0.6-1.2-0.6l0.2-1c0.6-0.2,1.3-0.3,2-0.3c0.7,0,0.9,0.3,0.9,0.8
			c0,0.6-0.1,1.2-0.2,1.7l-0.7,4.4c-0.1,0.6-0.2,1.1-0.2,1.7c-0.1,0.8,0.5,1.5,1.3,1.5c0.1,0,0.1,0,0.2,0c1.4,0,2.9-1.5,3.7-2.8
			l1.2-7h1.7L597,400.7z"/>
		<path class="st2" d="M601.8,403.5c-0.8,0-1-0.3-1-0.8c0-0.5,0.1-1,0.2-1.4l2.5-14.5l1.7-0.4l-2.5,14.4c-0.1,0.3-0.1,0.6-0.1,1
			c0,0.5,0.5,0.5,1.3,0.5v1C603.2,403.3,602.5,403.4,601.8,403.5z"/>
		<path class="st2" d="M612.6,401.5c-0.9,1.1-2.1,1.8-3.5,2c-2,0-3-1.6-3-4c0-4.1,2.3-7.7,6-7.7c1.3,0,2.6,0.4,3.6,1.1l-1.3,7.6
			c-0.1,0.5-0.2,1-0.2,1.2c0,0.4,0.3,0.5,1.2,0.6v1c-0.6,0.2-1.3,0.3-2,0.3c-0.8,0-1-0.3-1-0.9C612.5,402.2,612.6,401.8,612.6,401.5
			z M612.9,399.2l0.9-5.5c-0.6-0.3-1.2-0.5-1.9-0.5c-2.4,0-4.2,2.7-4.2,6.1c0,1.5,0.5,2.6,1.7,2.6S612.1,400.5,612.9,399.2z"/>
		<path class="st2" d="M590.6,406.8h6.2c3.9,0,5.7,1.5,5.7,4.4c0,2.3-1.6,4.2-3.9,4.6c2.1,0.2,3.6,2.1,3.5,4.2
			c0,4.3-3.4,6.4-7.8,6.4h-7.1L590.6,406.8z M591.5,423h2.6c2.3,0,3.9-0.8,3.9-2.9c0-1.6-1.2-2.4-3.6-2.4h-2L591.5,423z M593,414.5
			h1.7c2.1,0,3.8-0.7,3.8-2.6c0-1.2-0.8-1.7-2.3-1.7h-2.4L593,414.5z"/>
		<rect x="553.1" y="258.6" class="st4" width="83.7" height="100.8"/>
		<path class="st2" d="M636.4,259v100.2h-83V259H636.4 M637.1,258.3h-84.3v101.5h84.3V258.3L637.1,258.3z"/>
		<path class="st2" d="M583.2,298.5h-6l-2.4,4.5h-2.2l8.8-15.5h1.2l3.5,15.5H584L583.2,298.5z M578.1,296.9h4.8l-1.3-6.5
			L578.1,296.9z"/>
		<path class="st2" d="M597,300.5c-0.1,0.3-0.1,0.6-0.1,0.9c0,0.5,0.6,0.5,1.3,0.5v1c-0.6,0.2-1.3,0.3-1.9,0.3
			c-0.8,0-1.1-0.3-1.1-0.9c0-0.2,0.1-0.7,0.1-1.1c-0.9,1.1-2.2,1.9-3.6,2c-1.5,0.1-2.8-1-2.9-2.5c0-0.1,0-0.2,0-0.4
			c0-0.6,0-1.2,0.1-1.7l0.7-4.2c0.1-0.3,0.1-0.7,0.1-1c0-0.5-0.5-0.5-1.2-0.6l0.2-1c0.6-0.2,1.3-0.3,2-0.3c0.7,0,0.9,0.3,0.9,0.8
			c0,0.6-0.1,1.2-0.2,1.7l-0.7,4.4c-0.1,0.6-0.2,1.1-0.2,1.7c0,0.8,0.6,1.5,1.3,1.5c0.1,0,0.1,0,0.2,0c1.4,0,2.9-1.5,3.7-2.8l1.2-7
			h1.7L597,300.5z"/>
		<path class="st2" d="M601.8,303.2c-0.8,0-1-0.3-1-0.8c0-0.5,0.1-1,0.2-1.4l2.5-14.5l1.7-0.4l-2.5,14.4c-0.1,0.3-0.1,0.6-0.1,1
			c0,0.5,0.5,0.5,1.3,0.5v1C603.2,303.1,602.5,303.2,601.8,303.2z"/>
		<path class="st2" d="M612.6,301.3c-0.9,1.1-2.1,1.8-3.5,2c-2,0-3-1.6-3-4c0-4.2,2.3-7.7,6-7.7c1.3,0,2.5,0.3,3.6,1.1l-1.3,7.6
			c-0.1,0.6-0.2,1-0.2,1.2c0,0.4,0.3,0.5,1.2,0.6v1c-0.6,0.2-1.3,0.3-2,0.3c-0.8,0-1-0.3-1-0.9C612.5,302,612.6,301.6,612.6,301.3z
			 M612.9,299l0.9-5.5c-0.6-0.3-1.2-0.5-1.8-0.5c-2.4,0-4.2,2.7-4.2,6.1c0,1.5,0.5,2.6,1.7,2.6S612.1,300.3,612.9,299z"/>
		<path class="st2" d="M598,321.4h-6.7l-2.7,4.7h-4l11.4-19.6h2.3l4.5,19.6H599L598,321.4z M593.1,318.4h4.3l-1.2-5.5L593.1,318.4z"
			/>
		<rect x="426.5" y="482.6" class="st4" width="100.9" height="77.3"/>
		<path class="st2" d="M527,482.9v76.7H426.8v-76.7H527 M527.6,482.2H426.1v78h101.5L527.6,482.2L527.6,482.2z"/>
		<path class="st2" d="M465.2,514.7h-6l-2.4,4.5h-2.2l8.8-15.5h1.2l3.5,15.5H466L465.2,514.7z M460.1,513.1h4.8l-1.3-6.5
			L460.1,513.1z"/>
		<path class="st2" d="M479,516.7c-0.1,0.3-0.1,0.6-0.1,0.9c0,0.5,0.5,0.5,1.2,0.5v1c-0.6,0.2-1.3,0.3-1.9,0.3
			c-0.8,0-1.1-0.3-1.1-0.9c0-0.2,0.1-0.7,0.1-1.1c-0.9,1.1-2.2,1.9-3.6,2c-1.5,0.1-2.8-1-2.9-2.5c0-0.1,0-0.3,0-0.4
			c0-0.6,0.1-1.2,0.1-1.7l0.7-4.2c0-0.3,0.1-0.8,0.1-1c0-0.5-0.5-0.6-1.3-0.6l0.2-1c0.6-0.2,1.3-0.3,2-0.3c0.7,0,0.9,0.3,0.9,0.8
			c0,0.6-0.1,1.2-0.2,1.7l-0.8,4.4c-0.1,0.6-0.1,1.1-0.2,1.7c0,0.8,0.6,1.5,1.3,1.5c0.1,0,0.1,0,0.2,0c1.4,0,2.9-1.5,3.7-2.8l1.2-7
			h1.7L479,516.7z"/>
		<path class="st2" d="M483.8,519.5c-0.8,0-1-0.3-1-0.8c0-0.5,0.1-1,0.2-1.4l2.5-14.5l1.7-0.4l-2.5,14.4c-0.1,0.3-0.1,0.6-0.1,1
			c0,0.5,0.5,0.5,1.3,0.5v1C485.2,519.3,484.5,519.4,483.8,519.5z"/>
		<path class="st2" d="M494.6,517.5c-0.9,1.1-2.1,1.9-3.5,2c-2,0-3-1.6-3-4c0-4.1,2.3-7.7,6-7.7c1.3,0,2.6,0.4,3.6,1.1l-1.3,7.6
			c-0.1,0.6-0.2,1-0.2,1.2c0,0.4,0.3,0.5,1.2,0.5v1c-0.6,0.2-1.3,0.3-2,0.3c-0.8,0-1-0.3-1-0.9C494.5,518.2,494.6,517.9,494.6,517.5
			z M494.9,515.2l0.9-5.5c-0.6-0.3-1.2-0.5-1.9-0.5c-2.4,0-4.2,2.7-4.2,6.1c0,1.5,0.5,2.6,1.6,2.6S494.1,516.5,494.9,515.2
			L494.9,515.2z"/>
		<path class="st2" d="M471.1,522.8h6.6c5.3,0,8.7,2.5,8.7,8c0,6.3-3.1,11.6-11.3,11.6h-7.4L471.1,522.8z M472,539h2.8
			c5.1,0,7.6-3.3,7.6-8c0-3.2-1.7-4.8-5.4-4.8h-2.8L472,539z"/>
		<rect x="426.5" y="405.6" class="st4" width="100.9" height="77.3"/>
		<path class="st2" d="M527,405.9v76.7H426.8v-76.7H527 M527.6,405.3H426.1v78h101.5L527.6,405.3L527.6,405.3z"/>
		<path class="st2" d="M465.2,436.1h-6l-2.4,4.5h-2.2l8.8-15.6h1.2l3.5,15.5H466L465.2,436.1z M460.1,434.5h4.8l-1.3-6.5
			L460.1,434.5z"/>
		<path class="st2" d="M479,438.2c-0.1,0.3-0.1,0.6-0.1,0.9c0,0.5,0.5,0.5,1.2,0.5v1c-0.6,0.2-1.3,0.3-1.9,0.3
			c-0.8,0-1.1-0.3-1.1-0.9c0-0.2,0.1-0.7,0.1-1.1c-0.9,1.1-2.2,1.9-3.6,2c-1.5,0.1-2.8-1-2.9-2.5c0-0.1,0-0.2,0-0.4
			c0-0.6,0.1-1.2,0.1-1.7l0.7-4.2c0-0.3,0.1-0.8,0.1-1c0-0.5-0.5-0.5-1.3-0.6l0.2-1c0.6-0.2,1.3-0.3,2-0.3c0.7,0,0.9,0.3,0.9,0.8
			c0,0.6-0.1,1.2-0.2,1.7l-0.8,4.4c-0.1,0.6-0.1,1.1-0.2,1.7c0,0.8,0.6,1.5,1.3,1.5c0.1,0,0.1,0,0.2,0c1.4,0,2.9-1.5,3.7-2.8l1.2-7
			h1.7L479,438.2z"/>
		<path class="st2" d="M483.8,440.9c-0.8,0-1-0.3-1-0.8c0-0.5,0.1-1,0.2-1.4l2.5-14.5l1.7-0.4l-2.5,14.4c-0.1,0.3-0.1,0.6-0.1,1
			c0,0.5,0.5,0.5,1.3,0.5v1C485.2,440.8,484.5,440.9,483.8,440.9z"/>
		<path class="st2" d="M494.6,439c-0.9,1.1-2.1,1.8-3.5,2c-2,0-3-1.6-3-4c0-4.2,2.3-7.7,6-7.7c1.3,0,2.5,0.4,3.6,1.1l-1.3,7.6
			c-0.1,0.6-0.2,1-0.2,1.2c0,0.5,0.3,0.5,1.2,0.6v1c-0.6,0.2-1.3,0.3-2,0.3c-0.8,0-1-0.3-1-0.9C494.5,439.7,494.6,439.3,494.6,439z
			 M494.9,436.7l0.9-5.5c-0.6-0.3-1.2-0.5-1.9-0.5c-2.4,0-4.2,2.7-4.2,6.1c0,1.5,0.5,2.6,1.6,2.6S494.1,437.9,494.9,436.7
			L494.9,436.7z"/>
		<path class="st2" d="M473.6,444.2h11.3l-0.6,3.4h-7.5l-0.7,4.3h6.2l-0.6,3.3h-6.2l-0.9,5.3h7.9l-0.6,3.4h-11.6L473.6,444.2z"/>
		<g>
			<defs>
				<rect id="SVGID_1_" x="521.4" width="31.4" height="32.3"/>
			</defs>
			<clipPath id="SVGID_00000143576248916315637060000015323048435436795824_">
				<use xlink:href="#SVGID_1_"  style="overflow:visible;"/>
			</clipPath>
			<g style="clip-path:url(#SVGID_00000143576248916315637060000015323048435436795824_);">
				<path class="st7" d="M552.7,22.6v2h-0.5l-0.5,0.5l-0.3,0.2c-1.1,0.8-2.4,1.3-3.8,1.3h-1.9c-0.7,0-1.4-0.1-2-0.3l-2-0.7
					c0.7-0.4,1.4-0.8,2-1.3l2.5-2.2h6.5L552.7,22.6z"/>
				<path class="st8" d="M541.6,25.7c-0.5,0.2-0.9,0.4-1.4,0.5c-1.1,0.3-2,0.8-2.9,1.4l-4.1,3.1c-0.4,0.3-0.9,0.4-1.3,0.4
					c-0.1,0-0.2,0-0.3,0c-0.1,0-0.2-0.1-0.3-0.2c-0.1-0.1-0.2-0.2-0.2-0.2c-0.1-0.1-0.1-0.2-0.2-0.3c-0.1-0.2-0.1-0.5,0-0.7
					c0.1-0.2,0.2-0.4,0.4-0.5l4.9-3.6l-8,5.8c-0.2,0.1-0.4,0.2-0.6,0.2c-0.2,0-0.4,0-0.7,0h-0.2c-0.3-0.1-0.6-0.3-0.8-0.5
					c-0.1-0.1-0.2-0.3-0.3-0.5c-0.1-0.2-0.1-0.3-0.1-0.5c0-0.4,0.2-0.7,0.4-0.9l8.1-5.6l-7.9,5.3c-0.1,0.1-0.2,0.1-0.2,0.2l-0.3,0.2
					c-0.2,0.1-0.4,0.2-0.6,0.3c-0.2,0-0.4,0-0.7,0h-0.2c-0.3-0.1-0.6-0.3-0.8-0.5c-0.2-0.3-0.3-0.6-0.3-0.9c0-0.2,0.1-0.5,0.2-0.7
					c0.1-0.2,0.3-0.4,0.5-0.5l8.4-5.8l-6,3.8c-0.7,0.4-1.4,0.7-2.2,0.6c-0.1,0-0.3,0-0.4-0.1c-0.1,0-0.3-0.1-0.4-0.2
					c-0.1-0.1-0.2-0.2-0.3-0.3c-0.1-0.1-0.1-0.2-0.2-0.4c0-0.1,0-0.3,0-0.4c0-0.1,0-0.3,0.1-0.4c0.1-0.1,0.1-0.3,0.2-0.4
					c0.1-0.1,0.2-0.2,0.3-0.3l6.5-4.1l5.4-4.6l-4-0.6c-0.2,0-0.3-0.1-0.5-0.1c-0.2-0.1-0.3-0.1-0.5-0.2c-0.1-0.1-0.3-0.2-0.4-0.3
					c-0.1-0.1-0.3-0.2-0.4-0.4c-0.1-0.1-0.2-0.3-0.3-0.4c-0.1-0.1-0.2-0.3-0.2-0.5c-0.1-0.2-0.1-0.3-0.1-0.5c0-0.2,0-0.3,0-0.5
					c0-0.1,0-0.1,0-0.2c0-0.1,0.1-0.1,0.1-0.2c0.1,0,0.1-0.1,0.2-0.1c0.1,0,0.1,0,0.2,0h0.1l9.5,1.4l4,1.6h10.1v8.6h-6.5l-2.5,2.2
					C543,24.9,542.3,25.3,541.6,25.7z"/>
				<path class="st7" d="M549.2,13.6h-6.6l-1-1c-0.3-0.3-0.5-0.7-0.5-1.2c0-0.5,0.2-0.9,0.5-1.3c0.1-0.2,0.3-0.3,0.5-0.4
					c0.2-0.1,0.4-0.1,0.6-0.1c0.3,0,0.6,0.1,0.8,0.2l3.2,2.1L549.2,13.6z"/>
				<path class="st9" d="M539.6,16.6c0.1,0,0.2,0,0.3,0.1c0.1,0,0.2,0.1,0.2,0.1c0.1,0.1,0.1,0.1,0.2,0.2c0.1,0.1,0.1,0.1,0.2,0.2
					c0,0.1,0.1,0.2,0.1,0.2c0,0.1,0,0.2,0,0.3c0,0.1,0,0.2,0,0.3c0,0.3-0.2,0.6-0.4,0.8c-0.2,0.1-0.3,0.2-0.5,0.3
					c-0.1,0-0.2,0-0.3,0c-0.1,0-0.2,0-0.3,0c-0.1,0-0.2,0-0.3-0.1c-0.1,0-0.2-0.1-0.2-0.1c-0.1-0.1-0.1-0.1-0.2-0.2
					c-0.1-0.1-0.1-0.2-0.2-0.2c0-0.1-0.1-0.2-0.1-0.3c0-0.1,0-0.2,0-0.3c0-0.3,0.1-0.6,0.3-0.8c-0.1,0-0.2,0-0.3,0
					c-0.2,0-0.4,0-0.5-0.1c-0.2-0.1-0.3-0.2-0.5-0.3c-0.1-0.1-0.3-0.3-0.3-0.5c-0.1-0.2-0.1-0.4-0.2-0.5c0-0.2,0-0.4,0.1-0.6
					c0.2-0.6,0.6-1,1.2-1.1c0.5-0.1,1.1,0.1,1.4,0.5c0.1,0,0.2-0.1,0.3-0.1c0.1,0,0.3,0,0.4,0.1c0.1,0.1,0.2,0.1,0.3,0.2
					c0.1,0.1,0.2,0.2,0.2,0.3c0,0.1,0.1,0.3,0.1,0.4c0,0.1,0,0.3-0.1,0.4c-0.1,0.3-0.3,0.4-0.5,0.6
					C539.9,16.6,539.7,16.6,539.6,16.6z"/>
				<path class="st7" d="M538.1,17.9c0-0.3,0.1-0.6,0.3-0.8c-0.1,0-0.2,0-0.3,0c-0.1,0-0.2,0-0.3,0c-0.1,0-0.2-0.1-0.3-0.1
					c-0.1,0-0.2-0.1-0.3-0.2c-0.1-0.1-0.2-0.1-0.2-0.2c-0.1-0.1-0.1-0.2-0.2-0.3c-0.1-0.1-0.1-0.2-0.1-0.3c0-0.1,0-0.2,0-0.3
					c0-0.1,0-0.2,0-0.3c0-0.2,0.1-0.4,0.2-0.5c-0.1,0.1-0.3,0.2-0.4,0.3c-0.1,0.1-0.2,0.3-0.2,0.4c-0.1,0.2-0.1,0.3-0.1,0.5
					c0,0.2,0,0.3,0,0.5c0,0.2,0.1,0.3,0.2,0.4c0.1,0.1,0.2,0.3,0.3,0.4c0.1,0.1,0.3,0.2,0.4,0.2c0.2,0.1,0.3,0.1,0.5,0.1
					c0.1,0,0.2,0,0.3,0c-0.2,0.2-0.3,0.5-0.3,0.8c0,0.2,0,0.4,0.1,0.6c0,0.1,0.1,0.2,0.2,0.2c0.1,0.1,0.1,0.1,0.2,0.2l0.2,0.1
					l0.3,0.1c0.1,0,0.2,0,0.3,0c0.1,0,0.2,0,0.3,0c0.3-0.1,0.6-0.3,0.8-0.6c-0.1,0-0.2,0.1-0.3,0.1c-0.1,0-0.2,0-0.3,0
					c-0.1,0-0.2,0-0.3,0c-0.1,0-0.2,0-0.3-0.1c-0.1,0-0.2-0.1-0.2-0.1c-0.1-0.1-0.1-0.1-0.2-0.2c-0.1-0.1-0.1-0.2-0.2-0.2
					c0-0.1-0.1-0.2-0.1-0.3C538.1,18.1,538,18,538.1,17.9z"/>
				<path class="st9" d="M534.5,17.6c0.1,0,0.3,0,0.4,0.1c0.1,0.1,0.2,0.1,0.3,0.2c0.1,0.1,0.2,0.2,0.2,0.3c0,0.1,0.1,0.3,0.1,0.4
					c0,0.1,0,0.3-0.1,0.4c-0.1,0.1-0.1,0.2-0.2,0.3c-0.1,0.1-0.2,0.2-0.3,0.2c-0.1,0-0.3,0.1-0.4,0.1c-0.1,0-0.2,0-0.3-0.1
					c-0.1,0.2-0.3,0.3-0.5,0.4c-0.2,0.1-0.4,0.2-0.7,0.1c-0.2,0-0.4,0-0.6-0.1c-0.2-0.1-0.3-0.2-0.4-0.3c-0.1-0.1-0.2-0.3-0.3-0.4
					c-0.1-0.2-0.1-0.3-0.2-0.5c0-0.2,0-0.3,0-0.5c0-0.2,0.1-0.3,0.2-0.5c0.1-0.1,0.2-0.3,0.3-0.4c0.1-0.1,0.3-0.2,0.4-0.3
					c0.2-0.1,0.3-0.1,0.5-0.1c0.2,0,0.4,0,0.7,0.1c0.2,0.1,0.4,0.2,0.5,0.4C534.3,17.6,534.4,17.6,534.5,17.6z"/>
				<path class="st10" d="M530.2,18.5l-0.7,0.6l-5.3,3.4c-0.1-0.3-0.2-0.6-0.2-0.9c0-0.2,0-0.4,0.1-0.7c0.1-0.2,0.2-0.4,0.3-0.6
					c0.1-0.2,0.3-0.3,0.5-0.5c0.2-0.1,0.4-0.2,0.6-0.3c0.2,0,0.3-0.1,0.5-0.1c0.2,0,0.3,0,0.5,0.1v-0.1c0-0.1,0-0.3,0-0.4
					c0-0.1,0.1-0.3,0.1-0.4c0.1-0.1,0.1-0.2,0.2-0.4c0.1-0.1,0.2-0.2,0.2-0.3c0.1-0.1,0.2-0.2,0.3-0.2c0.1-0.1,0.2-0.1,0.3-0.2
					c0.1-0.1,0.2-0.1,0.4-0.1c0.1,0,0.3,0,0.4,0c0.3,0,0.7,0.1,1,0.2C529.7,18.1,530,18.3,530.2,18.5z"/>
				<path class="st11" d="M529.2,13c-0.5-0.5-0.7-1.2-0.7-1.9c0-0.1,0-0.1,0-0.2c0-0.1,0.1-0.1,0.1-0.2c0.1-0.1,0.1-0.1,0.2-0.1
					c0.1,0,0.1,0,0.2,0l1.4,0.2v-0.2V5h-5v14.6v0.1c0.2,0,0.3-0.1,0.5-0.1c0.2,0,0.3,0,0.5,0.1v-0.1c0-0.1,0-0.3,0-0.4
					c0-0.1,0.1-0.3,0.1-0.4c0.1-0.1,0.1-0.2,0.2-0.4c0.1-0.1,0.2-0.2,0.2-0.3c0.1-0.1,0.2-0.2,0.3-0.2c0.1-0.1,0.2-0.1,0.3-0.2
					c0.1-0.1,0.2-0.1,0.4-0.1c0.1,0,0.3,0,0.4,0c0.3,0,0.7,0.1,1,0.2c0.3,0.2,0.6,0.4,0.7,0.7l0.3-0.3v-4.4
					C529.9,13.7,529.5,13.4,529.2,13z"/>
				<path class="st12" d="M546.1,22.1l-2.5,2.2c-0.6,0.5-1.3,1-2,1.3l2,0.7h0.1c-0.1-0.1-0.1-0.2-0.1-0.3c0-0.1,0-0.2,0.1-0.3
					c0.1-0.1,0.1-0.2,0.2-0.2c0.8-0.5,2-1.4,2.7-1.9c0.4-0.3,0.8-0.4,1.3-0.4h2.9c0.2,0,0.4,0,0.5,0.1c0.4,0.1,0.6,0.4,0.8,0.8
					c0.1,0.2,0.1,0.4,0.1,0.5v0.1h0.5v-2.5H546.1z"/>
				<path class="st12" d="M547.7,12.6H544c-0.3,0-0.5-0.1-0.7-0.3l-0.9-0.9c-0.1-0.1-0.2-0.2-0.3-0.4c-0.1-0.1-0.1-0.3-0.2-0.4
					c-0.1-0.3,0-0.6,0.1-0.9c-0.2,0.1-0.4,0.2-0.5,0.4c-0.3,0.4-0.5,0.8-0.5,1.3c0,0.5,0.2,0.9,0.5,1.2l1,1h6.5L547.7,12.6z"/>
				<path class="st7" d="M535,13.4l-5-1c-0.2,0-0.3-0.1-0.5-0.2c-0.2-0.1-0.3-0.2-0.4-0.3c-0.1-0.1-0.2-0.3-0.3-0.4
					c-0.1-0.2-0.2-0.3-0.2-0.5c0,0.1,0,0.1,0,0.2c0,0.2,0,0.3,0,0.5c0,0.2,0.1,0.3,0.1,0.5c0.1,0.2,0.1,0.3,0.2,0.5
					c0.1,0.1,0.2,0.3,0.3,0.4c0.1,0.1,0.2,0.3,0.4,0.4c0.1,0.1,0.3,0.2,0.4,0.3c0.1,0.1,0.3,0.2,0.5,0.2c0.2,0.1,0.3,0.1,0.5,0.1
					l4,0.6l0.4-0.3c0.1-0.1,0.1-0.1,0.2-0.2c0-0.1,0-0.2,0-0.3c0-0.1-0.1-0.2-0.1-0.2C535.2,13.5,535.1,13.4,535,13.4z"/>
				<path class="st7" d="M550.2,13.6v3.1c0,0.2,0,0.4-0.1,0.6c0,0.2-0.1,0.4-0.2,0.5c-0.1,0.2-0.2,0.4-0.3,0.5
					c-0.2,0.3-0.5,0.6-0.8,0.8c-0.2,0.1-0.3,0.2-0.5,0.3c-0.2,0.1-0.4,0.1-0.5,0.2c-0.2,0-0.4,0-0.6,0c-0.3,0-0.7,0.1-0.9,0.2
					c-0.3,0.2-0.5,0.4-0.7,0.6c-1,1.4-3.1,4.2-5,4.2c0,0-3,1-4,2l-4.9,3.5c-0.1,0.1-0.3,0.2-0.5,0.2c-0.2,0-0.3,0-0.5-0.1
					c0,0.1,0,0.1,0,0.2c0.1,0.2,0.2,0.4,0.4,0.5c0.2,0.1,0.4,0.2,0.6,0.2c0.5,0,0.9-0.2,1.3-0.4l4.1-3.1c0.9-0.7,1.9-1.1,2.9-1.4
					c0.5-0.1,1-0.3,1.4-0.5c0.7-0.4,1.4-0.8,2-1.3l2.5-2.2h6.5v-8.6H550.2z"/>
				<path class="st7" d="M530.6,20.8l-6.4,4.1c-0.5,0.3-1.2,0.3-1.7,0c0.2,0.5,0.7,0.8,1.2,0.8c0.8,0,1.6-0.2,2.3-0.7l6-3.9
					c-0.1-0.1-0.2-0.2-0.3-0.3c-0.2-0.2-0.5-0.3-0.8-0.2C530.8,20.6,530.7,20.7,530.6,20.8z"/>
				<path class="st7" d="M533.9,25.5l-7,5.1c-0.1,0.1-0.2,0.1-0.3,0.2c-0.1,0-0.2,0-0.4,0c-0.1,0-0.2,0-0.3-0.1
					c-0.1-0.1-0.2-0.1-0.3-0.2c0,0.2,0.1,0.5,0.3,0.6c0.2,0.3,0.5,0.4,0.8,0.5h0.2c0.2,0,0.4,0,0.7,0c0.2,0,0.4-0.1,0.6-0.2l2.1-1.5
					l5.9-4.2c-0.1-0.1-0.3-0.3-0.5-0.3c-0.2-0.1-0.4-0.1-0.6-0.1c-0.2,0-0.4,0-0.6,0C534.2,25.2,534,25.3,533.9,25.5z"/>
				<path class="st9" d="M541.4,25.8c0.1,0.3,0.2,0.6,0.2,0.9c0,0.1,0,0.3,0,0.4c0,0.1-0.1,0.3-0.1,0.4c-0.1,0.1-0.1,0.2-0.2,0.4
					c-0.1,0.1-0.2,0.2-0.2,0.3c-0.1,0.1-0.2,0.2-0.3,0.3c-0.1,0.1-0.2,0.1-0.3,0.2c-0.1,0-0.3,0.1-0.4,0.1c-0.1,0-0.3,0-0.4,0
					c-0.2,0-0.4,0-0.6-0.1c0,0.2-0.1,0.3-0.2,0.5c-0.1,0.1-0.3,0.3-0.4,0.4c-0.2,0.1-0.3,0.2-0.5,0.2c-0.2,0-0.4,0-0.6,0
					c-0.2,0-0.4-0.1-0.5-0.2c-0.2-0.1-0.3-0.2-0.4-0.4c-0.1-0.1-0.2-0.3-0.2-0.5c0-0.2-0.1-0.4,0-0.5c0-0.2,0.1-0.4,0.2-0.5
					c0.1-0.2,0.2-0.3,0.3-0.4c0.1-0.1,0.3-0.2,0.5-0.3c0.2-0.1,0.4-0.1,0.5-0.1c0-0.1,0-0.3,0-0.4c0-0.1,0.1-0.3,0.1-0.4
					c0-0.1,0.1-0.2,0.2-0.4c0.1-0.2,0.3-0.4,0.5-0.5c0.1-0.1,0.2-0.1,0.3-0.2c0.1-0.1,0.2-0.1,0.4-0.1c0.1,0,0.3,0,0.4,0
					c0.2,0,0.4,0,0.6,0.1c0.2,0,0.3,0.1,0.5,0.2c0.2,0.1,0.3,0.2,0.4,0.4C541.2,25.5,541.3,25.6,541.4,25.8z"/>
				<path class="st7" d="M534,23.7c-0.1-0.1-0.3-0.3-0.5-0.3c-0.2-0.1-0.4-0.1-0.6-0.1c-0.2,0-0.4,0-0.6,0c-0.2,0.1-0.4,0.1-0.5,0.2
					l-7.4,5c-0.1,0.1-0.2,0.1-0.4,0.2c-0.1,0-0.3,0.1-0.4,0c-0.1,0-0.3,0-0.4-0.1c-0.1,0-0.2-0.1-0.4-0.2c0,0.2,0.2,0.5,0.3,0.6
					c0.2,0.3,0.5,0.4,0.8,0.5h0.2c0.2,0,0.4,0,0.7,0c0.2,0,0.4-0.1,0.6-0.3l0.3-0.2l4.6-3.1l0,0L534,23.7z"/>
				<path class="st10" d="M539.6,24.7c-0.1,0-0.3,0-0.4,0c-0.1,0-0.3,0.1-0.4,0.1c-0.1,0-0.2,0.1-0.3,0.2c-0.2,0.1-0.4,0.3-0.5,0.5
					c-0.1,0.1-0.1,0.2-0.2,0.4c-0.1,0.1-0.1,0.2-0.1,0.4c0,0.1,0,0.3,0,0.4c0.2,0,0.4,0,0.6,0.1c0.4,0.1,0.7,0.4,0.8,0.8
					c0.1,0.2,0.1,0.4,0.1,0.6c0,0.1,0,0.3-0.1,0.4c0.1,0,0.3,0.1,0.4,0.1c0.1,0,0.3,0,0.4,0c0.1,0,0.3-0.1,0.4-0.1
					c0.1,0,0.3-0.1,0.4-0.2c0.1-0.1,0.2-0.2,0.3-0.3c0.1-0.1,0.2-0.2,0.3-0.3c0.1-0.1,0.1-0.3,0.2-0.4c0.1-0.1,0.1-0.3,0.1-0.4
					c0-0.1,0-0.3,0-0.4c0-0.1,0-0.3-0.1-0.4c0-0.1-0.1-0.3-0.2-0.4c-0.1-0.1-0.2-0.2-0.2-0.4c-0.1-0.1-0.2-0.2-0.3-0.3
					c-0.1-0.1-0.2-0.2-0.4-0.2c-0.1-0.1-0.3-0.1-0.4-0.1C539.9,24.7,539.7,24.7,539.6,24.7z"/>
				<path class="st13" d="M537.6,26.7c-0.2,0-0.4,0-0.5,0.1c-0.2,0.1-0.3,0.2-0.5,0.3c-0.1,0.1-0.3,0.3-0.3,0.4
					c-0.1,0.2-0.1,0.4-0.2,0.5c0,0.2,0,0.4,0,0.5c0,0.2,0.1,0.3,0.2,0.5c0.1,0.1,0.3,0.3,0.4,0.4c0.2,0.1,0.3,0.2,0.5,0.2
					c0.2,0,0.4,0,0.6,0c0.2,0,0.4-0.1,0.5-0.2c0.2-0.1,0.3-0.2,0.4-0.4c0.1-0.2,0.2-0.3,0.2-0.5c-0.2-0.1-0.4-0.1-0.6-0.3
					c-0.2-0.1-0.3-0.3-0.5-0.5c-0.1-0.2-0.2-0.4-0.3-0.6C537.6,27.1,537.6,26.9,537.6,26.7z"/>
				<path class="st14" d="M537.6,26.7c0,0.2,0,0.4,0.1,0.6c0.1,0.2,0.2,0.4,0.3,0.6c0.1,0.2,0.3,0.3,0.5,0.5
					c0.2,0.1,0.4,0.2,0.6,0.3c0-0.1,0.1-0.3,0.1-0.4c0-0.2,0-0.4-0.1-0.6c-0.1-0.4-0.4-0.7-0.8-0.8C538,26.7,537.8,26.7,537.6,26.7z
					"/>
				<path class="st2" d="M539.5,25.6c-0.1,0-0.1,0.1-0.1,0.2c0,0.1,0,0.1,0,0.2c0,0.1,0.1,0.1,0.1,0.1c0.2,0.2,0.5,0.5,0.8,0.7
					c0.1,0.1,0.2,0.1,0.3,0.1c0,0,0.1,0,0.1,0c0,0,0,0,0,0c0.1-0.1,0.2-0.3,0.2-0.5c0-0.2-0.1-0.5-0.2-0.6c-0.1-0.1-0.1-0.2-0.2-0.2
					c-0.1-0.1-0.2-0.1-0.3-0.1c-0.1,0-0.2,0-0.3,0C539.6,25.5,539.5,25.5,539.5,25.6z"/>
				<path class="st13" d="M526.5,20.1c0.4,0,0.7,0.1,1,0.3l2-1.3l0.2-0.1c-0.1-0.1-0.3-0.2-0.4-0.2c-0.2-0.1-0.3-0.1-0.5-0.1
					c-0.2,0-0.3,0-0.5,0c-0.2,0-0.3,0.1-0.5,0.1c-0.2,0.1-0.3,0.1-0.4,0.2c-0.1,0.1-0.3,0.2-0.4,0.3c-0.1,0.1-0.2,0.3-0.3,0.4
					C526.7,19.8,526.6,20,526.5,20.1L526.5,20.1z"/>
				<path class="st9" d="M526.5,20.6c0-0.2,0-0.3,0.1-0.5h-0.1c-0.1,0-0.3,0-0.4,0c-0.1,0-0.3,0.1-0.4,0.1c-0.1,0-0.2,0.1-0.3,0.2
					c-0.1,0.1-0.2,0.2-0.3,0.2c-0.1,0.1-0.2,0.2-0.2,0.3c-0.1,0.1-0.1,0.2-0.2,0.4c-0.1,0.1-0.1,0.3-0.1,0.4c0,0.1,0,0.3,0,0.4
					c0,0.1,0,0.1,0,0.2l2-1.3C526.5,20.9,526.5,20.8,526.5,20.6z"/>
				<path class="st14" d="M526.5,20.6c0,0.1,0,0.3,0,0.4l1-0.6c-0.3-0.2-0.6-0.3-1-0.3C526.5,20.3,526.5,20.5,526.5,20.6z"/>
				<path class="st2" d="M527.6,18.6c0,0.1,0,0.1,0,0.2c0,0.1,0.1,0.1,0.2,0.1c0.1,0,0.1,0,0.2,0c0.3,0,0.7,0,1-0.1
					c0.1,0,0.2,0,0.3-0.1v-0.1c0,0,0,0,0-0.1c0-0.2-0.1-0.3-0.2-0.5c-0.2-0.2-0.4-0.3-0.6-0.3c-0.1,0-0.2,0-0.3,0
					c-0.1,0-0.2,0.1-0.3,0.1c-0.1,0.1-0.2,0.1-0.2,0.2C527.6,18.4,527.6,18.5,527.6,18.6z"/>
				<path class="st10" d="M539.2,16.6L539.2,16.6c-0.1-0.1-0.3-0.3-0.4-0.5c-0.2-0.3-0.2-0.8,0-1.1c0.1-0.2,0.3-0.3,0.5-0.4
					c-0.1-0.1-0.2-0.2-0.3-0.3c-0.1-0.1-0.2-0.1-0.3-0.2c-0.1,0-0.2-0.1-0.4-0.1h-0.4c-0.3,0-0.5,0.1-0.7,0.3
					c-0.1,0.1-0.2,0.2-0.3,0.3c-0.1,0.1-0.1,0.2-0.2,0.3c-0.1,0.1-0.1,0.2-0.1,0.4c0,0.1,0,0.3,0,0.4c0,0.1,0,0.2,0.1,0.4
					c0,0.1,0.1,0.2,0.2,0.3c0.1,0.1,0.2,0.2,0.2,0.3c0.1,0.1,0.2,0.2,0.3,0.2c0.1,0.1,0.2,0.1,0.4,0.1c0.1,0,0.2,0,0.4,0
					c0.1,0,0.2,0,0.3,0C538.6,16.9,538.8,16.7,539.2,16.6z"/>
				<path class="st9" d="M539.2,16.6c-0.3,0-0.6,0.2-0.8,0.5C538.7,17,539,16.9,539.2,16.6z"/>
				<path class="st9" d="M539.2,16.5c0.1,0,0.2,0,0.2,0.1c0.1,0,0.2,0,0.2,0l0.2,0c0.1,0,0.1-0.1,0.2-0.1c0.1,0,0.1-0.1,0.2-0.2
					c0.1-0.1,0.1-0.1,0.1-0.2c0-0.1,0.1-0.1,0.1-0.2c0-0.1,0-0.2,0-0.2c0-0.1,0-0.2,0-0.2c0-0.1,0-0.2-0.1-0.2
					c0-0.1-0.1-0.1-0.1-0.2c-0.1-0.1-0.1-0.1-0.2-0.2c-0.1,0-0.1-0.1-0.2-0.1l-0.2-0.1h-0.2c-0.1,0-0.2,0-0.2,0.1
					c0.1,0.1,0.2,0.3,0.3,0.4c0.1,0.2,0.1,0.3,0.1,0.5c0,0.2,0,0.3-0.1,0.5C539.4,16.3,539.3,16.4,539.2,16.5z"/>
				<path class="st13" d="M538.6,15.6c0,0.2,0.1,0.4,0.2,0.6c0.1,0.2,0.3,0.3,0.5,0.4c0.1-0.1,0.2-0.3,0.3-0.4
					c0.1-0.2,0.1-0.3,0.1-0.5c0-0.2,0-0.3-0.1-0.5c-0.1-0.2-0.1-0.3-0.3-0.4C538.8,14.8,538.6,15.2,538.6,15.6z"/>
				<path class="st2" d="M538.6,15.4c0,0.1,0,0.2-0.1,0.3c0,0.1-0.1,0.2-0.2,0.2c-0.1,0.1-0.2,0.1-0.2,0.2c-0.2,0.1-0.4,0.1-0.6,0
					c-0.1,0-0.2-0.1-0.2-0.2c-0.1-0.1-0.1-0.2-0.2-0.2c0-0.1-0.1-0.2-0.1-0.3c0-0.1,0-0.2,0.1-0.3c0-0.1,0.1-0.2,0.2-0.2
					c0.1-0.1,0.1-0.1,0.2-0.2c0.2-0.1,0.4-0.1,0.6,0c0.1,0,0.2,0.1,0.2,0.2c0.1,0.1,0.1,0.2,0.2,0.2
					C538.5,15.2,538.6,15.3,538.6,15.4z"/>
				<path class="st10" d="M533.5,18.6c0-0.4,0.3-0.8,0.7-1c-0.1-0.1-0.1-0.2-0.2-0.2l-0.3-0.2c-0.1-0.1-0.2-0.1-0.3-0.1l-0.3,0
					c-0.2,0-0.4,0-0.6,0.1l-0.3,0.1l-0.2,0.2c-0.1,0.1-0.1,0.1-0.2,0.2c-0.1,0.1-0.1,0.2-0.2,0.3c0,0.1-0.1,0.2-0.1,0.3
					c0,0.1,0,0.2,0,0.3c0,0.1,0,0.2,0,0.3c0,0.1,0.1,0.2,0.1,0.3c0,0.1,0.1,0.2,0.2,0.3c0.1,0.1,0.1,0.2,0.2,0.2
					c0.1,0.1,0.2,0.1,0.2,0.2c0.1,0.1,0.2,0.1,0.3,0.1c0.2,0.1,0.4,0.1,0.6,0.1c0.1,0,0.2,0,0.3,0c0.1,0,0.2-0.1,0.3-0.1
					c0.2-0.1,0.3-0.2,0.5-0.4c-0.2-0.1-0.4-0.2-0.5-0.4C533.6,19,533.5,18.8,533.5,18.6z"/>
				<path class="st7" d="M534.5,19.6c-0.1,0-0.2,0-0.3-0.1c-0.2,0.2-0.4,0.4-0.7,0.5c-0.3,0.1-0.6,0.1-0.8,0
					c-0.3-0.1-0.5-0.2-0.7-0.4c-0.2-0.2-0.3-0.5-0.4-0.8c0,0.1,0,0.2,0,0.2c0,0.2,0,0.3,0.1,0.5c0,0.1,0.1,0.3,0.2,0.4
					c0.1,0.1,0.2,0.2,0.3,0.3c0.1,0.1,0.3,0.2,0.4,0.2c0.1,0.1,0.3,0.1,0.5,0.1c0.2,0,0.3,0,0.5-0.1c0.1,0,0.3-0.1,0.4-0.2
					c0.1-0.1,0.2-0.2,0.3-0.3c0.1,0,0.2,0,0.2,0.1c0.1,0,0.2,0,0.2,0c0.1,0,0.2,0,0.2-0.1c0.1,0,0.1-0.1,0.2-0.1
					c0.1-0.1,0.1-0.1,0.2-0.2c0-0.1,0.1-0.1,0.1-0.2c0-0.1,0.1-0.2,0.1-0.2c0-0.1,0-0.2,0-0.2c0-0.1,0-0.2,0-0.2
					c0,0.1-0.1,0.2-0.1,0.3c-0.1,0.1-0.1,0.2-0.2,0.2c-0.1,0.1-0.2,0.1-0.3,0.2C534.8,19.6,534.7,19.6,534.5,19.6z"/>
				<path class="st2" d="M532.2,18.1c0,0.1,0,0.1,0,0.2c0,0.1,0.1,0.1,0.2,0.2c0.1,0,0.1,0,0.2,0c0.3,0,0.7,0,1-0.1
					c0.1,0,0.2-0.1,0.3-0.1c0,0,0,0,0,0c0,0,0,0,0-0.1c0-0.2-0.1-0.3-0.2-0.5c-0.2-0.2-0.4-0.3-0.6-0.3c-0.1,0-0.2,0-0.3,0
					c-0.1,0-0.2,0.1-0.3,0.1c-0.1,0.1-0.1,0.1-0.2,0.2C532.2,17.9,532.2,18,532.2,18.1z"/>
				<path class="st15" d="M529.3,11.7l0.5,0.1c0.1,0,0.1,0,0.2,0c0.1,0,0.1,0,0.2,0l0.2-0.1c0.1,0,0.1-0.1,0.2-0.1
					c0.1,0,0.1-0.1,0.2-0.2c0-0.1,0.1-0.1,0.1-0.2c0-0.1,0.1-0.1,0.1-0.2c0-0.1,0-0.1,0-0.2l-1.9-0.3h0c-0.1,0-0.2,0-0.3,0.1
					c-0.1,0.1-0.1,0.2-0.2,0.3c0,0.2,0.1,0.4,0.3,0.5C528.9,11.6,529.1,11.7,529.3,11.7z"/>
				<polygon class="st16" points="531,0.5 531,5 530.5,5 525.5,5 525,5 525,3.5 521.4,3.5 521.4,0.5 				"/>
				<path class="st17" d="M522.4,0.5v1c0,0.1,0,0.3,0.1,0.4c0.1,0.1,0.1,0.2,0.2,0.3c0.2,0.2,0.4,0.3,0.7,0.3h0.5
					c0.1,0,0.3,0,0.4,0.1c0.1,0.1,0.2,0.1,0.3,0.2c0.2,0.2,0.3,0.4,0.3,0.7h-3.5v-3H522.4z"/>
				<rect x="529.5" y="0.5" class="st18" width="1.5" height="4.5"/>
				<path class="st19" d="M530.5,5h-5v3.3c0,0.1,0,0.2,0.1,0.3c0,0.1,0.1,0.2,0.2,0.2c0.1,0.1,0.2,0.1,0.2,0.2
					c0.1,0,0.2,0.1,0.3,0.1c0.1,0,0.2,0,0.3-0.1c0.1,0,0.2-0.1,0.2-0.2c0.1-0.1,0.1-0.2,0.2-0.2c0-0.1,0-0.2,0-0.3V7.6
					c0-0.1,0-0.3,0.1-0.4c0.1-0.3,0.3-0.4,0.5-0.6c0.1-0.1,0.2-0.1,0.4-0.1h2.5L530.5,5z"/>
				<path class="st20" d="M530,7.1c0.1,0,0.1,0,0.2,0c0.1,0.1,0.2,0.1,0.3,0.3c0,0.1,0,0.1,0,0.2v1c0,0.1,0,0.1,0,0.2
					c-0.1,0.1-0.1,0.2-0.3,0.3c-0.1,0-0.1,0-0.2,0c-0.1,0-0.1,0-0.2,0c-0.1,0-0.1-0.1-0.2-0.1c0,0-0.1-0.1-0.1-0.2
					c0-0.1,0-0.1,0-0.2v-1c0-0.1,0-0.1,0-0.2c0-0.1,0.1-0.1,0.1-0.2c0-0.1,0.1-0.1,0.2-0.1C529.9,7,529.9,7,530,7.1z"/>
				<path class="st20" d="M530,14.1c0.1,0,0.1,0,0.2,0c0.1,0,0.1,0.1,0.2,0.1c0.1,0,0.1,0.1,0.1,0.2c0,0.1,0,0.1,0,0.2v1
					c0,0.1,0,0.1,0,0.2c0,0.1-0.1,0.1-0.1,0.2c0,0.1-0.1,0.1-0.2,0.1c-0.1,0-0.1,0-0.2,0c-0.1,0-0.1,0-0.2,0c-0.1,0-0.1-0.1-0.2-0.1
					c0,0-0.1-0.1-0.1-0.2c0-0.1,0-0.1,0-0.2v-1c0-0.1,0-0.1,0-0.2c0-0.1,0.1-0.1,0.1-0.2c0.1,0,0.1-0.1,0.2-0.1
					C529.9,14.1,529.9,14.1,530,14.1z"/>
				<path class="st20" d="M528.5,14.1c0.1,0,0.1,0,0.2,0c0.1,0,0.1,0.1,0.2,0.1c0.1,0,0.1,0.1,0.1,0.2c0,0.1,0,0.1,0,0.2v2
					c0,0.1,0,0.1,0,0.2c0,0.1-0.1,0.1-0.1,0.2c0,0-0.1,0.1-0.2,0.1c-0.1,0.1-0.3,0.1-0.4,0c-0.1-0.1-0.2-0.1-0.3-0.3
					c0-0.1,0-0.1,0-0.2v-2c0-0.1,0-0.1,0-0.2c0-0.1,0.1-0.1,0.1-0.2c0,0,0.1-0.1,0.2-0.1C528.4,14.1,528.4,14.1,528.5,14.1z"/>
				<path class="st19" d="M526.2,10.1c0.1,0,0.2,0,0.3,0.1c0.1,0,0.2,0.1,0.2,0.2c0.1,0.1,0.1,0.2,0.2,0.2c0,0.1,0,0.2,0,0.3v6
					c0,0.1,0,0.2,0,0.3c0,0.1-0.1,0.2-0.2,0.2c-0.1,0.1-0.2,0.1-0.2,0.2c-0.1,0-0.2,0.1-0.3,0.1c-0.1,0-0.2,0-0.3-0.1
					c-0.1,0-0.2-0.1-0.2-0.2c-0.1-0.1-0.2-0.3-0.2-0.5v-6c0-0.1,0-0.2,0.1-0.3c0-0.1,0.1-0.2,0.2-0.2c0.1-0.1,0.2-0.1,0.2-0.2
					C526,10.1,526.1,10.1,526.2,10.1z"/>
				<rect x="530" y="6" class="st0" width="1" height="3.5"/>
				<path class="st0" d="M524.5,5c0,0.1,0,0.1,0,0.2c0,0.1,0.1,0.1,0.1,0.2c0,0,0.1,0.1,0.2,0.1c0.1,0,0.1,0,0.2,0h6
					c0.1,0,0.1,0,0.2,0c0.1,0,0.1-0.1,0.2-0.1c0,0,0.1-0.1,0.1-0.2c0-0.1,0-0.1,0-0.2V0.5c0-0.1,0-0.1,0-0.2c0-0.1-0.1-0.1-0.1-0.2
					c0-0.1,0-0.1-0.1-0.2c-0.1,0-0.1,0-0.2,0h-9.6v1h9.1v3.5h-5v-1c0-0.1,0-0.1,0-0.2c0-0.1-0.1-0.1-0.1-0.2c0-0.1-0.1-0.1-0.2-0.1
					C525.2,3,525.1,3,525,3h-3.5v1h3L524.5,5z"/>
				<rect x="525" y="6" class="st0" width="1" height="12.6"/>
				<path class="st0" d="M542.7,10.1c0.2,0,0.4,0.1,0.5,0.2l3.2,2l1.2,0.8h-4.7l-0.9-0.9c-0.2-0.2-0.4-0.5-0.3-0.8
					c0-0.2,0-0.3,0-0.5c0-0.2,0.1-0.3,0.2-0.4c0.1-0.1,0.2-0.2,0.4-0.3C542.3,10.1,542.5,10.1,542.7,10.1z M524.5,21.8
					c0,0,0-0.1,0-0.1c0-0.1,0-0.2,0-0.4c0-0.1,0.1-0.2,0.1-0.3c0-0.1,0.1-0.2,0.2-0.3c0.1-0.1,0.2-0.2,0.2-0.2
					c0.1-0.1,0.2-0.1,0.3-0.2c0.1-0.1,0.2-0.1,0.3-0.1c0.1,0,0.2,0,0.3,0c0.1,0,0.2,0,0.3,0c0.1,0,0.2,0,0.2,0
					c0.1,0,0.1-0.1,0.2-0.1c0.1,0,0.1-0.1,0.2-0.2c0-0.1,0-0.2,0-0.2c0,0,0,0,0-0.1c0-0.3,0.1-0.6,0.2-0.8c0.2-0.2,0.4-0.4,0.6-0.6
					c0.3-0.1,0.6-0.2,0.8-0.1c0.3,0,0.6,0.2,0.8,0.4l-0.3,0.2L524.5,21.8z M534.4,18.2c0.1,0,0.1,0,0.2,0c0.1,0,0.1,0,0.2,0
					c0.1,0.1,0.2,0.1,0.3,0.3c0,0.1,0,0.1,0,0.2c0,0.1,0,0.1,0,0.2c0,0.1-0.1,0.1-0.1,0.2c0,0-0.1,0.1-0.2,0.1c-0.1,0-0.1,0-0.2,0
					h-0.2c-0.2-0.1-0.4,0-0.6,0.1c-0.1,0.1-0.2,0.2-0.3,0.3c-0.1,0.1-0.3,0.1-0.4,0.1c-0.1,0-0.3,0-0.4,0c-0.1,0-0.2-0.1-0.3-0.2
					c-0.1-0.1-0.2-0.2-0.2-0.3c-0.1-0.1-0.1-0.3-0.1-0.4c0-0.3,0.1-0.5,0.3-0.7c0.1-0.1,0.2-0.2,0.3-0.2c0.1,0,0.3-0.1,0.4-0.1
					c0.3,0,0.5,0.2,0.7,0.4C533.9,18.2,534.2,18.2,534.4,18.2L534.4,18.2z M537.6,27.2c0.1,0,0.1,0,0.2,0c0.1,0,0.1-0.1,0.2-0.1
					c0.1,0,0.1-0.1,0.1-0.2c0-0.1,0-0.1,0-0.2c0-0.2,0-0.4,0.1-0.6c0.1-0.2,0.2-0.4,0.3-0.5c0.1-0.1,0.3-0.2,0.5-0.3
					c0.2-0.1,0.4-0.1,0.6-0.1c0.2,0,0.4,0,0.6,0.1c0.2,0.1,0.4,0.2,0.5,0.3c0.6,0.6,0.6,1.5,0,2.1c0,0,0,0,0,0
					c-0.1,0.1-0.3,0.3-0.5,0.3c-0.2,0.1-0.4,0.1-0.6,0.1c-0.1,0-0.3,0-0.4-0.1c-0.1,0-0.1,0-0.2,0c-0.1,0-0.1,0-0.2,0.1
					c-0.1,0-0.1,0.1-0.2,0.1c0,0.1-0.1,0.1-0.1,0.2c0,0.1-0.1,0.2-0.2,0.3c-0.1,0.1-0.2,0.2-0.3,0.2c-0.1,0.1-0.2,0.1-0.3,0.1
					c-0.1,0-0.2,0-0.4,0c-0.1,0-0.2-0.1-0.3-0.2c-0.1-0.1-0.2-0.2-0.3-0.2c-0.1-0.1-0.1-0.2-0.2-0.3c0-0.1,0-0.2,0-0.4
					c0-0.1,0.1-0.2,0.1-0.4c0.1-0.1,0.1-0.2,0.2-0.3c0.1-0.1,0.2-0.1,0.3-0.2C537.3,27.2,537.4,27.2,537.6,27.2L537.6,27.2z
					 M542.6,14.1h10.1v-1h-3.4l-2.4-1.6l-3.2-2.1c-0.3-0.2-0.7-0.3-1.1-0.3c-0.1,0-0.3,0-0.4,0.1c-0.1,0-0.3,0.1-0.4,0.1
					c-0.1,0.1-0.3,0.1-0.4,0.2c-0.1,0.1-0.2,0.2-0.3,0.3c-0.1,0.1-0.2,0.2-0.3,0.4c-0.1,0.1-0.1,0.3-0.2,0.4c0,0.1-0.1,0.3-0.1,0.4
					c0,0.1,0,0.3,0,0.4c0,0.3,0.1,0.7,0.2,1l-2.1-0.8h-0.1l-9.5-1.4c-0.3,0-0.6,0-0.8,0.2c-0.2,0.2-0.4,0.5-0.3,0.8
					c0,0.2,0,0.4,0,0.6c0,0.2,0.1,0.4,0.2,0.6c0.1,0.2,0.2,0.4,0.2,0.6c0.1,0.2,0.2,0.3,0.3,0.5c0.1,0.2,0.3,0.3,0.4,0.4
					c0.2,0.1,0.3,0.2,0.5,0.3c0.2,0.1,0.4,0.2,0.5,0.2c0.2,0.1,0.4,0.1,0.6,0.2l2.9,0.4l-3.5,2.9c-0.2-0.2-0.3-0.3-0.5-0.4
					c-0.2-0.1-0.4-0.2-0.6-0.2c-0.2-0.1-0.4-0.1-0.7-0.1c-0.2,0-0.4,0-0.7,0.1c-0.2,0.1-0.4,0.2-0.6,0.3c-0.2,0.1-0.4,0.3-0.5,0.4
					c-0.2,0.2-0.3,0.4-0.4,0.6c-0.1,0.2-0.2,0.4-0.2,0.6c-0.2,0-0.4,0-0.6,0c-0.2,0-0.4,0.1-0.6,0.2c-0.2,0.1-0.3,0.2-0.5,0.3
					c-0.2,0.1-0.3,0.3-0.4,0.4c-0.1,0.2-0.2,0.3-0.3,0.5c-0.1,0.2-0.1,0.4-0.2,0.6c0,0.2,0,0.4,0,0.6c0,0.2,0,0.4,0.1,0.6l-0.8,0.5
					c-0.2,0.1-0.3,0.2-0.4,0.4c-0.1,0.2-0.2,0.3-0.3,0.5c-0.1,0.2-0.1,0.4-0.1,0.6c0,0.2,0,0.4,0.1,0.6c0.1,0.2,0.1,0.4,0.2,0.5
					c0.1,0.2,0.2,0.3,0.4,0.4c0.2,0.1,0.3,0.2,0.5,0.3c0.2,0.1,0.4,0.1,0.6,0.1h0.1l-0.5,0.4c-0.3,0.2-0.5,0.4-0.7,0.7
					c-0.2,0.3-0.2,0.6-0.2,0.9c0,0.2,0,0.4,0.1,0.6c0.1,0.2,0.2,0.4,0.3,0.6c0.3,0.3,0.7,0.6,1.1,0.7h0.2c0.3,0.1,0.5,0.1,0.8,0l0,0
					c0,0.2,0,0.4,0.1,0.7c0.1,0.2,0.2,0.4,0.3,0.6c0.1,0.2,0.3,0.3,0.5,0.4c0.2,0.1,0.4,0.2,0.6,0.2h0.2c0.3,0.1,0.6,0.1,0.9,0
					c0.3,0,0.6-0.2,0.8-0.3l1.9-1.4c0,0,0,0.1,0,0.1c0.1,0.2,0.1,0.3,0.2,0.4c0.1,0.1,0.2,0.2,0.3,0.3c0.1,0.1,0.3,0.2,0.4,0.2
					c0.2,0.1,0.3,0.1,0.5,0.1c0.6,0,1.2-0.2,1.6-0.5l2.5-1.9c0,0.1,0.1,0.1,0.2,0.2l0.2,0.2c0.1,0.1,0.1,0.1,0.2,0.2l0.2,0.1
					l0.2,0.1l0.2,0.1h0.2c0.1,0,0.2,0,0.2,0h0.3l0.2-0.1l0.2-0.1l0.2-0.1c0.1,0,0.1-0.1,0.2-0.1c0.1-0.1,0.1-0.1,0.2-0.2l0.2-0.2
					l0.1-0.2h0.3c0.2,0,0.3,0,0.5,0c0.2,0,0.3-0.1,0.5-0.1c0.1-0.1,0.3-0.1,0.4-0.2c0.1-0.1,0.3-0.2,0.4-0.3
					c0.1-0.1,0.2-0.2,0.3-0.4c0.1-0.1,0.2-0.3,0.2-0.4c0.1-0.2,0.1-0.3,0.2-0.5c0-0.2,0-0.3,0-0.5c0-0.1,0-0.2,0-0.3l1.4,0.5
					c0.7,0.2,1.4,0.3,2.2,0.3h1.9c0.7,0,1.5-0.1,2.2-0.4c0.7-0.2,1.3-0.6,1.9-1l0.3-0.3h0.1l0.3-0.4h0.3v-1h-0.5
					c-0.1,0-0.3,0.1-0.3,0.1l-0.5,0.5L551,25c-0.5,0.4-1.1,0.7-1.6,0.9c-0.6,0.2-1.2,0.3-1.8,0.3h-1.9c-0.6,0-1.2-0.1-1.8-0.3
					l-1-0.3c0.4-0.3,0.8-0.5,1.1-0.8l2.4-2.1h6.4v-1h-6.5c-0.1,0-0.2,0-0.3,0.1l-2.5,2.2c-0.5,0.5-1.1,0.9-1.7,1.2
					c-0.1-0.2-0.3-0.4-0.5-0.5c-0.2-0.1-0.4-0.3-0.6-0.3c-0.5-0.2-1-0.2-1.4-0.1c-0.2,0-0.5,0.1-0.7,0.3c-0.2,0.1-0.4,0.3-0.6,0.5
					c-0.2,0.2-0.3,0.4-0.4,0.6c-0.1,0.2-0.2,0.4-0.2,0.7c-0.2,0.1-0.4,0.1-0.6,0.3c-0.2,0.1-0.4,0.3-0.5,0.5
					c-0.1,0.2-0.2,0.4-0.3,0.6c-0.1,0.2-0.1,0.4-0.1,0.7c0,0,0,0.1,0,0.1l-2.7,2.1c-0.3,0.2-0.6,0.3-1,0.3c-0.1,0-0.2,0-0.3-0.1
					c-0.1-0.1-0.2-0.2-0.2-0.3c-0.1-0.3,0-0.5,0.2-0.7l4.9-3.6c0.1,0,0.1-0.1,0.1-0.1c0-0.1,0.1-0.1,0.1-0.2c0-0.1,0-0.1,0-0.2
					c0-0.1,0-0.1-0.1-0.2c0-0.1-0.1-0.1-0.2-0.1c-0.1,0-0.1-0.1-0.2-0.1c-0.1,0-0.1,0-0.2,0c-0.1,0-0.1,0-0.2,0.1l-8,5.8
					c-0.2,0.2-0.6,0.2-0.9,0.2h-0.2c-0.1,0-0.2-0.1-0.3-0.1c-0.1-0.1-0.2-0.1-0.2-0.2c-0.1-0.1-0.1-0.2-0.2-0.3
					c0-0.1-0.1-0.2-0.1-0.3c0-0.2,0.1-0.5,0.2-0.6l8.1-5.5c0.1,0,0.1-0.1,0.1-0.1c0-0.1,0.1-0.1,0.1-0.2c0-0.1,0-0.1,0-0.2
					c0-0.1,0-0.1-0.1-0.2c0-0.1-0.1-0.1-0.1-0.1c-0.1,0-0.1-0.1-0.2-0.1c-0.1,0-0.1,0-0.2,0c-0.1,0-0.1,0-0.2,0.1l-7.9,5.3
					c-0.1,0.1-0.2,0.1-0.3,0.2l-0.3,0.2c-0.2,0.2-0.6,0.2-0.9,0.2h-0.2c-0.1,0-0.2-0.1-0.3-0.1c-0.1-0.1-0.2-0.1-0.2-0.2
					c-0.1-0.1-0.1-0.2-0.2-0.3c0-0.1-0.1-0.2-0.1-0.3c0-0.2,0-0.3,0.1-0.5c0.1-0.1,0.2-0.3,0.3-0.3l8.4-5.8c0.1,0,0.1-0.1,0.1-0.1
					c0-0.1,0.1-0.1,0.1-0.2c0-0.1,0-0.1,0-0.2c0-0.1,0-0.1-0.1-0.2c0-0.1-0.1-0.1-0.1-0.1c-0.1,0-0.1-0.1-0.2-0.1h-0.2
					c-0.1,0-0.1,0-0.2,0.1l-6,3.9c-0.6,0.4-1.3,0.6-2,0.6c-0.2,0-0.3-0.1-0.5-0.2c-0.1-0.1-0.2-0.2-0.3-0.4c-0.1-0.3,0-0.7,0.3-0.9
					l6.5-4.1h0l1.2-1c0,0,0,0.1,0,0.1c0,0.1,0,0.3,0,0.4c0,0.1,0.1,0.3,0.1,0.4c0,0.1,0.1,0.2,0.2,0.4c0.1,0.1,0.2,0.2,0.2,0.3
					c0.1,0.1,0.2,0.2,0.3,0.2c0.1,0.1,0.2,0.1,0.3,0.2c0.1,0.1,0.2,0.1,0.4,0.1c0.1,0,0.3,0,0.4,0c0.5,0,1-0.2,1.3-0.5
					c0.2,0,0.4,0,0.6-0.1c0.1,0,0.2-0.1,0.3-0.1c0.1,0,0.2-0.1,0.3-0.2c0.1-0.1,0.2-0.2,0.2-0.2c0.1-0.1,0.1-0.2,0.2-0.3
					c0-0.1,0.1-0.2,0.1-0.3c0-0.1,0-0.2,0-0.3c0-0.1,0-0.2,0-0.3c0-0.1-0.1-0.2-0.1-0.3c0-0.1-0.1-0.2-0.2-0.3
					c-0.1-0.1-0.1-0.2-0.2-0.2c-0.1-0.1-0.2-0.1-0.3-0.2l-0.3-0.1c-0.1,0-0.2,0-0.3-0.1c-0.1,0-0.2,0-0.3,0
					c-0.3-0.3-0.7-0.5-1.1-0.5l3.1-2.7l-0.7-0.8l-1,0.8l-3.7-0.6c-0.3,0-0.6-0.1-0.8-0.3c-0.2-0.1-0.5-0.3-0.6-0.6
					c-0.2-0.2-0.3-0.5-0.4-0.7c-0.1-0.3-0.1-0.5-0.1-0.8l9.5,1.4L542.6,14.1C542.5,14.1,542.6,14.1,542.6,14.1L542.6,14.1z"/>
				<path class="st0" d="M539.5,17.1c0.2,0,0.3,0.1,0.4,0.3c0.1,0.1,0.2,0.3,0.2,0.5c0,0.1,0,0.1,0,0.2l-0.1,0.2
					c0,0.1-0.1,0.1-0.1,0.1c0,0-0.1,0.1-0.1,0.1c0,0-0.1,0.1-0.2,0.1l-0.2,0c-0.1,0-0.1,0-0.2,0c-0.1,0-0.1,0-0.2,0
					c-0.1,0-0.1,0-0.2-0.1l-0.1-0.1l-0.1-0.1c0-0.1-0.1-0.1-0.1-0.2c0-0.1,0-0.1,0-0.2c0-0.1,0-0.1,0-0.2c0-0.1,0-0.1,0.1-0.2
					c0-0.1,0.1-0.1,0.1-0.2c0.1-0.1,0.1-0.2,0.1-0.3c0-0.1,0-0.2,0-0.3c0-0.1-0.1-0.2-0.2-0.2c-0.1-0.1-0.2-0.1-0.3-0.1h-0.1
					c-0.1,0-0.1,0-0.2,0c-0.1,0-0.2,0-0.2,0c-0.1,0-0.2-0.1-0.2-0.1c-0.1,0-0.1-0.1-0.2-0.1c-0.1-0.1-0.1-0.1-0.2-0.2
					c0-0.1-0.1-0.2-0.1-0.2c0-0.1,0-0.2,0-0.2c0-0.1,0-0.2,0-0.3c0-0.1,0-0.2,0.1-0.2c0-0.1,0.1-0.1,0.1-0.2
					c0.1-0.1,0.1-0.1,0.2-0.2c0.1,0,0.1-0.1,0.2-0.1c0.1,0,0.2-0.1,0.2-0.1h0.2c0.1,0,0.2,0,0.2,0.1c0.1,0,0.2,0.1,0.2,0.1
					c0.1,0,0.1,0.1,0.2,0.2c0.1,0.2,0.4,0.2,0.6,0.2c0.1,0,0.1,0,0.2,0c0.1,0,0.1,0,0.2,0c0.1,0.1,0.2,0.1,0.3,0.3
					c0,0.1,0,0.1,0,0.2c0,0.1,0,0.1,0,0.2c0,0.1-0.1,0.1-0.1,0.2c0,0-0.1,0.1-0.2,0.1c-0.1,0-0.1,0-0.2,0c-0.1,0-0.2,0-0.3,0.1
					c-0.1,0.1-0.2,0.2-0.2,0.3c0,0.1,0,0.3,0.1,0.4C539.3,17,539.4,17.1,539.5,17.1L539.5,17.1z M539.4,14.1
					c-0.4-0.3-0.8-0.5-1.3-0.5c-0.2,0-0.5,0-0.7,0.1c-0.2,0.1-0.4,0.2-0.6,0.4c-0.4,0.3-0.6,0.8-0.7,1.3c0,0.2,0,0.5,0,0.7
					c0,0.2,0.2,0.5,0.3,0.7c0.1,0.2,0.3,0.4,0.5,0.5c0.2,0.1,0.4,0.2,0.7,0.3c-0.1,0.2-0.1,0.5,0,0.7c0,0.1,0.1,0.2,0.1,0.3
					c0.2,0.3,0.4,0.6,0.7,0.8c0.1,0.1,0.2,0.1,0.3,0.1c0.1,0,0.2,0.1,0.4,0.1c0.1,0,0.2,0,0.4,0c0.1,0,0.2,0,0.4-0.1
					c0.1,0,0.2-0.1,0.3-0.1c0.1-0.1,0.2-0.1,0.3-0.2c0.1-0.1,0.2-0.2,0.2-0.3c0.1-0.2,0.2-0.4,0.3-0.7c0-0.1,0-0.2,0-0.4
					c0-0.4-0.2-0.9-0.5-1.2c0.1-0.1,0.2-0.2,0.3-0.4c0.1-0.1,0.1-0.3,0.2-0.4c0-0.2,0-0.3,0-0.5c0-0.2-0.1-0.3-0.1-0.4
					c-0.1-0.1-0.2-0.3-0.3-0.4c-0.1-0.1-0.2-0.2-0.4-0.3c-0.1-0.1-0.3-0.1-0.4-0.1C539.7,14.1,539.5,14.1,539.4,14.1L539.4,14.1z"/>
				<path class="st0" d="M537,6.5c1.2-0.1,2.3,0.4,3.1,1.3l0.8-0.6c-2-2.2-5.4-2.3-7.6-0.3c-0.1,0.1-0.2,0.2-0.3,0.3l0.8,0.6
					C534.7,6.9,535.9,6.5,537,6.5z"/>
				<path class="st0" d="M537,7.1c-0.3,0-0.6,0-0.9,0.1c-0.3,0.1-0.6,0.2-0.8,0.4c-0.3,0.2-0.5,0.3-0.7,0.6
					c-0.2,0.2-0.4,0.5-0.5,0.7l0.9,0.4c0.1-0.2,0.2-0.4,0.4-0.5c0.1-0.1,0.3-0.3,0.5-0.4c0.2-0.1,0.4-0.2,0.6-0.2
					c0.2-0.1,0.4-0.1,0.6-0.1c0.2,0,0.4,0,0.6,0.1c0.4,0.1,0.8,0.3,1.1,0.6c0.1,0.2,0.3,0.3,0.4,0.5l0.9-0.4
					c-0.1-0.3-0.3-0.5-0.5-0.7c-0.2-0.2-0.4-0.4-0.7-0.6c-0.3-0.2-0.5-0.3-0.8-0.4C537.7,7.1,537.4,7,537,7.1z"/>
				<path class="st0" d="M547.1,30.7c-1.2,0.1-2.4-0.4-3.1-1.3l-0.8,0.6c2,2.2,5.4,2.3,7.5,0.3c0.1-0.1,0.2-0.2,0.3-0.3l-0.8-0.6
					C549.5,30.3,548.3,30.8,547.1,30.7z"/>
				<path class="st0" d="M547.1,30.2c0.3,0,0.6,0,0.9-0.1c0.3-0.1,0.6-0.2,0.8-0.4c0.3-0.2,0.5-0.4,0.7-0.6c0.2-0.2,0.4-0.5,0.5-0.7
					l-0.9-0.4c-0.1,0.2-0.2,0.4-0.4,0.5c-0.1,0.1-0.3,0.3-0.5,0.4c-0.4,0.2-0.8,0.3-1.2,0.3c-0.2,0-0.4,0-0.6-0.1
					c-0.2-0.1-0.4-0.1-0.6-0.2c-0.2-0.1-0.3-0.2-0.5-0.4c-0.1-0.2-0.3-0.3-0.4-0.5l-0.9,0.4c0.1,0.3,0.3,0.5,0.5,0.7
					c0.2,0.2,0.4,0.4,0.7,0.6c0.3,0.2,0.5,0.3,0.8,0.4C546.5,30.2,546.8,30.2,547.1,30.2z"/>
			</g>
		</g>
		<line class="st21" x1="517.1" y1="23.3" x2="478.9" y2="57"/>
		<polygon class="st22" points="519.2,26.9 520.7,19.8 513.6,20.4 		"/>
		<path class="st22" d="M473.5,61.7c-0.2-0.2-0.4-0.4-0.5-0.7c-0.1-0.2-0.3-0.5-0.4-0.8c-0.1-0.3-0.2-0.5-0.2-0.8c0-0.3,0-0.6,0-0.8
			c0-0.3,0.1-0.6,0.1-0.8c0.3-1.1,1-2,2-2.6c0.2-0.1,0.5-0.3,0.8-0.3c0.3-0.1,0.5-0.2,0.8-0.2c0.3,0,0.6,0,0.8,0
			c0.3,0,0.6,0.1,0.8,0.1c0.3,0.1,0.5,0.2,0.8,0.3c0.3,0.1,0.5,0.3,0.7,0.5c0.2,0.2,0.4,0.4,0.6,0.6c0.2,0.2,0.3,0.4,0.5,0.7
			c0.1,0.2,0.3,0.5,0.4,0.8c0.1,0.3,0.2,0.5,0.2,0.8c0,0.3,0,0.6,0,0.8c0,0.3-0.1,0.6-0.1,0.8c-0.1,0.5-0.4,1.1-0.7,1.5
			c-0.2,0.2-0.4,0.4-0.6,0.6c-0.2,0.2-0.4,0.4-0.7,0.5c-0.2,0.1-0.5,0.3-0.8,0.3c-0.3,0.1-0.5,0.2-0.8,0.2c-0.3,0-0.6,0-0.9,0
			c-0.3,0-0.6-0.1-0.8-0.1c-0.3-0.1-0.5-0.2-0.8-0.3c-0.3-0.1-0.5-0.3-0.7-0.5C473.9,62.1,473.7,61.9,473.5,61.7z"/>
		<path d="M593.8,48c1.4,0.3,2.6,1,3.5,2c2.1,2.4,1.9,6-0.5,8.1c-1.2,1.1-2.9,1.6-4.5,1.4c-3.2-0.4-5.4-3.2-5-6.4
			c0.3-2.5,2.2-4.6,4.8-5c0.1,0,0.2,0,0.3-0.1L593.8,48z"/>
		<path d="M597.2,82.3c-0.3,2.8-0.6,5.5-0.8,8.1c-0.1,1.2-0.5,2.3-1.2,3.3c-1.4,2.2-2.8,4.4-4.1,6.6c-0.8,1.3-2.4,1.8-3.8,1
			c-0.4-0.2-0.8-0.6-1-1c-0.4-0.7-0.4-1.6,0.1-2.2c1.4-2.2,2.8-4.4,4.1-6.6c0.4-0.7,0.7-1.4,0.9-2.2c0.1-0.2,0.1-0.4,0.1-0.7
			c0-2.4,0.1-4.8,0.1-7.3c0-0.1,0-0.2,0-0.3c-1.2,0-2.3-0.7-2.8-1.8c-1.3-1.9-2.6-3.7-3.9-5.6c-0.7-0.9-0.8-2.1-0.2-3.1
			c1.3-2.4,2.7-4.8,4-7.2c0.5-1,1.6-1.6,2.7-1.7c2.3-0.2,4.6-0.4,6.9-0.6c0.9-0.2,1.9,0.3,2.1,1.3c0,0.1,0,0.2,0,0.3
			c0.5,2.7,1,5.4,1.5,8.1c0.2,1,0.4,1.1,1.4,1.1s2.3,0,3.4,0c0.8,0,1.6,0.5,1.9,1.3c0.3,0.9-0.1,1.9-1,2.2c-0.2,0.1-0.4,0.1-0.6,0.1
			c-1.8,0.2-3.5,0.2-5.2,0.4c-0.3,0-0.8,0.1-0.8,0.2c0,0.4,0,0.9,0.2,1.3c1.4,1.8,2.9,3.7,4.5,5.4c1.5,1.6,2.3,3.7,2.4,5.9
			c0.1,1.8,0.3,3.6,0.5,5.4c0.2,1.2-0.5,2.5-1.7,2.9c-0.4,0.2-0.7,0.3-1.1,0.4c-0.8,0.3-1.7-0.1-1.9-0.9c0-0.1-0.1-0.2-0.1-0.3
			c-0.2-1.4-0.3-2.8-0.5-4.1c-0.1-1.2-0.2-2.4-0.4-3.6c-0.1-0.8-0.5-1.6-1.1-2.2c-1.3-1.3-2.7-2.7-4-4
			C597.7,82.5,597.5,82.4,597.2,82.3z M591.3,68.5c-0.1,0.1-0.2,0.1-0.2,0.1c-0.7,1-1.4,2.1-2.1,3.1c-0.3,0.4-0.3,1,0.1,1.4
			c0.5,0.7,1,1.3,1.5,2c0.2,0.3,0.5,0.6,0.9,1.1L591.3,68.5z"/>
		<path d="M596.3,103.3v-2.1c0-0.3,0-0.7,0-1c0-1.2,0.5-1.7,1.7-1.7c2.4,0,4.9,0,7.3,0h5.5c0-0.6,0-1.3,0-1.9c0-1.1,0-2.3,0-3.4
			c0-0.2,0-0.4,0-0.6c0.1-0.6,0.6-1,1.2-1c0.6,0,1.1,0.5,1.1,1.2c0,0,0,0,0,0c0,0.8,0,1.6,0,2.4c0,1.2,0,2.4-0.1,3.6
			c0,1.5-0.4,1.9-2,1.9h-12.5v2.6c0,2-0.3,2.3-2.3,2.3h-13.5v2.6c0,0.3,0,0.6,0,0.8c-0.1,0.6-0.6,1-1.2,1c-0.6,0-1.1-0.5-1.1-1.1
			c0-0.7,0-1.4,0-2.1s0-1.2,0-1.8c0-1.2,0.5-1.7,1.7-1.7L596.3,103.3L596.3,103.3z"/>
		<g>
			<defs>
				<rect id="SVGID_00000084526502017046351960000008399887699711935880_" x="656.6" y="94.5" width="31.4" height="32.3"/>
			</defs>
			<clipPath id="SVGID_00000111887996781554800660000016714900721635563151_">
				<use xlink:href="#SVGID_00000084526502017046351960000008399887699711935880_"  style="overflow:visible;"/>
			</clipPath>
			<g style="clip-path:url(#SVGID_00000111887996781554800660000016714900721635563151_);">
				<path class="st7" d="M687.9,117.1v2h-0.5l-0.5,0.5l-0.3,0.2c-0.5,0.4-1.1,0.7-1.8,0.9c-0.6,0.2-1.3,0.3-2,0.3h-1.9
					c-0.7,0-1.4-0.1-2-0.3l-2-0.7c0.7-0.3,1.4-0.8,2-1.3l2.5-2.2h6.5L687.9,117.1z"/>
				<path class="st8" d="M676.8,120.2c-0.5,0.2-0.9,0.4-1.4,0.6c-1.1,0.3-2,0.8-2.9,1.4l-4.1,3.1c-0.4,0.3-0.8,0.5-1.3,0.4
					c-0.1,0-0.2,0-0.3-0.1c-0.1,0-0.2-0.1-0.3-0.2c-0.1-0.1-0.2-0.2-0.2-0.2c-0.1-0.1-0.1-0.2-0.2-0.3c0-0.1,0-0.2,0-0.3
					c0-0.1,0-0.2,0.1-0.3c0-0.1,0.1-0.2,0.2-0.3c0.1-0.1,0.2-0.2,0.2-0.2l4.9-3.6l-8,5.8c-0.2,0.1-0.4,0.2-0.6,0.2
					c-0.2,0.1-0.4,0.1-0.7,0h-0.2c-0.3-0.1-0.6-0.3-0.8-0.5c-0.1-0.1-0.2-0.3-0.2-0.5c-0.1-0.2-0.1-0.4-0.1-0.5
					c0-0.2,0.1-0.3,0.1-0.5c0.1-0.2,0.2-0.3,0.3-0.4l8.1-5.5l-7.9,5.3c-0.1,0.1-0.2,0.1-0.2,0.2l-0.3,0.2c-0.2,0.1-0.4,0.2-0.6,0.2
					c-0.2,0-0.4,0-0.7,0h-0.2c-0.3-0.1-0.6-0.3-0.8-0.5c-0.2-0.3-0.3-0.6-0.3-0.9c0-0.5,0.3-1,0.7-1.2l8.4-5.8l-6,3.9
					c-0.7,0.4-1.4,0.7-2.2,0.7c-0.1,0-0.3,0-0.4-0.1c-0.1,0-0.3-0.1-0.4-0.2c-0.2-0.2-0.4-0.4-0.5-0.7c0-0.1,0-0.3,0-0.4
					c0-0.1,0-0.3,0.1-0.4c0-0.2,0.1-0.3,0.2-0.5c0.1-0.1,0.2-0.2,0.3-0.3l6.5-4.2l5.4-4.6l-4-0.6c-0.2,0-0.3-0.1-0.5-0.1
					c-0.2-0.1-0.3-0.1-0.5-0.2c-0.1-0.1-0.3-0.2-0.4-0.3c-0.1-0.1-0.3-0.2-0.4-0.4c-0.1-0.1-0.2-0.3-0.3-0.4
					c-0.1-0.2-0.2-0.3-0.2-0.5c-0.1-0.2-0.1-0.3-0.1-0.5c0-0.2,0-0.3,0-0.5c0-0.1,0-0.1,0-0.2c0-0.1,0.1-0.1,0.1-0.2
					c0-0.1,0.1-0.1,0.2-0.1c0.1,0,0.1,0,0.2,0h0.1l9.5,1.5l4,1.6h10.1v8.6h-6.5l-2.5,2.2C678.2,119.4,677.6,119.8,676.8,120.2z"/>
				<path class="st7" d="M684.4,108.1h-6.5l-1-1c-0.3-0.3-0.5-0.7-0.5-1.2c0-0.5,0.2-0.9,0.5-1.3c0.1-0.2,0.3-0.3,0.5-0.4
					c0.2-0.1,0.4-0.1,0.6-0.1c0.3,0,0.6,0.1,0.8,0.2l3.2,2.1L684.4,108.1z"/>
				<path class="st9" d="M674.8,111.1l0.3,0.1l0.2,0.1c0.1,0.1,0.1,0.1,0.2,0.2c0.1,0.1,0.1,0.1,0.2,0.2c0,0.1,0.1,0.2,0.1,0.3
					c0,0.1,0,0.2,0,0.3c0,0.1,0,0.2,0,0.3c0,0.1,0,0.2-0.1,0.3c-0.1,0.2-0.2,0.4-0.3,0.5c-0.2,0.1-0.3,0.2-0.5,0.3h-0.3
					c-0.1,0-0.2,0-0.3,0l-0.3-0.1c-0.1,0-0.2-0.1-0.2-0.2c-0.1-0.1-0.1-0.1-0.2-0.2c-0.1-0.1-0.1-0.2-0.2-0.2c0-0.1-0.1-0.2-0.1-0.3
					c0-0.1,0-0.2,0-0.3c0-0.3,0.1-0.6,0.3-0.8c-0.1,0-0.2,0-0.3,0c-0.2,0-0.4,0-0.5-0.1c-0.4-0.1-0.6-0.4-0.8-0.7
					c-0.1-0.2-0.1-0.4-0.2-0.5c0-0.2,0-0.4,0.1-0.6c0.1-0.2,0.1-0.4,0.3-0.5c0.1-0.2,0.3-0.3,0.4-0.4c0.2-0.1,0.3-0.2,0.5-0.2
					c0.3,0,0.5,0,0.8,0.1c0.3,0.1,0.5,0.3,0.6,0.5c0.1,0,0.2-0.1,0.3-0.1c0.1,0,0.3,0,0.4,0.1c0.3,0.1,0.4,0.3,0.5,0.6
					c0.1,0.1,0.1,0.2,0.1,0.4c0,0.1,0,0.3-0.1,0.4c0,0.1-0.1,0.2-0.2,0.3c-0.1,0.1-0.2,0.2-0.3,0.2C675.1,111,675,111.1,674.8,111.1
					z"/>
				<path class="st7" d="M673.3,112.4c0-0.3,0.1-0.6,0.3-0.8c-0.1,0-0.2,0-0.3,0c-0.1,0-0.2,0-0.3,0c-0.1,0-0.2-0.1-0.3-0.1
					l-0.3-0.2c-0.1-0.1-0.2-0.1-0.2-0.2c-0.1-0.1-0.1-0.2-0.2-0.3c-0.1-0.1-0.1-0.2-0.1-0.3c0-0.1,0-0.2,0-0.3c0-0.1,0-0.2,0-0.3
					c0-0.2,0.1-0.4,0.2-0.5c-0.1,0.1-0.3,0.2-0.4,0.3c-0.1,0.1-0.2,0.3-0.2,0.4c-0.1,0.2-0.1,0.3-0.1,0.5c0,0.2,0,0.3,0,0.5
					c0.1,0.2,0.1,0.3,0.2,0.4c0.3,0.4,0.7,0.7,1.2,0.7c0.1,0,0.2,0,0.3,0c-0.2,0.2-0.3,0.5-0.3,0.8c0,0.1,0,0.2,0,0.3
					c0,0.1,0.1,0.2,0.1,0.3c0,0.1,0.1,0.2,0.2,0.2c0.1,0.1,0.1,0.1,0.2,0.2c0.1,0.1,0.2,0.1,0.2,0.2c0.1,0,0.2,0.1,0.3,0.1
					c0.1,0,0.2,0,0.3,0c0.1,0,0.2,0,0.3,0c0.3-0.1,0.6-0.3,0.8-0.6c-0.1,0-0.2,0.1-0.3,0.1h-0.3c-0.1,0-0.2,0-0.3,0l-0.3-0.1
					c-0.1,0-0.2-0.1-0.2-0.2c-0.1-0.1-0.1-0.1-0.2-0.2c-0.1-0.1-0.1-0.2-0.2-0.2c0-0.1-0.1-0.2-0.1-0.3
					C673.3,112.6,673.3,112.5,673.3,112.4z"/>
				<path class="st9" d="M669.8,112.1c0.1,0,0.3,0,0.4,0.1c0.3,0.1,0.4,0.3,0.5,0.6c0.1,0.1,0.1,0.2,0.1,0.4c0,0.1,0,0.3-0.1,0.4
					c0,0.1-0.1,0.2-0.2,0.3c-0.1,0.1-0.2,0.2-0.3,0.2c-0.1,0.1-0.2,0.1-0.4,0.1c-0.1,0-0.2,0-0.3-0.1c-0.1,0.2-0.3,0.3-0.5,0.4
					c-0.2,0.1-0.4,0.1-0.7,0.2c-0.2,0-0.4,0-0.6-0.1c-0.5-0.2-0.8-0.7-0.9-1.2c0-0.2,0-0.3,0-0.5c0-0.2,0.1-0.3,0.2-0.5
					c0.1-0.1,0.2-0.3,0.3-0.4c0.1-0.1,0.3-0.2,0.5-0.2c0.2-0.1,0.3-0.1,0.5-0.1c0.2,0,0.4,0.1,0.7,0.2c0.2,0.1,0.4,0.2,0.5,0.4
					C669.5,112.1,669.7,112.1,669.8,112.1z"/>
				<path class="st10" d="M665.4,113l-0.7,0.6l-5.3,3.4c-0.2-0.3-0.2-0.6-0.2-0.9c0-0.2,0-0.4,0.1-0.7c0.1-0.2,0.2-0.4,0.3-0.6
					c0.1-0.2,0.3-0.3,0.5-0.4c0.2-0.1,0.4-0.2,0.6-0.3c0.2,0,0.3-0.1,0.5-0.1c0.2,0,0.3,0,0.5,0.1c0,0,0,0,0-0.1c0-0.1,0-0.3,0-0.4
					c0-0.1,0.1-0.2,0.1-0.4c0-0.1,0.1-0.2,0.2-0.3c0.1-0.1,0.2-0.2,0.2-0.3l0.3-0.2c0.1-0.1,0.2-0.1,0.3-0.2
					c0.1-0.1,0.3-0.1,0.4-0.1c0.1,0,0.3,0,0.4,0c0.3,0,0.7,0.1,1,0.2C665,112.5,665.2,112.7,665.4,113z"/>
				<path class="st11" d="M664.4,107.5c-0.4-0.5-0.7-1.2-0.7-1.9c0-0.1,0-0.1,0-0.2c0-0.1,0.1-0.1,0.1-0.2c0.1,0,0.1-0.1,0.2-0.1
					c0.1,0,0.1,0,0.2,0l1.4,0.2v-0.2v-5.6h-5v14.7c0.2,0,0.3-0.1,0.5-0.1c0.2,0,0.3,0,0.5,0.1c0,0,0,0,0-0.1c0-0.1,0-0.3,0-0.4
					c0-0.1,0.1-0.2,0.1-0.4c0-0.1,0.1-0.2,0.2-0.3c0.1-0.1,0.2-0.2,0.2-0.3l0.3-0.2c0.1-0.1,0.2-0.1,0.3-0.2
					c0.1-0.1,0.3-0.1,0.4-0.1c0.1,0,0.3,0,0.4,0c0.3,0,0.7,0.1,1,0.2c0.3,0.2,0.5,0.4,0.7,0.7l0.3-0.3v-4.4
					C665.2,108.2,664.7,107.9,664.4,107.5z"/>
				<path class="st12" d="M681.4,116.6l-2.5,2.2c-0.6,0.5-1.3,1-2,1.3l2,0.7h0.1c-0.1-0.1-0.1-0.2-0.1-0.3c0-0.1,0-0.2,0.1-0.3
					c0.1-0.1,0.1-0.2,0.2-0.2c0.9-0.6,1.8-1.2,2.7-1.9c0.4-0.3,0.8-0.4,1.3-0.4h3c0.2,0,0.4,0,0.5,0.1c0.4,0.1,0.6,0.4,0.8,0.8
					c0.1,0.2,0.1,0.4,0.1,0.6v0.1h0.5v-2.5L681.4,116.6z"/>
				<path class="st12" d="M682.9,107.1h-3.7c-0.3,0-0.5-0.1-0.7-0.3l-0.9-0.9c-0.1-0.1-0.2-0.2-0.3-0.4c-0.1-0.1-0.1-0.3-0.1-0.4
					c0-0.1,0-0.3,0-0.4c0-0.1,0.1-0.3,0.1-0.4c-0.2,0.1-0.4,0.2-0.5,0.4c-0.3,0.4-0.5,0.8-0.5,1.3c0,0.4,0.2,0.9,0.5,1.2l1,1h6.5
					L682.9,107.1z"/>
				<path class="st7" d="M670.3,107.9l-5.1-1c-0.2,0-0.4-0.1-0.5-0.2c-0.2-0.1-0.3-0.2-0.4-0.3c-0.1-0.1-0.2-0.3-0.3-0.4
					c-0.1-0.2-0.1-0.3-0.2-0.5c0,0.1,0,0.1,0,0.2c0,0.2,0,0.3,0,0.5c0,0.2,0.1,0.3,0.1,0.5c0.1,0.2,0.1,0.3,0.2,0.5
					c0.1,0.1,0.2,0.3,0.3,0.4c0.1,0.1,0.2,0.3,0.4,0.4c0.1,0.1,0.3,0.2,0.4,0.3c0.1,0.1,0.3,0.2,0.5,0.2c0.2,0.1,0.3,0.1,0.5,0.1
					l4,0.6l0.4-0.3c0.1-0.1,0.1-0.1,0.2-0.2c0-0.1,0-0.2,0-0.3c0-0.1-0.1-0.2-0.1-0.2C670.4,107.9,670.4,107.9,670.3,107.9z"/>
				<path class="st7" d="M685.4,108.1v3.1c0,0.2,0,0.4,0,0.6c0,0.2-0.1,0.4-0.2,0.6c-0.1,0.2-0.2,0.3-0.3,0.5
					c-0.1,0.2-0.2,0.3-0.4,0.4c-0.1,0.1-0.3,0.3-0.5,0.4c-0.2,0.1-0.3,0.2-0.5,0.3c-0.4,0.1-0.7,0.2-1.1,0.2c-0.3,0-0.6,0.1-0.9,0.2
					c-0.3,0.1-0.5,0.4-0.7,0.6c-1,1.4-3.1,4.2-5,4.2c0,0-3,1-4,2l-4.9,3.5c-0.1,0.1-0.3,0.2-0.5,0.2c-0.2,0-0.3,0-0.5-0.1
					c0,0.1,0,0.1,0,0.2c0.1,0.2,0.2,0.4,0.4,0.5c0.2,0.1,0.4,0.2,0.6,0.2c0.5,0,0.9-0.2,1.3-0.4l4.1-3.1c0.9-0.7,1.9-1.1,2.9-1.4
					c0.5-0.1,1-0.3,1.4-0.6c0.7-0.3,1.4-0.8,2-1.3l2.5-2.2h6.5v-8.6L685.4,108.1z"/>
				<path class="st7" d="M665.8,115.2l-6.4,4.1c-0.2,0.2-0.5,0.2-0.8,0.2c-0.3,0-0.6-0.1-0.8-0.2c0.2,0.5,0.7,0.8,1.2,0.8
					c0.8,0,1.6-0.2,2.2-0.7l6-3.9c-0.1-0.1-0.2-0.2-0.3-0.3c-0.1-0.1-0.2-0.2-0.4-0.2c-0.1,0-0.3,0-0.4,0
					C666,115.1,665.9,115.2,665.8,115.2z"/>
				<path class="st7" d="M669.1,120l-7,5.1c-0.1,0.1-0.2,0.1-0.3,0.2c-0.1,0-0.2,0-0.4,0c-0.1,0-0.2,0-0.3-0.1
					c-0.1,0-0.2-0.1-0.3-0.2c0,0.2,0.2,0.5,0.3,0.7c0.2,0.3,0.5,0.4,0.8,0.5h0.2c0.2,0.1,0.4,0.1,0.7,0c0.2,0,0.4-0.1,0.6-0.2
					l2.1-1.5l5.8-4.2c-0.1-0.1-0.3-0.3-0.5-0.3c-0.2-0.1-0.4-0.1-0.6-0.2c-0.2,0-0.4,0-0.6,0C669.4,119.7,669.3,119.8,669.1,120z"/>
				<path class="st9" d="M676.6,120.3c0.1,0.3,0.2,0.6,0.2,0.9c0,0.1,0,0.3,0,0.4c0,0.1-0.1,0.3-0.1,0.4c0,0.1-0.1,0.2-0.2,0.3
					c-0.1,0.1-0.2,0.2-0.2,0.3c-0.1,0.1-0.2,0.2-0.3,0.2c-0.2,0.2-0.5,0.3-0.7,0.3c-0.1,0-0.3,0-0.4,0c-0.2,0-0.4,0-0.6-0.1
					c-0.1,0.2-0.1,0.3-0.2,0.5c-0.1,0.2-0.3,0.3-0.4,0.4c-0.2,0.1-0.3,0.2-0.5,0.2c-0.2,0-0.4,0-0.5,0c-0.2,0-0.4-0.1-0.5-0.2
					c-0.2-0.1-0.3-0.2-0.4-0.4c-0.1-0.2-0.2-0.3-0.2-0.5c-0.1-0.2-0.1-0.4,0-0.6c0-0.2,0.1-0.4,0.2-0.5c0.1-0.2,0.2-0.3,0.3-0.4
					c0.1-0.1,0.3-0.2,0.5-0.3c0.2-0.1,0.4-0.1,0.5-0.1c0-0.1,0-0.3,0-0.4c0-0.1,0.1-0.3,0.1-0.4c0-0.1,0.1-0.2,0.2-0.3
					c0.1-0.1,0.2-0.2,0.2-0.3c0.1-0.1,0.2-0.2,0.3-0.2c0.1-0.1,0.2-0.1,0.3-0.2c0.2-0.1,0.5-0.2,0.8-0.2c0.2,0,0.4,0,0.5,0.1
					c0.2,0,0.4,0.1,0.5,0.2c0.2,0.1,0.3,0.2,0.4,0.4C676.4,119.9,676.5,120.1,676.6,120.3z"/>
				<path class="st7" d="M669.3,118.2c-0.1-0.1-0.3-0.3-0.5-0.3c-0.2-0.1-0.4-0.1-0.6-0.2c-0.2,0-0.4,0-0.6,0
					c-0.2,0-0.4,0.1-0.5,0.2l-7.4,5c-0.1,0.1-0.2,0.1-0.4,0.2c-0.1,0-0.3,0-0.4,0c-0.1,0-0.3,0-0.4-0.1c-0.1,0-0.2-0.1-0.3-0.2
					c0,0.2,0.1,0.5,0.3,0.6c0.2,0.3,0.5,0.5,0.8,0.5h0.2c0.2,0,0.4,0,0.7,0c0.2,0,0.4-0.1,0.6-0.2l0.3-0.2l4.6-3.1l0,0L669.3,118.2z
					"/>
				<path class="st10" d="M674.8,119.2c-0.3,0-0.5,0.1-0.8,0.2c-0.1,0-0.2,0.1-0.3,0.2c-0.1,0.1-0.2,0.2-0.3,0.2
					c-0.1,0.1-0.2,0.2-0.2,0.3c-0.1,0.1-0.1,0.2-0.2,0.3c0,0.1-0.1,0.3-0.1,0.4c0,0.1,0,0.3,0,0.4c0.2,0,0.4,0,0.6,0.1
					c0.4,0.2,0.7,0.5,0.8,0.8c0.1,0.2,0.1,0.4,0.1,0.6c0,0.1,0,0.3-0.1,0.4c0.1,0,0.3,0.1,0.4,0.1c0.1,0,0.3,0,0.4,0
					c0.1,0,0.3-0.1,0.4-0.1c0.1-0.1,0.3-0.1,0.4-0.2c0.2-0.2,0.4-0.4,0.6-0.6c0.1-0.1,0.1-0.2,0.2-0.4c0-0.1,0.1-0.3,0.1-0.4
					c0-0.1,0-0.3,0-0.4c0-0.1,0-0.3-0.1-0.4c0-0.1-0.1-0.3-0.2-0.4c-0.1-0.1-0.2-0.3-0.2-0.4c-0.1-0.1-0.2-0.2-0.3-0.3
					c-0.1-0.1-0.2-0.2-0.4-0.2c-0.1-0.1-0.3-0.1-0.4-0.1C675.1,119.2,675,119.2,674.8,119.2z"/>
				<path class="st13" d="M672.8,121.2c-0.2,0-0.4,0-0.5,0.1c-0.2,0.1-0.3,0.2-0.5,0.3c-0.1,0.1-0.3,0.3-0.3,0.4
					c-0.1,0.2-0.1,0.3-0.2,0.5c0,0.2,0,0.4,0,0.6c0,0.2,0.1,0.3,0.2,0.5c0.1,0.2,0.3,0.3,0.4,0.4c0.2,0.1,0.3,0.2,0.5,0.2
					c0.2,0,0.4,0,0.5,0c0.2,0,0.4-0.1,0.5-0.2c0.2-0.1,0.3-0.2,0.4-0.4c0.1-0.1,0.2-0.3,0.2-0.5c-0.2-0.1-0.4-0.2-0.6-0.3
					c-0.2-0.1-0.3-0.3-0.5-0.4c-0.1-0.2-0.2-0.4-0.3-0.6C672.8,121.6,672.8,121.4,672.8,121.2z"/>
				<path class="st14" d="M672.8,121.2c0,0.2,0,0.4,0.1,0.6c0.1,0.2,0.2,0.4,0.3,0.6c0.1,0.2,0.3,0.3,0.5,0.4
					c0.2,0.1,0.4,0.2,0.6,0.3c0-0.1,0.1-0.3,0.1-0.4c0-0.2,0-0.4-0.1-0.6c-0.2-0.4-0.5-0.7-0.8-0.8
					C673.2,121.2,673,121.2,672.8,121.2z"/>
				<path class="st2" d="M674.7,120.1c-0.1,0.1-0.2,0.3-0.1,0.4c0,0,0.1,0.1,0.1,0.1c0.2,0.2,0.5,0.5,0.8,0.7
					c0.1,0.1,0.2,0.1,0.3,0.1h0.1l0,0c0.1-0.1,0.2-0.3,0.2-0.5c0-0.2-0.1-0.5-0.2-0.6c-0.1-0.1-0.1-0.2-0.2-0.2
					c-0.1-0.1-0.2-0.1-0.3-0.1c-0.1,0-0.2,0-0.3,0C674.9,120,674.8,120,674.7,120.1z"/>
				<path class="st13" d="M661.8,114.6c0.4,0,0.7,0.1,1,0.3l2-1.3l0.2-0.1c-0.1-0.1-0.3-0.2-0.4-0.2c-0.2-0.1-0.3-0.1-0.5-0.1
					c-0.2,0-0.3,0-0.5,0c-0.2,0-0.3,0.1-0.5,0.1c-0.2,0.1-0.3,0.1-0.4,0.2c-0.1,0.1-0.3,0.2-0.4,0.3c-0.1,0.1-0.2,0.2-0.3,0.4
					C661.9,114.3,661.9,114.5,661.8,114.6L661.8,114.6z"/>
				<path class="st9" d="M661.7,115.1c0-0.2,0-0.3,0.1-0.5h-0.1c-0.1,0-0.3,0-0.4,0c-0.1,0-0.3,0.1-0.4,0.1
					c-0.1,0.1-0.2,0.1-0.3,0.2c-0.1,0.1-0.2,0.2-0.3,0.2c-0.1,0.1-0.2,0.2-0.2,0.3c-0.1,0.1-0.1,0.2-0.2,0.3
					c-0.1,0.1-0.1,0.2-0.1,0.4c0,0.1,0,0.3,0,0.4c0,0.1,0,0.1,0,0.2l2-1.3C661.7,115.4,661.7,115.2,661.7,115.1z"/>
				<path class="st14" d="M661.7,115.1c0,0.1,0,0.3,0,0.4l1-0.6c-0.3-0.2-0.6-0.3-1-0.3C661.7,114.8,661.7,115,661.7,115.1z"/>
				<path class="st2" d="M662.9,113.1c0,0.1,0,0.1,0,0.2c0,0.1,0.1,0.1,0.2,0.2c0.1,0,0.1,0,0.2,0c0.3,0,0.7,0,1-0.1
					c0.1,0,0.2-0.1,0.3-0.1l0,0c0,0,0-0.1,0-0.1c0-0.2-0.1-0.3-0.2-0.5c-0.2-0.2-0.4-0.3-0.6-0.3c-0.1,0-0.2,0-0.3,0
					c-0.1,0-0.2,0.1-0.3,0.1c-0.1,0.1-0.2,0.1-0.2,0.2C662.8,112.9,662.9,113,662.9,113.1z"/>
				<path class="st10" d="M674.4,111.1L674.4,111.1c-0.1-0.1-0.3-0.3-0.4-0.4c-0.1-0.2-0.2-0.4-0.2-0.6c0-0.4,0.3-0.8,0.7-0.9
					c-0.1-0.1-0.2-0.2-0.3-0.3c-0.1-0.1-0.2-0.1-0.3-0.2c-0.1,0-0.2-0.1-0.4-0.1c-0.1,0-0.3,0-0.4,0c-0.1,0-0.3,0-0.4,0.1
					c-0.1,0-0.2,0.1-0.3,0.2c-0.1,0.1-0.2,0.2-0.3,0.2c-0.1,0.1-0.1,0.2-0.2,0.3c0,0.1-0.1,0.2-0.1,0.4c0,0.1,0,0.3,0,0.4
					c0,0.1,0,0.3,0.1,0.4c0,0.1,0.1,0.2,0.2,0.3c0.1,0.1,0.1,0.2,0.2,0.3c0.1,0.1,0.2,0.2,0.3,0.2c0.1,0.1,0.2,0.1,0.3,0.1
					c0.1,0,0.3,0,0.4,0h0.3C673.8,111.3,674.1,111.1,674.4,111.1z"/>
				<path class="st9" d="M674.4,111.1c-0.3,0-0.6,0.2-0.8,0.5C673.9,111.5,674.2,111.4,674.4,111.1z"/>
				<path class="st9" d="M674.5,111c0.1,0,0.2,0.1,0.2,0.1h0.3c0.1,0,0.2,0,0.2-0.1c0.1,0,0.1-0.1,0.2-0.1l0.2-0.2
					c0-0.1,0.1-0.1,0.1-0.2c0-0.1,0.1-0.2,0.1-0.2c0-0.2,0-0.3,0-0.5c0-0.1-0.1-0.2-0.1-0.2l-0.1-0.2l-0.2-0.2
					c-0.1,0-0.1-0.1-0.2-0.1c-0.1,0-0.2,0-0.2-0.1c-0.1,0-0.2,0-0.2,0c-0.1,0-0.2,0-0.2,0.1c0.1,0.1,0.2,0.3,0.2,0.4
					c0.1,0.3,0.1,0.7,0,1C674.7,110.7,674.6,110.9,674.5,111z"/>
				<path class="st13" d="M673.8,110.1c0,0.4,0.3,0.8,0.7,0.9c0.1-0.1,0.2-0.3,0.2-0.4c0.1-0.3,0.1-0.7,0-1
					c-0.1-0.2-0.1-0.3-0.2-0.4C674.1,109.3,673.8,109.7,673.8,110.1z"/>
				<path class="st2" d="M673.8,109.8c0,0.1,0,0.2-0.1,0.3c0,0.1-0.1,0.2-0.2,0.2c-0.1,0.1-0.2,0.1-0.2,0.2c-0.1,0-0.2,0-0.3,0
					c-0.1,0-0.2,0-0.3,0c-0.1,0-0.2-0.1-0.2-0.2c-0.1-0.1-0.1-0.1-0.2-0.2c-0.1-0.2-0.1-0.4,0-0.6c0-0.1,0.1-0.2,0.2-0.2
					c0.1-0.1,0.2-0.1,0.2-0.2c0.1,0,0.2-0.1,0.3-0.1c0.2,0,0.4,0.1,0.5,0.2c0.1,0.1,0.1,0.2,0.2,0.2
					C673.8,109.6,673.8,109.7,673.8,109.8z"/>
				<path class="st10" d="M668.8,113.1c0-0.4,0.3-0.8,0.7-0.9c-0.1-0.2-0.3-0.3-0.5-0.4l-0.3-0.1c-0.1,0-0.2,0-0.3-0.1h-0.3
					c-0.1,0-0.2,0-0.3,0.1c-0.1,0-0.2,0.1-0.3,0.1c-0.1,0-0.2,0.1-0.2,0.2c-0.1,0.1-0.1,0.2-0.2,0.2c-0.1,0.1-0.1,0.2-0.2,0.3
					c0,0.1-0.1,0.2-0.1,0.3c0,0.2,0,0.4,0,0.6c0,0.1,0,0.2,0.1,0.3c0,0.1,0.1,0.2,0.2,0.3c0.1,0.1,0.1,0.2,0.2,0.2
					c0.1,0.1,0.2,0.1,0.2,0.2c0.1,0.1,0.2,0.1,0.3,0.1l0.3,0.1h0.3c0.1,0,0.2,0,0.3-0.1c0.1,0,0.2-0.1,0.3-0.1l0.3-0.2
					c0.1-0.1,0.2-0.1,0.2-0.2c-0.2-0.1-0.4-0.2-0.5-0.4C668.8,113.5,668.8,113.3,668.8,113.1z"/>
				<path class="st7" d="M669.8,114.1c-0.1,0-0.2,0-0.3-0.1c-0.2,0.2-0.4,0.4-0.7,0.5c-0.3,0.1-0.6,0.1-0.9,0
					c-0.6-0.1-1-0.6-1.1-1.2c0,0.1,0,0.2,0,0.2c0,0.2,0,0.3,0.1,0.5c0.1,0.3,0.3,0.6,0.5,0.8c0.1,0.1,0.3,0.2,0.4,0.2
					c0.3,0.1,0.6,0.1,0.9,0c0.1,0,0.3-0.1,0.4-0.2c0.1-0.1,0.2-0.2,0.3-0.3c0.1,0,0.2,0,0.2,0c0.1,0,0.2,0,0.2,0
					c0.2,0,0.3-0.1,0.5-0.2c0.1,0,0.1-0.1,0.2-0.2c0.1-0.1,0.1-0.1,0.1-0.2c0-0.1,0.1-0.2,0.1-0.2c0-0.1,0-0.2,0-0.2
					c0-0.1,0-0.2,0-0.2c0,0.1-0.1,0.2-0.1,0.3c-0.1,0.1-0.1,0.2-0.2,0.2c-0.1,0.1-0.2,0.1-0.3,0.2C670,114,669.9,114.1,669.8,114.1z
					"/>
				<path class="st2" d="M667.4,112.6c0,0.1,0,0.1,0,0.2c0,0.1,0.1,0.1,0.2,0.2c0.1,0,0.1,0,0.2,0c0.3,0,0.7,0,1-0.1
					c0.1,0,0.2,0,0.3-0.1v-0.1c0,0,0,0,0-0.1c0-0.2-0.1-0.3-0.2-0.5c-0.2-0.2-0.4-0.3-0.6-0.3c-0.1,0-0.2,0-0.3,0
					c-0.1,0-0.2,0.1-0.3,0.2c-0.1,0.1-0.2,0.1-0.2,0.2C667.4,112.4,667.4,112.5,667.4,112.6z"/>
				<path class="st15" d="M664.5,106.2l0.5,0.1h0.2h0.2l0.2-0.1c0.1,0,0.1-0.1,0.2-0.1c0,0,0.1-0.1,0.1-0.1c0-0.1,0.1-0.1,0.1-0.2
					c0-0.1,0.1-0.1,0.1-0.2c0-0.1,0-0.1,0-0.2l-1.9-0.3h-0.1c-0.1,0-0.2,0-0.3,0.1c-0.1,0.1-0.2,0.2-0.2,0.3c0,0.2,0.1,0.4,0.3,0.5
					C664.1,106.1,664.3,106.2,664.5,106.2z"/>
				<polygon class="st16" points="666.2,95 666.2,99.5 665.8,99.5 660.7,99.5 660.2,99.5 660.2,98 656.7,98 656.7,95 				"/>
				<path class="st17" d="M657.7,95v1c0,0.3,0.1,0.5,0.3,0.7c0.1,0.1,0.2,0.2,0.3,0.2c0.1,0.1,0.3,0.1,0.4,0.1h0.5
					c0.3,0,0.5,0.1,0.7,0.3c0.1,0.1,0.2,0.2,0.2,0.3c0,0.1,0.1,0.3,0.1,0.4h-3.5v-3H657.7z"/>
				<rect x="664.7" y="95" class="st18" width="1.5" height="4.5"/>
				<path class="st19" d="M665.8,99.5h-5v3.3c0,0.1,0,0.2,0,0.3c0,0.1,0.1,0.2,0.2,0.2c0.1,0.1,0.1,0.1,0.2,0.2
					c0.1,0,0.2,0.1,0.3,0.1c0.1,0,0.2,0,0.3-0.1c0.1,0,0.2-0.1,0.2-0.2c0.1-0.1,0.1-0.2,0.2-0.2c0-0.1,0.1-0.2,0.1-0.3V102
					c0-0.1,0-0.3,0.1-0.4c0.1-0.1,0.1-0.2,0.2-0.3c0.1-0.1,0.2-0.2,0.3-0.2c0.1-0.1,0.3-0.1,0.4-0.1h2.5L665.8,99.5z"/>
				<path class="st20" d="M665.2,101.5c0.1,0,0.1,0,0.2,0c0.1,0.1,0.2,0.1,0.3,0.3c0,0.1,0,0.1,0,0.2v1c0,0.1,0,0.1,0,0.2
					c-0.1,0.1-0.1,0.2-0.3,0.3c-0.1,0-0.1,0-0.2,0c-0.1,0-0.1,0-0.2,0c-0.1,0-0.1-0.1-0.2-0.1c0,0-0.1-0.1-0.1-0.2
					c0-0.1,0-0.1,0-0.2v-1c0-0.1,0-0.1,0-0.2c0-0.1,0.1-0.1,0.1-0.2c0,0,0.1-0.1,0.2-0.1C665.1,101.5,665.2,101.5,665.2,101.5z"/>
				<path class="st20" d="M665.2,108.6c0.1,0,0.1,0,0.2,0c0.1,0,0.1,0.1,0.2,0.1c0,0,0.1,0.1,0.1,0.2c0,0.1,0,0.1,0,0.2v1
					c0,0.1,0,0.1,0,0.2c0,0.1-0.1,0.1-0.1,0.2c0,0-0.1,0.1-0.2,0.1c-0.1,0-0.1,0-0.2,0c-0.1,0-0.1,0-0.2,0c-0.1,0-0.1-0.1-0.2-0.1
					c0,0-0.1-0.1-0.1-0.2c0-0.1,0-0.1,0-0.2v-1c0-0.1,0-0.1,0-0.2c0.1-0.1,0.1-0.2,0.3-0.3C665.1,108.6,665.2,108.6,665.2,108.6z"/>
				<path class="st20" d="M663.7,108.6c0.1,0,0.1,0,0.2,0c0.1,0,0.1,0.1,0.2,0.1c0,0,0.1,0.1,0.1,0.2c0,0.1,0,0.1,0,0.2v2
					c0,0.1,0,0.1,0,0.2c0,0.1-0.1,0.1-0.1,0.2c0,0-0.1,0.1-0.2,0.1c-0.1,0.1-0.3,0.1-0.4,0c-0.1,0-0.1-0.1-0.2-0.1
					c0,0-0.1-0.1-0.1-0.2c0-0.1,0-0.1,0-0.2v-2c0-0.1,0-0.1,0-0.2c0-0.1,0.1-0.1,0.1-0.2c0,0,0.1-0.1,0.2-0.1
					C663.6,108.6,663.7,108.6,663.7,108.6z"/>
				<path class="st19" d="M661.5,104.6c0.1,0,0.2,0,0.3,0.1c0.2,0.1,0.3,0.2,0.4,0.4c0,0.1,0.1,0.2,0.1,0.3v6c0,0.1,0,0.2-0.1,0.3
					c0,0.1-0.1,0.2-0.2,0.2c-0.1,0.1-0.2,0.1-0.2,0.2c-0.1,0-0.2,0-0.3,0c-0.1,0-0.2,0-0.3,0c-0.2-0.1-0.3-0.2-0.4-0.4
					c0-0.1,0-0.2,0-0.3v-6c0-0.1,0-0.2,0-0.3c0-0.1,0.1-0.2,0.2-0.2c0.1-0.1,0.2-0.1,0.2-0.2C661.3,104.6,661.4,104.6,661.5,104.6z"
					/>
				<rect x="665.2" y="100.5" class="st0" width="1" height="3.5"/>
				<path class="st0" d="M659.7,99.5c0,0.1,0,0.1,0,0.2c0.1,0.1,0.1,0.2,0.3,0.3c0.1,0,0.1,0,0.2,0h6c0.1,0,0.1,0,0.2,0
					c0.1,0,0.1-0.1,0.2-0.1c0,0,0.1-0.1,0.1-0.2c0-0.1,0-0.1,0-0.2V95c0-0.1,0-0.1,0-0.2c0-0.1-0.1-0.1-0.1-0.2
					c-0.1,0-0.1-0.1-0.2-0.1c-0.1,0-0.1,0-0.2,0h-9.6v1h9.1V99h-5v-1c0-0.1,0-0.1,0-0.2c0-0.1-0.1-0.1-0.1-0.2c0,0-0.1-0.1-0.2-0.1
					c-0.1,0-0.1,0-0.2,0h-3.5v1h3L659.7,99.5z"/>
				<rect x="660.2" y="100.5" class="st0" width="1" height="12.6"/>
				<path class="st0" d="M677.9,104.6c0.2,0,0.4,0.1,0.5,0.2l3.2,2.1l1.2,0.8h-4.7l-0.9-0.9c-0.2-0.2-0.4-0.5-0.3-0.8
					c0-0.2,0-0.3,0.1-0.5c0-0.2,0.1-0.3,0.2-0.4c0.1-0.1,0.2-0.2,0.4-0.3C677.6,104.6,677.8,104.6,677.9,104.6z M659.7,116.2
					c0,0,0-0.1,0-0.1c0-0.1,0-0.2,0-0.3c0-0.1,0.1-0.2,0.1-0.3c0.1-0.1,0.1-0.2,0.2-0.3c0.1-0.1,0.2-0.2,0.2-0.2
					c0.1-0.1,0.2-0.1,0.3-0.2c0.1,0,0.2-0.1,0.3-0.1c0.1,0,0.2,0,0.3,0c0.1,0,0.2,0,0.3,0.1c0.1,0,0.2,0,0.2,0
					c0.1,0,0.1-0.1,0.2-0.1c0.1,0,0.1-0.1,0.1-0.2c0-0.1,0-0.2,0-0.2l0,0c0-0.3,0.1-0.6,0.2-0.8c0.2-0.2,0.4-0.4,0.6-0.6
					c0.3-0.1,0.6-0.2,0.8-0.1c0.3,0,0.6,0.2,0.8,0.4l-0.3,0.2L659.7,116.2z M669.6,112.6c0.1,0,0.1,0,0.2,0c0.1,0,0.1,0,0.2,0
					c0.1,0,0.1,0.1,0.2,0.1c0,0,0.1,0.1,0.1,0.2c0.1,0.1,0.1,0.3,0,0.4c0,0.1-0.1,0.1-0.1,0.2c0,0-0.1,0.1-0.2,0.1
					c-0.1,0-0.1,0-0.2,0c-0.1,0-0.1,0-0.2,0c-0.1,0-0.2,0-0.3,0c-0.1,0-0.2,0.1-0.2,0.2c-0.1,0.1-0.2,0.2-0.3,0.3
					c-0.1,0.1-0.3,0.1-0.4,0.1c-0.1,0-0.3,0-0.4,0c-0.1,0-0.2-0.1-0.3-0.2c-0.1-0.1-0.2-0.2-0.2-0.3c-0.1-0.1-0.1-0.3-0.1-0.4
					c0-0.1,0-0.3,0.1-0.4c0.1-0.1,0.1-0.2,0.2-0.3c0.1-0.1,0.2-0.2,0.3-0.2c0.1,0,0.3,0,0.4,0c0.3,0,0.5,0.2,0.7,0.4
					c0.1,0.1,0.1,0.1,0.2,0.2C669.4,112.8,669.5,112.7,669.6,112.6z M672.8,121.6c0.1,0,0.1,0,0.2,0c0.1,0,0.1-0.1,0.2-0.1
					c0,0,0.1-0.1,0.1-0.2c0-0.1,0-0.1,0-0.2c0-0.2,0-0.4,0.1-0.6c0.2-0.4,0.5-0.7,0.8-0.8c0.2-0.1,0.4-0.1,0.6-0.1
					c0.2,0,0.4,0,0.6,0.1c0.2,0.1,0.3,0.2,0.5,0.3c0.1,0.1,0.3,0.3,0.3,0.5c0.1,0.2,0.1,0.4,0.1,0.6c0,0.2,0,0.4-0.1,0.6
					c-0.1,0.2-0.2,0.3-0.3,0.5c-0.3,0.3-0.7,0.4-1.1,0.4c-0.1,0-0.3,0-0.4-0.1c-0.1,0-0.1,0-0.2,0c-0.1,0-0.1,0-0.2,0.1
					c-0.1,0-0.1,0.1-0.2,0.1c0,0.1-0.1,0.1-0.1,0.2c0,0.1-0.1,0.2-0.2,0.3c-0.1,0.1-0.2,0.2-0.3,0.2c-0.2,0.1-0.5,0.2-0.7,0.1
					c-0.1,0-0.2-0.1-0.3-0.1c-0.1-0.1-0.2-0.1-0.3-0.2c-0.1-0.1-0.1-0.2-0.2-0.3c0-0.1,0-0.2,0-0.4c0-0.1,0-0.2,0.1-0.4
					c0.1-0.1,0.1-0.2,0.2-0.3c0.1-0.1,0.2-0.2,0.3-0.2C672.5,121.7,672.7,121.7,672.8,121.6L672.8,121.6z M677.8,108.6h10.1v-1h-3.4
					l-2.4-1.6l-3.1-2c-0.3-0.2-0.7-0.3-1.1-0.3c-0.1,0-0.3,0-0.4,0.1c-0.1,0-0.3,0.1-0.4,0.2c-0.1,0.1-0.3,0.1-0.4,0.2
					c-0.1,0.1-0.2,0.2-0.3,0.3c-0.1,0.1-0.2,0.2-0.3,0.3c-0.1,0.1-0.1,0.3-0.2,0.4c0,0.1-0.1,0.3-0.1,0.4c0,0.1,0,0.3,0,0.4
					c0,0.3,0.1,0.7,0.2,1L674,106h-0.1l-9.5-1.5c-0.5-0.1-1.1,0.3-1.1,0.8c0,0.1,0,0.1,0,0.2c0,0.2,0,0.4,0,0.6
					c0,0.2,0.1,0.4,0.2,0.6c0.1,0.2,0.1,0.4,0.2,0.5c0.1,0.2,0.2,0.3,0.3,0.5c0.1,0.1,0.3,0.3,0.4,0.4c0.2,0.1,0.3,0.2,0.5,0.3
					c0.2,0.1,0.4,0.2,0.5,0.2c0.2,0.1,0.4,0.1,0.6,0.2l2.9,0.4l-3.5,2.9c-0.2-0.2-0.3-0.3-0.5-0.4c-0.2-0.1-0.4-0.2-0.6-0.2
					c-0.2,0-0.4-0.1-0.7-0.1c-0.2,0-0.4,0-0.7,0.1c-0.2,0.1-0.4,0.2-0.6,0.3c-0.2,0.1-0.4,0.3-0.5,0.4c-0.2,0.2-0.3,0.3-0.4,0.6
					c-0.1,0.2-0.2,0.4-0.2,0.6c-0.2,0-0.4,0-0.6,0.1c-0.2,0-0.4,0.1-0.6,0.2c-0.2,0.1-0.3,0.2-0.5,0.3c-0.2,0.1-0.3,0.3-0.4,0.4
					c-0.1,0.2-0.2,0.3-0.3,0.5c-0.1,0.2-0.1,0.4-0.2,0.6c0,0.2,0,0.4,0,0.6c0,0.2,0,0.4,0.1,0.6l-0.8,0.5c-0.2,0.1-0.3,0.2-0.4,0.4
					c-0.1,0.2-0.2,0.3-0.3,0.5c-0.1,0.2-0.1,0.4-0.1,0.6c0,0.2,0,0.4,0.1,0.6c0.1,0.2,0.1,0.4,0.2,0.5c0.2,0.3,0.5,0.6,0.9,0.7
					c0.2,0.1,0.4,0.1,0.6,0.1h0.1l-0.5,0.4c-0.3,0.2-0.5,0.4-0.7,0.7c-0.2,0.3-0.2,0.6-0.2,0.9c0,0.2,0,0.4,0.1,0.7
					c0.1,0.2,0.2,0.4,0.3,0.6c0.1,0.2,0.3,0.3,0.5,0.4c0.2,0.1,0.4,0.2,0.6,0.2h0.2c0.3,0.1,0.5,0.1,0.8,0l0,0c0,0.2,0,0.4,0.1,0.7
					c0.1,0.2,0.2,0.4,0.3,0.6c0.1,0.2,0.3,0.3,0.5,0.4c0.2,0.1,0.4,0.2,0.6,0.2h0.2c0.3,0.1,0.6,0.1,0.9,0c0.3-0.1,0.6-0.2,0.8-0.3
					l1.9-1.4c0,0,0,0.1,0,0.2c0,0.2,0.1,0.3,0.2,0.4c0.1,0.1,0.2,0.2,0.3,0.3c0.1,0.1,0.3,0.2,0.4,0.2c0.2,0.1,0.3,0.1,0.5,0.1
					c0.6,0,1.2-0.2,1.6-0.5l2.5-1.9c0,0.1,0.1,0.1,0.2,0.2c0.1,0.1,0.1,0.1,0.2,0.2l0.2,0.2l0.2,0.1l0.2,0.1l0.2,0.1h0.2h0.3
					c0.1,0,0.2,0,0.2,0c0.1,0,0.2,0,0.2-0.1c0.1,0,0.2-0.1,0.2-0.1c0.1,0,0.2-0.1,0.2-0.1l0.2-0.1l0.2-0.2l0.2-0.2
					c0-0.1,0.1-0.1,0.1-0.2h0.3c0.2,0,0.3,0,0.5-0.1c0.2,0,0.3-0.1,0.5-0.1c0.3-0.1,0.6-0.3,0.8-0.6c0.1-0.1,0.2-0.2,0.3-0.4
					c0.1-0.1,0.2-0.3,0.2-0.4c0.1-0.2,0.1-0.3,0.1-0.5c0-0.2,0-0.3,0-0.5v-0.3l1.4,0.5c0.7,0.2,1.4,0.3,2.2,0.3h1.9
					c0.7,0,1.5-0.1,2.2-0.3c0.7-0.2,1.3-0.6,1.9-1l0.3-0.2l0,0l0.4-0.3h0.3v-1h-0.5c-0.1,0-0.3,0.1-0.4,0.2l-0.5,0.5l-0.3,0.2
					c-0.5,0.4-1.1,0.7-1.7,0.9c-0.6,0.2-1.2,0.3-1.8,0.3h-1.9c-0.6,0-1.2-0.1-1.8-0.3l-1-0.3c0.4-0.2,0.8-0.5,1.1-0.8l2.4-2.1h6.4
					v-1h-6.5c-0.1,0-0.2,0-0.3,0.1l-2.5,2.2c-0.5,0.5-1.1,0.8-1.7,1.2c-0.1-0.2-0.3-0.4-0.5-0.5c-0.2-0.1-0.4-0.3-0.6-0.3
					c-0.2-0.1-0.5-0.1-0.7-0.1c-0.2,0-0.5,0-0.7,0.1c-0.2,0.1-0.5,0.1-0.7,0.3c-0.2,0.1-0.4,0.3-0.6,0.4c-0.2,0.2-0.3,0.4-0.4,0.6
					c-0.1,0.2-0.2,0.5-0.2,0.7c-0.2,0.1-0.4,0.1-0.6,0.3c-0.2,0.1-0.4,0.3-0.5,0.4c-0.1,0.2-0.2,0.4-0.3,0.6
					c-0.1,0.2-0.1,0.4-0.1,0.7c0,0,0,0.1,0,0.1l-2.8,2.1c-0.3,0.2-0.6,0.3-1,0.3c-0.1,0-0.2,0-0.3-0.1c-0.1-0.1-0.2-0.2-0.2-0.3
					c0-0.1,0-0.2,0-0.4c0-0.1,0.1-0.2,0.2-0.3l4.9-3.6c0.1-0.1,0.2-0.2,0.2-0.3c0-0.1,0-0.1,0-0.2c0-0.1,0-0.1-0.1-0.2
					c0-0.1-0.1-0.1-0.2-0.1c-0.1,0-0.1-0.1-0.2-0.1c-0.1,0-0.1,0-0.2,0c-0.1,0-0.1,0-0.2,0.1l-8,5.8c-0.3,0.2-0.6,0.2-0.9,0.2h-0.2
					c-0.1,0-0.2-0.1-0.3-0.1c-0.1-0.1-0.2-0.1-0.2-0.2c-0.1-0.1-0.1-0.2-0.2-0.3c0-0.1-0.1-0.2-0.1-0.3c0-0.2,0.1-0.5,0.2-0.6
					l8.1-5.5c0.1,0,0.1-0.1,0.1-0.1c0-0.1,0.1-0.1,0.1-0.2c0-0.1,0-0.1,0-0.2c0-0.1,0-0.1-0.1-0.2c0-0.1-0.1-0.1-0.1-0.1
					c-0.1,0-0.1-0.1-0.2-0.1c-0.1,0-0.1,0-0.2,0c-0.1,0-0.1,0-0.2,0.1L661,123c-0.1,0.1-0.2,0.1-0.3,0.2l-0.3,0.2
					c-0.3,0.2-0.6,0.2-0.9,0.2h-0.2c-0.1,0-0.2-0.1-0.3-0.1c-0.1-0.1-0.2-0.1-0.2-0.2c-0.1-0.1-0.1-0.2-0.2-0.3
					c-0.1-0.3-0.1-0.5,0.1-0.8c0.1-0.1,0.2-0.3,0.3-0.3l8.4-5.8c0.1,0,0.1-0.1,0.1-0.1c0-0.1,0.1-0.1,0.1-0.2c0-0.1,0-0.1,0-0.2
					c0-0.1,0-0.1-0.1-0.2c0-0.1-0.1-0.1-0.1-0.1c-0.1,0-0.1-0.1-0.2-0.1c-0.1,0-0.1,0-0.2,0c-0.1,0-0.1,0-0.2,0.1l-6,3.9
					c-0.6,0.4-1.3,0.6-2,0.6c-0.2,0-0.3-0.1-0.5-0.2c-0.1-0.1-0.2-0.3-0.3-0.4c-0.1-0.3,0-0.7,0.3-0.9l6.6-4.1l0,0l1.2-1
					c0,0,0,0.1,0,0.1c0,0.1,0,0.3,0,0.4c0,0.1,0.1,0.3,0.1,0.4c0.1,0.1,0.1,0.2,0.2,0.3c0.1,0.1,0.2,0.2,0.2,0.3
					c0.1,0.1,0.2,0.2,0.3,0.3c0.1,0.1,0.2,0.1,0.3,0.2c0.1,0,0.3,0.1,0.4,0.1c0.1,0,0.3,0,0.4,0c0.5,0,1-0.2,1.3-0.5h0.3
					c0.1,0,0.2,0,0.3-0.1c0.1,0,0.2-0.1,0.3-0.1c0.1-0.1,0.2-0.1,0.3-0.2c0.1-0.1,0.2-0.1,0.3-0.2c0.1-0.1,0.1-0.2,0.2-0.3
					c0.2-0.4,0.2-0.8,0-1.2c0-0.1-0.1-0.2-0.2-0.3c-0.1-0.1-0.1-0.2-0.2-0.2c-0.1-0.1-0.2-0.1-0.3-0.2c-0.1-0.1-0.2-0.1-0.3-0.1
					c-0.1,0-0.2,0-0.3-0.1c-0.1,0-0.2,0-0.3,0c-0.3-0.3-0.7-0.5-1.1-0.5l3.2-2.7l-0.7-0.8l-1,0.8l-3.8-0.6c-0.3,0-0.5-0.1-0.8-0.3
					c-0.2-0.1-0.5-0.3-0.7-0.6c-0.2-0.2-0.3-0.5-0.4-0.7c-0.1-0.3-0.1-0.5-0.1-0.8l9.5,1.4l4,1.6
					C677.7,108.6,677.8,108.6,677.8,108.6L677.8,108.6z"/>
				<path class="st0" d="M674.7,111.6c0.2,0,0.3,0.1,0.4,0.3c0.1,0.1,0.2,0.3,0.2,0.5c0,0.1,0,0.1,0,0.2c0,0.1,0,0.1-0.1,0.2
					l-0.1,0.2L675,113l-0.2,0.1c-0.1,0-0.1,0-0.2,0h-0.2h-0.2l-0.2-0.1c0,0-0.1-0.1-0.1-0.1c0,0-0.1-0.1-0.1-0.1
					c0-0.1-0.1-0.1-0.1-0.2c0-0.1,0-0.1,0-0.2c0-0.1,0-0.1,0-0.2c0-0.1,0-0.1,0-0.2c0-0.1,0.1-0.1,0.1-0.2c0.1-0.1,0.1-0.2,0.1-0.3
					c0-0.1,0-0.2,0-0.3c0-0.1-0.1-0.2-0.2-0.2c-0.1-0.1-0.2-0.1-0.3-0.1h-0.1h-0.2c-0.1,0-0.2,0-0.3,0c-0.1,0-0.2,0-0.2-0.1
					c-0.1,0-0.1-0.1-0.2-0.2c-0.1-0.1-0.1-0.1-0.2-0.2c0-0.1-0.1-0.1-0.1-0.2c0-0.1,0-0.2,0-0.2c0-0.1,0-0.2,0-0.2
					c0-0.1,0-0.2,0.1-0.2c0-0.1,0.1-0.2,0.1-0.2c0.1-0.1,0.1-0.1,0.2-0.2c0.1,0,0.1-0.1,0.2-0.1c0.1,0,0.2,0,0.2-0.1
					c0.1,0,0.2,0,0.3,0l0.2,0.1c0.1,0,0.2,0.1,0.2,0.1c0.1,0.1,0.1,0.1,0.2,0.2c0.1,0.1,0.1,0.1,0.2,0.2c0.1,0,0.2,0,0.3,0
					c0.1,0,0.1,0,0.2,0c0.1,0,0.1,0,0.2,0c0.1,0,0.1,0.1,0.2,0.1c0,0,0.1,0.1,0.1,0.2c0.1,0.1,0.1,0.3,0,0.4c0,0.1-0.1,0.1-0.1,0.2
					c0,0-0.1,0.1-0.2,0.1c-0.1,0-0.1,0-0.2,0c-0.1,0-0.2,0-0.3,0.1c-0.1,0.1-0.2,0.2-0.2,0.3c0,0.1,0,0.2,0.1,0.3
					C674.4,111.5,674.5,111.5,674.7,111.6L674.7,111.6z M674.6,108.6c-0.4-0.3-0.8-0.5-1.3-0.5c-0.2,0-0.5,0-0.7,0.1
					c-0.2,0.1-0.4,0.2-0.6,0.4c-0.2,0.2-0.3,0.4-0.5,0.6c-0.1,0.2-0.2,0.4-0.2,0.7c-0.1,0.5,0.1,1,0.3,1.4c0.1,0.2,0.3,0.4,0.5,0.5
					c0.2,0.1,0.4,0.2,0.7,0.3c0,0.1,0,0.2,0,0.4c0,0.1,0,0.2,0,0.4c0,0.1,0.1,0.2,0.1,0.3c0.1,0.1,0.1,0.2,0.2,0.3
					c0.2,0.2,0.3,0.3,0.6,0.5c0.1,0.1,0.2,0.1,0.3,0.1c0.1,0,0.2,0.1,0.4,0.1c0.1,0,0.2,0,0.4,0c0.1,0,0.2,0,0.3-0.1
					c0.1,0,0.2-0.1,0.3-0.2c0.1-0.1,0.2-0.1,0.3-0.2c0.1-0.1,0.2-0.2,0.2-0.3c0.1-0.1,0.1-0.2,0.2-0.3c0.1-0.1,0.1-0.2,0.1-0.3
					c0-0.1,0-0.2,0-0.4c0-0.4-0.2-0.9-0.5-1.2c0.1-0.1,0.2-0.2,0.3-0.4c0.1-0.1,0.1-0.3,0.2-0.4c0-0.2,0-0.3,0-0.5
					c0-0.2-0.1-0.3-0.1-0.4c-0.1-0.1-0.2-0.3-0.3-0.4c-0.1-0.1-0.2-0.2-0.4-0.3c-0.1-0.1-0.3-0.1-0.4-0.2
					C674.9,108.6,674.8,108.6,674.6,108.6L674.6,108.6z"/>
				<path class="st0" d="M672.3,101c1.2-0.1,2.3,0.4,3.1,1.3l0.8-0.6c-2-2.2-5.4-2.3-7.6-0.3c-0.1,0.1-0.2,0.2-0.3,0.3l0.8,0.6
					C670,101.4,671.1,100.9,672.3,101z"/>
				<path class="st0" d="M672.3,101.5c-0.3,0-0.6,0-0.9,0.1c-0.3,0.1-0.6,0.2-0.8,0.4c-0.3,0.2-0.5,0.3-0.7,0.6
					c-0.2,0.2-0.4,0.5-0.5,0.7l0.9,0.4c0.2-0.4,0.5-0.7,0.9-0.9c0.2-0.1,0.4-0.2,0.6-0.2c0.4-0.1,0.8-0.1,1.2,0
					c0.2,0.1,0.4,0.1,0.6,0.2c0.2,0.1,0.3,0.2,0.5,0.4c0.1,0.2,0.3,0.3,0.4,0.5l0.9-0.4c-0.1-0.3-0.3-0.5-0.5-0.7
					c-0.2-0.2-0.4-0.4-0.7-0.6c-0.3-0.2-0.5-0.3-0.8-0.4C672.9,101.6,672.6,101.5,672.3,101.5z"/>
				<path class="st0" d="M682.4,125.2c-1.2,0.1-2.3-0.4-3.1-1.3l-0.8,0.6c2,2.2,5.4,2.3,7.6,0.3c0.1-0.1,0.2-0.2,0.3-0.3l-0.8-0.6
					C684.7,124.8,683.6,125.3,682.4,125.2z"/>
				<path class="st0" d="M682.4,124.7c0.3,0,0.6,0,0.9-0.1c0.3-0.1,0.6-0.2,0.8-0.4c0.5-0.3,0.9-0.8,1.2-1.3l-0.9-0.4
					c-0.1,0.2-0.2,0.4-0.4,0.5c-0.1,0.2-0.3,0.3-0.5,0.4c-0.2,0.1-0.4,0.2-0.6,0.2c-0.4,0.1-0.8,0.1-1.2,0c-0.2-0.1-0.4-0.1-0.6-0.2
					c-0.2-0.1-0.4-0.2-0.5-0.4c-0.1-0.2-0.3-0.3-0.4-0.5l-0.9,0.4c0.1,0.3,0.3,0.5,0.5,0.7c0.2,0.2,0.4,0.4,0.7,0.6
					c0.3,0.2,0.5,0.3,0.8,0.4C681.8,124.7,682.1,124.7,682.4,124.7z"/>
			</g>
		</g>
		<line class="st21" x1="660.7" y1="136.1" x2="631" y2="177.5"/>
		<polygon class="st22" points="663.6,139.1 663.5,131.9 656.6,134.1 		"/>
		<path class="st22" d="M626.9,183.3c-0.2-0.2-0.4-0.4-0.6-0.6c-0.2-0.2-0.4-0.4-0.5-0.7c-0.1-0.2-0.3-0.5-0.4-0.8
			c-0.2-0.5-0.3-1.1-0.3-1.7c0-0.3,0-0.6,0.1-0.8c0.1-0.3,0.2-0.5,0.3-0.8c0.1-0.3,0.3-0.5,0.4-0.7c0.2-0.2,0.4-0.4,0.6-0.6
			c0.2-0.2,0.4-0.4,0.7-0.5c0.2-0.1,0.5-0.3,0.8-0.4c0.5-0.2,1.1-0.3,1.7-0.3c0.3,0,0.6,0.1,0.8,0.1c0.3,0.1,0.5,0.2,0.8,0.3
			c0.3,0.1,0.5,0.3,0.7,0.4c0.2,0.2,0.4,0.4,0.6,0.6c0.2,0.2,0.4,0.4,0.5,0.7c0.1,0.2,0.3,0.5,0.4,0.8c0.1,0.3,0.2,0.5,0.2,0.8
			c0,0.3,0.1,0.6,0.1,0.9c0,0.3-0.1,0.6-0.1,0.8c-0.1,0.3-0.2,0.5-0.3,0.8c-0.1,0.3-0.3,0.5-0.4,0.7c-0.2,0.2-0.4,0.4-0.6,0.6
			c-0.2,0.2-0.4,0.4-0.7,0.5c-0.2,0.1-0.5,0.3-0.8,0.4c-0.3,0.1-0.5,0.2-0.8,0.2c-0.3,0-0.6,0.1-0.8,0.1c-0.3,0-0.6,0-0.8-0.1
			c-0.3-0.1-0.5-0.2-0.8-0.3C627.3,183.6,627.1,183.5,626.9,183.3z"/>
	</g>
</g>
<g>
	<path class="st2" d="M312,198.3h-6.3l-2.5,4.7h-2.3l9.2-16.4h1.2l3.7,16.4h-2.2L312,198.3z M306.6,196.7h5l-1.3-6.8L306.6,196.7z"
		/>
	<path class="st2" d="M326.5,200.5c-0.1,0.6-0.1,0.8-0.1,1c0,0.5,0.6,0.6,1.3,0.6v1c-0.4,0.1-1.4,0.3-2,0.3c-0.8,0-1.1-0.3-1.1-0.9
		c0-0.2,0.1-0.8,0.1-1.1c-1.1,1.2-2.5,2.1-3.8,2.1c-1.8,0-3-1.2-3-3c0-0.5,0-1,0.1-1.8l0.7-4.4c0-0.3,0.1-0.9,0.1-1.1
		c0-0.5-0.5-0.6-1.3-0.6l0.2-1c0.6-0.2,1.5-0.3,2.1-0.3c0.7,0,1,0.3,1,0.8c0,0.4-0.1,1.3-0.2,1.8l-0.8,4.6c-0.1,0.5-0.2,1.3-0.2,1.8
		c0,1,0.6,1.6,1.6,1.6c1.5,0,3.1-1.6,3.9-2.9l1.2-7.4h1.8L326.5,200.5z"/>
	<path class="st2" d="M331.6,203.4c-0.8,0-1.1-0.3-1.1-0.9c0-0.3,0.1-1.1,0.2-1.5l2.7-15.3l1.8-0.4l-2.7,15.2
		c-0.1,0.6-0.1,0.8-0.1,1c0,0.5,0.5,0.6,1.3,0.6v1C333.2,203.2,332.1,203.4,331.6,203.4z"/>
	<path class="st2" d="M343,201.3c-1.1,1.3-2.5,2.1-3.7,2.1c-2.1,0-3.2-1.7-3.2-4.2c0-4.4,2.4-8.1,6.3-8.1c1.5,0,2.7,0.4,3.8,1.1
		l-1.3,8c-0.1,0.6-0.2,1.1-0.2,1.2c0,0.5,0.3,0.6,1.3,0.6v1c-0.5,0.1-1.3,0.3-2.1,0.3c-0.8,0-1.1-0.3-1.1-1
		C342.9,202.2,342.9,201.9,343,201.3z M343.3,198.9l1-5.8c-0.3-0.2-1-0.5-2-0.5c-2.5,0-4.4,2.9-4.4,6.5c0,1.6,0.5,2.7,1.7,2.7
		C340.9,201.8,342.5,200.2,343.3,198.9z"/>
	<path class="st2" d="M315.7,219c0-7.3,4.9-12.6,12.1-12.6c2.8,0,5.2,0.7,6.7,1.4l-1.2,3.4c-1.1-0.6-3.2-1.3-5.3-1.3
		c-4.9,0-8.2,3.6-8.2,8.7c0,4,2.1,5.8,5.8,5.8c0.8,0,1.9-0.1,2.6-0.3l0.7-4h-3.5l0.6-3.4h7.4l-1.8,10.1c-1.5,0.5-4.4,1.1-7,1.1
		C319.2,227.9,315.7,224.9,315.7,219z"/>
</g>
</svg>
