<svg xmlns="http://www.w3.org/2000/svg" viewBox="0 0 637.36 608.79"><defs><style>.cls-1{fill:#646464;}.cls-2{fill:#010101;}.cls-3,.cls-6{fill:#fff;}.cls-4{fill:#5e9e49;}.cls-5{fill:#325d28;}.cls-6{font-size:23.21px;font-family:GandhiSans-Italic, Gandhi Sans;font-style:italic;}.cls-7{letter-spacing:-0.02em;}.cls-8{letter-spacing:0em;}.cls-9{letter-spacing:-0.02em;}.cls-10{letter-spacing:0em;}.cls-11{font-size:29.23px;font-family:GandhiSans-BoldItalic, Gandhi Sans;font-weight:700;}</style></defs><g id="Capa_2" data-name="Capa 2"><g id="Capa_1-2" data-name="Capa 1"><path class="cls-1" d="M124.74,79.11H558.25a0,0,0,0,1,0,0V512.61a0,0,0,0,1,0,0H356.05A231.31,231.31,0,0,1,124.74,281.3V79.11a0,0,0,0,1,0,0Z"/><rect class="cls-2" x="-8.44" y="66.98" width="168.77" height="34.81" transform="translate(-8.44 160.33) rotate(-90)"/><rect class="cls-1" x="60.65" width="2.11" height="168.77"/><rect class="cls-1" x="89.13" width="2.11" height="168.77"/><rect class="cls-3" x="74.89" y="158.22" width="2.11" height="10.55"/><rect class="cls-3" x="74.89" y="137.12" width="2.11" height="10.55"/><rect class="cls-3" x="74.89" y="116.03" width="2.11" height="10.55"/><rect class="cls-3" x="74.89" y="94.93" width="2.11" height="10.55"/><rect class="cls-3" x="74.89" y="73.84" width="2.11" height="10.55"/><rect class="cls-3" x="74.89" y="52.74" width="2.11" height="10.55"/><rect class="cls-3" x="74.89" y="31.64" width="2.11" height="10.55"/><rect class="cls-3" x="74.89" y="10.55" width="2.11" height="10.55"/><rect class="cls-2" x="-8.44" y="235.75" width="168.77" height="34.81" transform="translate(-177.21 329.1) rotate(-90)"/><rect class="cls-1" x="60.65" y="168.77" width="2.11" height="168.77"/><rect class="cls-1" x="89.13" y="168.77" width="2.11" height="168.77"/><rect class="cls-3" x="74.89" y="326.99" width="2.11" height="10.55"/><rect class="cls-3" x="74.89" y="305.89" width="2.11" height="10.55"/><rect class="cls-3" x="74.89" y="284.79" width="2.11" height="10.55"/><rect class="cls-3" x="74.89" y="263.7" width="2.11" height="10.55"/><rect class="cls-3" x="74.89" y="242.6" width="2.11" height="10.55"/><rect class="cls-3" x="74.89" y="221.51" width="2.11" height="10.55"/><rect class="cls-3" x="74.89" y="200.41" width="2.11" height="10.55"/><rect class="cls-3" x="74.89" y="179.31" width="2.11" height="10.55"/><rect class="cls-2" x="-8.44" y="404.51" width="168.77" height="34.81" transform="translate(-345.97 497.86) rotate(-90)"/><rect class="cls-1" x="60.65" y="337.53" width="2.11" height="168.77"/><rect class="cls-1" x="89.13" y="337.53" width="2.11" height="168.77"/><rect class="cls-3" x="74.89" y="495.75" width="2.11" height="10.55"/><rect class="cls-3" x="74.89" y="474.66" width="2.11" height="10.55"/><rect class="cls-3" x="74.89" y="453.56" width="2.11" height="10.55"/><rect class="cls-3" x="74.89" y="432.46" width="2.11" height="10.55"/><rect class="cls-3" x="74.89" y="411.37" width="2.11" height="10.55"/><rect class="cls-3" x="74.89" y="390.27" width="2.11" height="10.55"/><rect class="cls-3" x="74.89" y="369.18" width="2.11" height="10.55"/><rect class="cls-3" x="74.89" y="348.08" width="2.11" height="10.55"/><rect class="cls-2" x="468.33" y="543.75" width="168.77" height="34.81"/><rect class="cls-1" x="468.33" y="545.85" width="168.77" height="2.11"/><rect class="cls-1" x="468.33" y="574.33" width="168.77" height="2.11"/><rect class="cls-3" x="468.33" y="560.09" width="10.55" height="2.11"/><rect class="cls-3" x="489.42" y="560.09" width="10.55" height="2.11"/><rect class="cls-3" x="510.52" y="560.09" width="10.55" height="2.11"/><rect class="cls-3" x="531.62" y="560.09" width="10.55" height="2.11"/><rect class="cls-3" x="552.71" y="560.09" width="10.55" height="2.11"/><rect class="cls-3" x="573.81" y="560.09" width="10.55" height="2.11"/><rect class="cls-3" x="594.9" y="560.09" width="10.55" height="2.11"/><rect class="cls-3" x="616" y="560.09" width="10.55" height="2.11"/><rect class="cls-2" x="299.56" y="543.75" width="168.77" height="34.81"/><rect class="cls-1" x="299.56" y="545.86" width="168.77" height="2.11"/><rect class="cls-1" x="299.56" y="574.33" width="168.77" height="2.11"/><rect class="cls-3" x="299.56" y="560.09" width="10.55" height="2.11"/><rect class="cls-3" x="320.66" y="560.09" width="10.55" height="2.11"/><rect class="cls-3" x="341.75" y="560.09" width="10.55" height="2.11"/><rect class="cls-3" x="362.85" y="560.09" width="10.55" height="2.11"/><rect class="cls-3" x="383.94" y="560.09" width="10.55" height="2.11"/><rect class="cls-3" x="405.04" y="560.09" width="10.55" height="2.11"/><rect class="cls-3" x="426.14" y="560.09" width="10.55" height="2.11"/><rect class="cls-3" x="447.23" y="560.09" width="10.55" height="2.11"/><rect class="cls-2" y="543.75" width="299.56" height="34.81"/><rect class="cls-1" x="130.79" y="545.86" width="168.77" height="2.11"/><rect class="cls-1" x="130.79" y="574.33" width="168.77" height="2.11"/><rect class="cls-3" x="130.79" y="560.09" width="10.55" height="2.11"/><rect class="cls-3" x="151.89" y="560.09" width="10.55" height="2.11"/><rect class="cls-3" x="172.99" y="560.09" width="10.55" height="2.11"/><rect class="cls-3" x="194.08" y="560.09" width="10.55" height="2.11"/><rect class="cls-3" x="215.18" y="560.09" width="10.55" height="2.11"/><rect class="cls-3" x="236.27" y="560.09" width="10.55" height="2.11"/><rect class="cls-3" x="257.37" y="560.09" width="10.55" height="2.11"/><rect class="cls-3" x="278.47" y="560.09" width="10.55" height="2.11"/><rect class="cls-1" y="545.86" width="46.41" height="2.11"/><rect class="cls-1" x="106.53" y="545.86" width="24.26" height="2.11"/><rect class="cls-1" x="58.54" y="545.86" width="34.81" height="2.11"/><rect class="cls-1" y="574.33" width="46.41" height="2.11"/><rect class="cls-1" x="106.53" y="574.33" width="24.26" height="2.11"/><rect class="cls-1" x="58.54" y="574.33" width="34.81" height="2.11"/><rect class="cls-3" x="4.22" y="560.09" width="10.55" height="2.11"/><rect class="cls-3" x="25.32" y="560.09" width="10.55" height="2.11"/><rect class="cls-3" x="67.51" y="560.09" width="10.55" height="2.11"/><rect class="cls-3" x="109.7" y="560.09" width="10.55" height="2.11"/><rect class="cls-2" x="58.54" y="506.3" width="34.81" height="102.49"/><rect class="cls-1" x="60.65" y="506.3" width="2.11" height="22.85"/><rect class="cls-1" x="89.13" y="506.3" width="2.11" height="22.85"/><rect class="cls-3" x="74.89" y="516.85" width="2.11" height="10.55"/><rect class="cls-3" x="74.89" y="531.88" width="2.11" height="10.55"/><rect class="cls-3" x="78.46" y="531.88" width="2.11" height="10.55"/><rect class="cls-3" x="71.32" y="531.88" width="2.11" height="10.55"/><rect class="cls-3" x="64.17" y="531.88" width="2.11" height="10.55"/><rect class="cls-3" x="67.74" y="531.88" width="2.11" height="10.55"/><rect class="cls-3" x="60.59" y="531.88" width="2.11" height="10.55"/><rect class="cls-3" x="85.61" y="531.88" width="2.11" height="10.55"/><rect class="cls-3" x="89.19" y="531.88" width="2.11" height="10.55"/><rect class="cls-3" x="82.04" y="531.88" width="2.11" height="10.55"/><rect class="cls-3" x="93.35" y="560.09" width="10.55" height="2.11"/><rect class="cls-3" x="93.35" y="563.67" width="10.55" height="2.11"/><rect class="cls-3" x="93.35" y="556.52" width="10.55" height="2.11"/><rect class="cls-3" x="93.35" y="549.37" width="10.55" height="2.11"/><rect class="cls-3" x="93.35" y="552.95" width="10.55" height="2.11"/><rect class="cls-3" x="93.35" y="545.8" width="10.55" height="2.11"/><rect class="cls-3" x="93.35" y="570.82" width="10.55" height="2.11"/><rect class="cls-3" x="93.35" y="574.39" width="10.55" height="2.11"/><rect class="cls-3" x="93.35" y="567.24" width="10.55" height="2.11"/><rect class="cls-3" x="48.23" y="560.09" width="10.55" height="2.11"/><rect class="cls-3" x="48.23" y="563.67" width="10.55" height="2.11"/><rect class="cls-3" x="48.23" y="556.52" width="10.55" height="2.11"/><rect class="cls-3" x="48.23" y="549.37" width="10.55" height="2.11"/><rect class="cls-3" x="48.23" y="552.95" width="10.55" height="2.11"/><rect class="cls-3" x="48.23" y="545.8" width="10.55" height="2.11"/><rect class="cls-3" x="48.23" y="570.82" width="10.55" height="2.11"/><rect class="cls-3" x="48.23" y="574.39" width="10.55" height="2.11"/><rect class="cls-3" x="48.23" y="567.24" width="10.55" height="2.11"/><rect class="cls-3" x="74.89" y="578.55" width="2.11" height="10.55"/><rect class="cls-3" x="78.46" y="578.55" width="2.11" height="10.55"/><rect class="cls-3" x="71.32" y="578.55" width="2.11" height="10.55"/><rect class="cls-3" x="64.17" y="578.55" width="2.11" height="10.55"/><rect class="cls-3" x="67.74" y="578.55" width="2.11" height="10.55"/><rect class="cls-3" x="60.59" y="578.55" width="2.11" height="10.55"/><rect class="cls-3" x="85.61" y="578.55" width="2.11" height="10.55"/><rect class="cls-3" x="89.19" y="578.55" width="2.11" height="10.55"/><rect class="cls-3" x="82.04" y="578.55" width="2.11" height="10.55"/><rect class="cls-1" x="60.65" y="591.21" width="2.11" height="17.58"/><rect class="cls-1" x="89.13" y="591.21" width="2.11" height="17.58"/><rect class="cls-3" x="74.89" y="591.21" width="2.11" height="10.55"/><polygon class="cls-4" points="637.36 101.26 637.36 512.62 426.3 512.62 426.3 239.02 394.82 211.07 393.63 211.07 393.63 130.15 124.74 130.15 124.74 0 536.1 0 637.36 101.26"/><path class="cls-2" d="M45.72,303.49l-1.59-.24a7.58,7.58,0,0,0,1.12-3.77c0-1.65-.87-2.9-2.48-2.9s-2.06,1.42-3.18,3.56c-.89,1.72-1.84,3.05-3.86,3.05-2.5,0-3.81-1.93-3.81-4.41a6.1,6.1,0,0,1,.91-3.49l1.57.27a5.48,5.48,0,0,0-1,3.16c0,1.74,1,2.75,2.16,2.75s1.85-.86,2.78-2.71,2-4,4.39-4,4,2,4,4.62A8.65,8.65,0,0,1,45.72,303.49Z"/><path class="cls-2" d="M46.39,284.35a7.85,7.85,0,0,1,.19,1.63c0,.81-.36,1.21-1.25,1.27a4,4,0,0,1,1.38,3c0,1.55-.83,2.75-2.39,2.75-2.67,0-3.23-3.6-3.59-5.7H39.34c-1.11,0-1.85.28-1.85,1.89a7.55,7.55,0,0,0,.85,3.18l-1.23.25a8.8,8.8,0,0,1-1-4c0-2.06,1.06-3,3-3H44.8c.64,0,.7-.36.7-.82v-.49Zm-1,5.76a4.22,4.22,0,0,0-1.55-2.84H41.9c.42,2.31,1,4.07,2.37,4.07A1.12,1.12,0,0,0,45.36,290.11Z"/><path class="cls-2" d="M36.39,282l-.32-1.62h1.42a5.33,5.33,0,0,1-1.42-3.47c0-2.18,1.36-3.33,3.48-3.33h6.86v1.61H39.78a2,2,0,0,0-2.22,2.14A4.56,4.56,0,0,0,39,280.38h7.41V282Z"/><path class="cls-2" d="M32.21,265.4v-2l11.58-5-11.58-5.06v-1.89h14.2v1.69H35.67l10.74,4.77v1.06L35.58,263.7H46.41v1.7Z"/><path class="cls-2" d="M46.39,240.18a7.77,7.77,0,0,1,.19,1.63c0,.8-.36,1.21-1.25,1.27a4,4,0,0,1,1.38,3c0,1.54-.83,2.75-2.39,2.75-2.67,0-3.23-3.6-3.59-5.7H39.34c-1.11,0-1.85.28-1.85,1.89a7.55,7.55,0,0,0,.85,3.18l-1.23.25a8.84,8.84,0,0,1-1-4c0-2.06,1.06-3,3-3H44.8c.64,0,.7-.36.7-.83v-.48Zm-1,5.76a4.19,4.19,0,0,0-1.55-2.84H41.9c.42,2.31,1,4.07,2.37,4.07A1.12,1.12,0,0,0,45.36,245.94Z"/><path class="cls-2" d="M37.83,232.33a3.06,3.06,0,0,0-.06.62c0,1,.55,1.86,1.95,3.26h6.69v1.61h-10l-.32-1.61h2.1c-1.06-1-2.1-1.88-2.1-3.16a1.52,1.52,0,0,1,.32-.91Z"/><path class="cls-2" d="M36.37,231.21v-1.72l-2.65-.55v-1.06h2.65v-3.24h1.31v3.24h6.13c1,0,1.52-.36,1.52-1.27a5.35,5.35,0,0,0-.46-1.84l1.25-.24a5.19,5.19,0,0,1,.59,2.4c0,1.8-.93,2.56-2.9,2.56H37.68v1.72Z"/><path class="cls-2" d="M34.21,222l-3.59-1.93.43-1.84,3.54,3.05Zm2.18.15-.32-1.61H46.41v1.61Z"/><path class="cls-2" d="M36.39,217.43l-.32-1.61h1.42a5.34,5.34,0,0,1-1.42-3.48c0-2.18,1.36-3.32,3.48-3.32h6.86v1.61H39.78a2,2,0,0,0-2.22,2.14,4.56,4.56,0,0,0,1.44,3h7.41v1.61Z"/><path class="cls-2" d="M311.49,587.56h8V589h-6.29v4.6h5.06V595h-5.06v5.34h6.36v1.42h-8.06Z"/><path class="cls-2" d="M322.18,591.73l1.61-.31v1.42a5.28,5.28,0,0,1,3.47-1.42c2.19,0,3.33,1.35,3.33,3.47v6.87H329v-6.64a2,2,0,0,0-2.14-2.22,4.56,4.56,0,0,0-3,1.44v7.42h-1.61Z"/><path class="cls-2" d="M339.15,593.17a2.93,2.93,0,0,0-.61-.06c-1,0-1.87.55-3.26,1.95v6.7h-1.62v-10l1.62-.31v2.09c1-1.06,1.88-2.09,3.15-2.09a1.53,1.53,0,0,1,.91.31Z"/><path class="cls-2" d="M341,588.13a1.19,1.19,0,0,1,2.37,0,1.19,1.19,0,0,1-2.37,0Zm.38,3.6,1.61-.31v10.34h-1.61Z"/><path class="cls-2" d="M352.89,606.44V600.7a4.52,4.52,0,0,1-3.2,1.36c-2.61,0-4.13-2.21-4.13-5.22,0-3.43,1.95-5.42,4.87-5.42a9.68,9.68,0,0,1,4.07,1v14.05Zm0-7.31v-5.68a4.92,4.92,0,0,0-2.42-.64c-2.2,0-3.26,1.66-3.26,4s.76,3.83,2.82,3.83A4.15,4.15,0,0,0,352.89,599.13Z"/><path class="cls-2" d="M365.69,601.76h-1.61v-1.08a5.26,5.26,0,0,1-3.47,1.38c-2,0-3.18-1.23-3.18-3.67v-6.68H359v6.74c0,1.63.76,2.19,1.93,2.19a4.38,4.38,0,0,0,3.11-1.51v-7.42h1.61Z"/><path class="cls-2" d="M376.71,601a6.17,6.17,0,0,1-3.51,1c-2.78,0-4.94-1.74-4.94-5.13s2.12-5.51,4.81-5.51c2.52,0,3.77,1.27,3.77,3.79a12.39,12.39,0,0,1-.08,1.29h-6.87v.43c0,2.65,1.57,3.71,3.58,3.71a6,6,0,0,0,3-.87Zm-1.59-5.77a2.12,2.12,0,0,0,.05-.44,1.87,1.87,0,0,0-2.1-2.12,3,3,0,0,0-3,2.56Z"/><path class="cls-2" d="M383.88,594.85c0-4.77,2.88-7.59,7.08-7.59a9.6,9.6,0,0,1,3.9.83l-.3,1.61a7.63,7.63,0,0,0-3.5-.89c-3.45,0-5.38,2.29-5.38,6,0,3.52,2.2,5.64,5.57,5.64a7.46,7.46,0,0,0,3.57-.91l.23,1.54a9.58,9.58,0,0,1-4.11.94C386.59,602.06,383.88,599.28,383.88,594.85Z"/><path class="cls-2" d="M405.52,601.74a8.6,8.6,0,0,1-1.63.19c-.81,0-1.21-.36-1.27-1.25a4,4,0,0,1-3,1.38c-1.55,0-2.76-.83-2.76-2.4,0-2.67,3.61-3.22,5.7-3.58v-1.4c0-1.1-.27-1.84-1.88-1.84a7.7,7.7,0,0,0-3.18.84l-.25-1.23a8.88,8.88,0,0,1,4-1c2.05,0,3,1.06,3,3v5.75c0,.63.36.7.82.7h.49Zm-5.77-1a4.13,4.13,0,0,0,2.84-1.55v-1.91c-2.31.43-4.06,1-4.06,2.38A1.11,1.11,0,0,0,399.75,600.7Z"/><path class="cls-2" d="M413.36,593.17a3,3,0,0,0-.61-.06c-1,0-1.87.55-3.27,1.95v6.7h-1.61v-10l1.61-.31v2.09c1-1.06,1.89-2.09,3.16-2.09a1.56,1.56,0,0,1,.91.31Z"/><path class="cls-2" d="M424.53,596.52c0,3.67-2,5.54-4.87,5.54a6.1,6.1,0,0,1-2.86-.75l-.58.75h-.63V586.75l1.61-.38v6.42a4.68,4.68,0,0,1,3.24-1.37C423,591.42,424.53,593.66,424.53,596.52Zm-7.33-2.18V600a4.53,4.53,0,0,0,2.46.68c2,0,3.22-1.3,3.22-4.07,0-2.38-.95-3.69-2.8-3.69A4.15,4.15,0,0,0,417.2,594.34Z"/><path class="cls-2" d="M426.53,596.74c0-3,1.63-5.32,4.79-5.32s4.79,2.29,4.79,5.32c0,3.24-1.89,5.32-4.79,5.32S426.53,600,426.53,596.74Zm7.88,0c0-2.46-1.21-4-3.09-4s-3.1,1.55-3.1,4,1.06,4,3.1,4S434.41,599.07,434.41,596.74Zm-4.87-7.19,1.92-3.58,1.85.42-3.05,3.54Z"/><rect class="cls-5" x="125.11" y="0.37" width="268.15" height="129.42"/><path class="cls-3" d="M392.9.73V129.42H125.48V.73H392.9m.73-.73H124.74V130.15H393.63V0Z"/><path class="cls-3" d="M218.86,72.72l.78-2.23a9.46,9.46,0,0,0,5.2,1.64c2.26,0,5.11-1.08,5.11-3.8,0-2-2-3-4.68-4.65-2-1.21-3.46-2.48-3.46-4.89,0-4.21,3.4-6.13,7.12-6.13a9.65,9.65,0,0,1,5,1.14L233.23,56A7.67,7.67,0,0,0,229,54.83c-2.26,0-4.68,1-4.68,3.74,0,1.83,1.86,2.63,3.72,3.78,2.13,1.33,4.46,2.69,4.46,5.45,0,4-2.94,6.47-7.87,6.47A11.08,11.08,0,0,1,218.86,72.72Z"/><path class="cls-3" d="M244.65,71.67a6.72,6.72,0,0,1-4.73,2.6c-2.67,0-4-2.14-4-5.29,0-5.55,3.1-10.25,8-10.25a8.45,8.45,0,0,1,4.83,1.42L247,70.24a14.58,14.58,0,0,0-.22,1.58c0,.59.4.72,1.67.75v1.27a10.13,10.13,0,0,1-2.6.43c-1.05,0-1.36-.43-1.36-1.21A8.13,8.13,0,0,1,244.65,71.67Zm.4-3.07,1.24-7.33a4.52,4.52,0,0,0-2.5-.65c-3.22,0-5.64,3.62-5.64,8.17,0,2,.65,3.44,2.2,3.44S243.94,70.31,245.05,68.6Z"/><path class="cls-3" d="M253.19,74.27c-1.05,0-1.39-.43-1.39-1.12a15.94,15.94,0,0,1,.25-1.91l3.4-19.39,2.33-.49-3.41,19.22a8,8,0,0,0-.15,1.27c0,.62.65.72,1.7.72v1.27A12.88,12.88,0,0,1,253.19,74.27Z"/><path class="cls-3" d="M258.83,68.76c0-4.8,2.44-10,7.68-10,3,0,4.92,1.89,4.92,5.51,0,4.8-2.45,10-7.68,10C260.78,74.27,258.83,72.38,258.83,68.76Zm2.26-.13c0,2.73,1.21,3.75,3,3.75,2.66,0,5.05-3.31,5.05-8,0-2.72-1.21-3.74-3-3.74C263.47,60.62,261.09,63.93,261.09,68.63Zm3-12.69,3.78-5.17,2.57.93-5.29,4.86Z"/><path class="cls-3" d="M274.15,73.84l2-11.3c.06-.38.19-1.12.19-1.34,0-.62-.5-.74-1.68-.77l.25-1.27a13.36,13.36,0,0,1,2.63-.43c1,0,1.21.4,1.21,1a11.88,11.88,0,0,1-.12,1.39,6.55,6.55,0,0,1,4.73-2.38c2.33,0,3.78,1.58,3.78,4a22.41,22.41,0,0,1-.34,3.28L286,70.62a6.89,6.89,0,0,0-.16,1.23c0,.62.65.72,1.67.72v1.27a13.54,13.54,0,0,1-2.72.43c-1,0-1.36-.43-1.36-1.21,0-.34.18-1.45.25-1.86l.8-4.76a31.94,31.94,0,0,0,.43-3.44,2,2,0,0,0-2-2.23c-1.83,0-3.81,1.89-4.83,3.5l-1.67,9.57Z"/><rect class="cls-5" x="393.99" y="0.37" width="140.87" height="73.1"/><path class="cls-3" d="M534.5.73V73.1H394.36V.73H534.5m.73-.73H393.63V73.84h141.6V0Z"/><path class="cls-3" d="M448.12,26.3h-6l-2.39,4.46h-2.16l8.75-15.55h1.18l3.55,15.55H449ZM443,24.73h4.78l-1.28-6.48Z"/><path class="cls-3" d="M461.91,28.35a4.74,4.74,0,0,0-.09.93c0,.46.56.53,1.25.53v1a8.73,8.73,0,0,1-1.9.33c-.79,0-1.07-.33-1.07-.89,0-.23.07-.72.12-1.09a5.26,5.26,0,0,1-3.65,2,2.69,2.69,0,0,1-2.87-2.88,11.35,11.35,0,0,1,.13-1.74l.68-4.18c0-.28.14-.84.14-1,0-.46-.47-.56-1.26-.58l.19-.95a7.32,7.32,0,0,1,2-.33c.68,0,.93.28.93.77a15.55,15.55,0,0,1-.23,1.74l-.74,4.41a14.49,14.49,0,0,0-.19,1.7,1.42,1.42,0,0,0,1.51,1.5c1.44,0,2.9-1.48,3.71-2.76l1.16-7h1.67Z"/><path class="cls-3" d="M466.74,31.09c-.79,0-1.05-.33-1.05-.84a11.92,11.92,0,0,1,.19-1.44l2.55-14.53,1.74-.37-2.55,14.41a6.28,6.28,0,0,0-.12,1c0,.46.49.53,1.28.53v1A9.51,9.51,0,0,1,466.74,31.09Z"/><path class="cls-3" d="M477.58,29.14A5.06,5.06,0,0,1,474,31.09c-2,0-3-1.61-3-4,0-4.16,2.32-7.69,6-7.69a6.4,6.4,0,0,1,3.62,1.07l-1.28,7.57c-.09.56-.16,1-.16,1.18,0,.44.3.54,1.25.56v1a7.31,7.31,0,0,1-1.95.33c-.79,0-1-.33-1-.91A6.33,6.33,0,0,1,477.58,29.14Zm.3-2.3.93-5.5a3.42,3.42,0,0,0-1.88-.49c-2.42,0-4.23,2.72-4.23,6.13,0,1.48.49,2.57,1.65,2.57S477,28.11,477.88,26.84Z"/><path class="cls-3" d="M433.87,54l.47-2.66,3.57-.23,2.25-12.8-3.8.47.49-2.75,5.7-1.08h1.93l-2.83,16.13,3.74.26L444.92,54Z"/><path class="cls-3" d="M460.44,46.14,459.1,54h-3.77l3.42-19.58h5.87c4,0,6.22,1.49,6.22,4.88,0,4.59-3.21,6.87-8.12,6.87Zm.55-3.21h1.7c2.75,0,4.3-1,4.3-3.13,0-1.37-.82-2-2.52-2H461.9Z"/><path class="cls-3" d="M474.94,34.39h6.19c3.86,0,5.67,1.46,5.67,4.36a4.62,4.62,0,0,1-3.86,4.61,3.89,3.89,0,0,1,3.45,4.21c0,4.3-3.36,6.4-7.8,6.4h-7.07Zm.9,16.19h2.63c2.34,0,3.92-.82,3.92-2.92,0-1.58-1.2-2.43-3.63-2.43h-2Zm1.49-8.47H479c2.07,0,3.77-.73,3.77-2.6,0-1.26-.79-1.73-2.34-1.73h-2.37Z"/><rect class="cls-5" x="568.67" y="134.93" width="68.45" height="50.32"/><path class="cls-3" d="M636.91,135.14V185h-68v-49.9h68m.43-.42H568.46v50.75h68.88V134.72Z"/><rect class="cls-5" x="568.67" y="185.8" width="68.45" height="50.32"/><path class="cls-3" d="M636.91,186v49.9h-68V186h68m.43-.43H568.46v50.75h68.88V185.58Z"/><path class="cls-3" d="M246.55,316.44l3.66-20.75h6.16c3.59,0,5.57,1.92,5.57,4.83,0,4.93-3.16,7.25-8.79,7.25h-2.6L249,316.44Zm4.37-10.75h2.75c3.53,0,5.82-1.48,5.82-4.95,0-2.1-1.48-3-3.84-3h-3.34Z"/><path class="cls-3" d="M271.84,314.27a6.72,6.72,0,0,1-4.73,2.6c-2.67,0-4-2.13-4-5.29,0-5.54,3.1-10.25,8-10.25a8.43,8.43,0,0,1,4.83,1.42l-1.7,10.1a14,14,0,0,0-.22,1.58c0,.58.4.71,1.67.74v1.27a10.13,10.13,0,0,1-2.6.43c-1.05,0-1.36-.43-1.36-1.21A8.23,8.23,0,0,1,271.84,314.27Zm.41-3.06,1.24-7.34a4.59,4.59,0,0,0-2.51-.65c-3.22,0-5.64,3.62-5.64,8.17,0,2,.65,3.44,2.2,3.44S271.13,312.91,272.25,311.21Z"/><path class="cls-3" d="M281.9,301.76l1.3-3.87h1.58l-.68,3.87H288l-.31,1.92h-3.9l-1.48,8.76a12.16,12.16,0,0,0-.19,1.64c0,.5.46.87,1.15.87a6.76,6.76,0,0,0,2.75-.8l.43,1.73a9.36,9.36,0,0,1-3.71,1c-1.64,0-2.85-.74-2.85-2.54a12.61,12.61,0,0,1,.19-1.89l1.45-8.76H279.3l.37-1.92Z"/><path class="cls-3" d="M293,313.22a8.26,8.26,0,0,0-.15,1.24c0,.62.71.71,1.67.71v1.27a9.63,9.63,0,0,1-2.69.43c-.93,0-1.36-.4-1.36-1.18,0-.24.15-1.33.24-1.85l1.52-8.7c.06-.37.19-1.12.19-1.33,0-.62-.62-.75-1.68-.78l.25-1.27a11.21,11.21,0,0,1,2.66-.43c1,0,1.18.4,1.18,1a14.49,14.49,0,0,1-.28,2.35Zm1.46-15a1.54,1.54,0,0,1-1.58-1.61,1.73,1.73,0,0,1,1.73-1.73,1.51,1.51,0,0,1,1.55,1.55A1.73,1.73,0,0,1,294.44,298.2Z"/><path class="cls-3" d="M297.69,311.36c0-4.8,2.45-10,7.68-10,3,0,4.92,1.89,4.92,5.51,0,4.8-2.45,10-7.68,10C299.64,316.87,297.69,315,297.69,311.36Zm2.26-.12c0,2.72,1.21,3.74,3,3.74,2.67,0,5-3.31,5-8,0-2.72-1.21-3.74-3-3.74C302.33,303.22,300,306.53,300,311.24Z"/><path d="M583.52,25A6.67,6.67,0,0,1,587,27a5.76,5.76,0,0,1-5,9.52,5.76,5.76,0,0,1-.26-11.4,1.31,1.31,0,0,0,.28-.09Z"/><path d="M586.92,59.32c-.29,2.84-.56,5.49-.84,8.14a7.72,7.72,0,0,1-1.16,3.34l-4.12,6.63a2.76,2.76,0,0,1-4.77-.05,2,2,0,0,1,.1-2.22c1.37-2.19,2.76-4.37,4.09-6.58a13.66,13.66,0,0,0,.9-2.16,1.82,1.82,0,0,0,.1-.66q.06-3.63.11-7.26a1.89,1.89,0,0,0,0-.29,3.25,3.25,0,0,1-2.82-1.77c-1.28-1.89-2.6-3.74-3.91-5.61a2.65,2.65,0,0,1-.15-3.06l4-7.17a3.18,3.18,0,0,1,2.68-1.69c2.31-.18,4.62-.41,6.94-.58A1.79,1.79,0,0,1,590.27,40c.51,2.69,1,5.39,1.49,8.09.18,1,.36,1.13,1.36,1.13s2.26,0,3.39,0a1.94,1.94,0,0,1,1.89,1.26,1.72,1.72,0,0,1-1.55,2.34c-1.75.15-3.5.25-5.25.4-.3,0-.84.14-.84.22a2.31,2.31,0,0,0,.25,1.3c1.43,1.82,2.87,3.65,4.44,5.36A9,9,0,0,1,597.82,66c.11,1.82.34,3.62.55,5.42a2.63,2.63,0,0,1-1.68,2.9c-.36.14-.72.29-1.08.39a1.52,1.52,0,0,1-2-1.2c-.23-1.37-.35-2.76-.5-4.14-.13-1.19-.23-2.37-.38-3.55a3.77,3.77,0,0,0-1.06-2.2c-1.32-1.33-2.65-2.66-4-4C587.5,59.47,587.23,59.44,586.92,59.32Zm-5.87-13.81c-.11.08-.17.09-.2.14-.7,1-1.39,2.06-2.08,3.1a1.15,1.15,0,0,0,.1,1.41l1.52,2c.24.32.5.63.87,1.09Z"/><path d="M586,80.27V77.15c0-1.2.5-1.7,1.69-1.71,2.44,0,4.89,0,7.33,0h5.54c0-.64,0-1.26,0-1.87l.06-3.39a3.38,3.38,0,0,1,0-.55,1.14,1.14,0,0,1,1.17-1,1.12,1.12,0,0,1,1.07,1.17c0,.8,0,1.61,0,2.42,0,1.19-.05,2.38-.08,3.57,0,1.53-.44,1.94-1.95,1.94H588.27v2.55c0,2-.26,2.29-2.31,2.29H572.47v2.61a5.9,5.9,0,0,1,0,.84,1.14,1.14,0,0,1-1.15,1,1.11,1.11,0,0,1-1.08-1.1c0-.71,0-1.41,0-2.12V82c0-1.18.51-1.7,1.7-1.7H586Z"/><path class="cls-3" d="M591.16,150.8h-6l-2.39,4.46h-2.16l8.75-15.55h1.18l3.55,15.55h-2.08Zm-5.1-1.58h4.78l-1.28-6.47Z"/><path class="cls-3" d="M605,152.84a4.85,4.85,0,0,0-.09.93c0,.47.56.54,1.25.54v.95a9.4,9.4,0,0,1-1.9.32c-.79,0-1.07-.32-1.07-.88,0-.23.07-.72.12-1.09a5.29,5.29,0,0,1-3.65,2,2.68,2.68,0,0,1-2.87-2.87,11.55,11.55,0,0,1,.13-1.75l.68-4.17c0-.28.14-.84.14-1,0-.46-.47-.56-1.26-.58l.19-1a7.32,7.32,0,0,1,2-.33c.68,0,.93.28.93.77a15.55,15.55,0,0,1-.23,1.74l-.74,4.41a14.57,14.57,0,0,0-.19,1.69,1.42,1.42,0,0,0,1.51,1.51c1.44,0,2.9-1.48,3.71-2.76l1.16-7h1.67Z"/><path class="cls-3" d="M609.78,155.58c-.79,0-1-.32-1-.83a11.42,11.42,0,0,1,.19-1.44l2.55-14.53,1.74-.37-2.55,14.41a6.21,6.21,0,0,0-.12,1c0,.47.49.54,1.28.54v.95A9.48,9.48,0,0,1,609.78,155.58Z"/><path class="cls-3" d="M620.62,153.63a5.06,5.06,0,0,1-3.55,2c-2,0-3-1.6-3-4,0-4.15,2.32-7.68,6-7.68a6.33,6.33,0,0,1,3.62,1.07l-1.28,7.57c-.09.55-.16,1-.16,1.18,0,.44.3.53,1.25.56v.95a7.34,7.34,0,0,1-2,.32c-.79,0-1-.32-1-.9A6.42,6.42,0,0,1,620.62,153.63Zm.3-2.29.93-5.5a3.42,3.42,0,0,0-1.88-.49c-2.42,0-4.23,2.71-4.23,6.13,0,1.48.49,2.57,1.65,2.57S620.08,152.61,620.92,151.34Z"/><path class="cls-3" d="M575.51,176.63c4.62-3.45,10.73-9,10.73-12.25a1.91,1.91,0,0,0-2-1.92,7.88,7.88,0,0,0-4.41,2.07l-1.52-2.78a10.79,10.79,0,0,1,6.51-2.57c3,0,5.18,1.76,5.18,4.59,0,4.73-5.15,9.26-8.13,11.45h6.58l-.73,3.25H575.51Z"/><path class="cls-3" d="M603.48,170.64l-1.34,7.83h-3.77l3.42-19.58h5.87c4,0,6.22,1.49,6.22,4.88,0,4.59-3.21,6.87-8.12,6.87Zm.56-3.22h1.69c2.75,0,4.3-1,4.3-3.12,0-1.38-.82-2-2.52-2h-2.57Z"/><path class="cls-3" d="M618,158.89h6.19c3.86,0,5.67,1.46,5.67,4.35a4.62,4.62,0,0,1-3.86,4.62,3.89,3.89,0,0,1,3.45,4.21c0,4.29-3.36,6.4-7.8,6.4h-7.07Zm.9,16.19h2.63c2.34,0,3.92-.82,3.92-2.92,0-1.58-1.2-2.43-3.63-2.43h-2Zm1.49-8.48H622c2.07,0,3.77-.73,3.77-2.6,0-1.25-.79-1.72-2.34-1.72H621.1Z"/><text class="cls-6" transform="translate(580.86 205.68)"><tspan class="cls-7">A<tspan class="cls-8" x="14.41" y="0">u</tspan><tspan class="cls-9" x="26.83" y="0">l</tspan><tspan class="cls-10" x="32.1" y="0">a</tspan></tspan><tspan class="cls-11"><tspan x="-5.87" y="23.21">3 PB</tspan></tspan></text></g></g></svg>